<svg width="16" height="13" viewBox="0 0 16 13" fill="none" xmlns="http://www.w3.org/2000/svg">
<path d="M2.55555 0.666016H5.66664L7.99996 2.99933H13.4444C13.8569 2.99933 14.2526 3.16322 14.5443 3.45494C14.836 3.74666 14.9999 4.14232 14.9999 4.55488V10.7771C14.9999 11.1896 14.836 11.5853 14.5443 11.877C14.2526 12.1687 13.8569 12.3326 13.4444 12.3326H2.55555C2.14299 12.3326 1.74733 12.1687 1.45561 11.877C1.16389 11.5853 1 11.1896 1 10.7771V2.22156C1 1.80901 1.16389 1.41335 1.45561 1.12162C1.74733 0.829903 2.14299 0.666016 2.55555 0.666016" stroke="white" stroke-width="1.16666" stroke-linecap="round" stroke-linejoin="round"/>
<path d="M8 5.33203V9.99867" stroke="white" stroke-width="1.16666" stroke-linecap="round" stroke-linejoin="round"/>
<path d="M5.6665 7.66797H10.3331" stroke="white" stroke-width="1.16666" stroke-linecap="round" stroke-linejoin="round"/>
</svg>
