<svg width="30" height="30" viewBox="0 0 30 30" fill="none" xmlns="http://www.w3.org/2000/svg">
<path d="M30 15C30 23.2875 23.2781 30 15 30C6.7125 30 0 23.2875 0 15C0 6.72188 6.7125 0 15 0C23.2781 0 30 6.72188 30 15Z" fill="#E24B4B"/>
<path d="M29.9996 15.0001C29.9996 23.2876 23.2777 30.0001 14.9996 30.0001C10.2746 30.0001 6.05586 27.8157 3.31836 24.4032C5.88711 26.4657 9.14023 27.6938 12.6934 27.6938C20.9715 27.6938 27.6934 20.9813 27.6934 12.6938C27.6934 9.14072 26.4652 5.8876 24.3934 3.31885C27.8152 6.06572 29.9996 10.2751 29.9996 15.0001Z" fill="#D03F3F"/>
<path d="M11.9224 12.0441C11.733 12.0441 11.554 11.9522 11.4443 11.7966C10.4065 10.3322 8.98989 9.39845 6.98458 8.86033C6.67239 8.77595 6.48677 8.45439 6.57114 8.1422C6.65552 7.82908 6.9752 7.64626 7.28927 7.72876C9.22708 8.25001 10.7365 9.14345 11.8765 10.4522L12.6986 9.18095C12.873 8.90908 13.2377 8.83126 13.5077 9.00658C13.7796 9.18283 13.8574 9.5447 13.6821 9.81658L12.4146 11.776C12.3096 11.9391 12.1296 12.0394 11.9355 12.0441C11.9299 12.0441 11.9252 12.0441 11.9224 12.0441Z" fill="#3E4347"/>
<path d="M9.50484 17.3728C10.8127 17.3728 11.873 16.1673 11.873 14.6803C11.873 13.1933 10.8127 11.9878 9.50484 11.9878C8.19696 11.9878 7.13672 13.1933 7.13672 14.6803C7.13672 16.1673 8.19696 17.3728 9.50484 17.3728Z" fill="#3E4347"/>
<path d="M18.078 12.0441C18.0733 12.0441 18.0695 12.0441 18.0648 12.0441C17.8708 12.0403 17.6917 11.9391 17.5849 11.7759L16.3183 9.81657C16.143 9.54469 16.2208 9.18188 16.4927 9.00657C16.7636 8.83032 17.1274 8.90907 17.3027 9.18094L18.123 10.4513C19.2639 9.14344 20.7723 8.24907 22.7111 7.72875C23.0252 7.64344 23.3448 7.82907 23.4292 8.14219C23.5136 8.45438 23.328 8.77594 23.0158 8.86032C21.0105 9.39938 19.5939 10.3322 18.5552 11.7975C18.4464 11.9522 18.2674 12.0441 18.078 12.0441Z" fill="#3E4347"/>
<path d="M20.4951 17.3728C21.803 17.3728 22.8632 16.1673 22.8632 14.6803C22.8632 13.1933 21.803 11.9878 20.4951 11.9878C19.1872 11.9878 18.127 13.1933 18.127 14.6803C18.127 16.1673 19.1872 17.3728 20.4951 17.3728Z" fill="#3E4347"/>
<path d="M19.3139 23.5209C18.2086 22.365 16.628 21.7031 14.9752 21.7031C13.3224 21.7031 11.7417 22.3659 10.6364 23.5209C10.2774 23.8959 9.683 23.9072 9.31081 23.55C8.93675 23.1919 8.92363 22.5984 9.28175 22.2244C10.7396 20.7009 12.8142 19.8281 14.9752 19.8281C17.1371 19.8281 19.2117 20.7019 20.6686 22.2244C21.0267 22.5984 21.0136 23.1919 20.6396 23.55C20.2674 23.9072 19.673 23.8959 19.3139 23.5209Z" fill="#3E4347"/>
<path d="M21.8122 14.3093C21.6097 14.3909 21.3519 14.2212 21.23 13.9287C21.1157 13.6352 21.1804 13.3334 21.3829 13.2518C21.5929 13.1693 21.8516 13.339 21.965 13.6324C22.0869 13.924 22.0147 14.2277 21.8122 14.3093Z" fill="#5A5F63"/>
<path d="M10.7239 14.3098C10.5214 14.3914 10.2636 14.2217 10.1417 13.9292C10.0283 13.6357 10.092 13.3339 10.2955 13.2523C10.5055 13.1698 10.7642 13.3395 10.8776 13.6329C10.9986 13.9245 10.9264 14.2282 10.7239 14.3098Z" fill="#5A5F63"/>
</svg>
