<svg width="18" height="11" viewBox="0 0 18 11" fill="none" xmlns="http://www.w3.org/2000/svg">
<path d="M6.33074 7.83849C8.32667 7.83849 9.94469 6.22047 9.94469 4.22454C9.94469 2.22861 8.32667 0.610596 6.33074 0.610596C4.33482 0.610596 2.7168 2.22861 2.7168 4.22454C2.7168 6.22047 4.33482 7.83849 6.33074 7.83849Z" stroke="#677F98" stroke-width="0.8" stroke-miterlimit="10"/>
<path d="M11.0154 0.74531C11.5125 0.60526 12.0338 0.573356 12.5442 0.651746C13.0546 0.730136 13.5424 0.916999 13.9745 1.19975C14.4066 1.4825 14.7732 1.85458 15.0494 2.29091C15.3256 2.72725 15.5052 3.21771 15.5759 3.72927C15.6466 4.24082 15.6069 4.7616 15.4594 5.25651C15.3119 5.75142 15.06 6.20898 14.7208 6.59837C14.3816 6.98776 13.9629 7.29993 13.4928 7.51386C13.0228 7.7278 12.5124 7.83852 11.996 7.83858" stroke="#677F98" stroke-width="0.8" stroke-linecap="round" stroke-linejoin="round"/>
<path d="M1.32642 10.4375C1.89084 9.63468 2.64015 8.97942 3.51108 8.52706C4.38201 8.0747 5.349 7.83854 6.3304 7.8385C7.3118 7.83846 8.2788 8.07456 9.14977 8.52684C10.0207 8.97913 10.7701 9.63434 11.3346 10.4372" stroke="#677F98" stroke-width="0.8" stroke-linecap="round" stroke-linejoin="round"/>
<path d="M11.9963 7.8385C12.9778 7.83779 13.945 8.07359 14.8161 8.52594C15.6871 8.97829 16.4363 9.63386 17.0003 10.4372" stroke="#677F98" stroke-width="0.8" stroke-linecap="round" stroke-linejoin="round"/>
</svg>
