<svg xmlns="http://www.w3.org/2000/svg" width="40" height="39.999" viewBox="0 0 40 39.999">
  <g id="Group_3396" dataname="Group 3396" transform="translate(-124 -1129)">
    <g id="curved-arrow-pointing-down-inside-a-circle" transform="translate(124 1120.997)">
      <path id="Path_1019" dataname="Path 1019" d="M20,0A20,20,0,1,0,40,20,20.023,20.023,0,0,0,20,0Zm6.12,15.232a1.612,1.612,0,0,1-1.611-1.611,2.551,2.551,0,1,0-5.1,0v12.5l1.07-1.274a1.611,1.611,0,1,1,2.467,2.071l-3.916,4.665c-.013.016-.029.027-.042.041a1.319,1.319,0,0,1-.153.145c-.031.027-.062.055-.094.08a1.718,1.718,0,0,1-.19.112c-.034.02-.063.038-.1.055a1.727,1.727,0,0,1-.237.08c-.027.006-.053.018-.081.025a1.549,1.549,0,0,1-.68,0c-.028-.007-.055-.019-.081-.025a1.679,1.679,0,0,1-.235-.08c-.034-.017-.065-.035-.1-.055a2.126,2.126,0,0,1-.19-.112c-.032-.025-.062-.053-.094-.08a1.435,1.435,0,0,1-.153-.145c-.013-.015-.029-.025-.043-.041l-3.916-4.665a1.611,1.611,0,1,1,2.468-2.071l1.07,1.274v-12.5a1.554,1.554,0,0,1,.034-.325,5.761,5.761,0,0,1,11.514.325A1.606,1.606,0,0,1,26.12,15.235Z" transform="translate(0 8)" fill="#d6435c"/>
    </g>
  </g>
</svg>
