<svg xmlns="http://www.w3.org/2000/svg" width="35.001" height="35" viewBox="0 0 35.001 35" >
  <path id="Exclusion_1" dataname="Exclusion 1" d="M-1592-5339h-19a8.01,8.01,0,0,1-8-8v-19a8.008,8.008,0,0,1,8-8h19a8.008,8.008,0,0,1,8,8v19A8.01,8.01,0,0,1-1592-5339Zm-14.78-14.408a5.664,5.664,0,0,0,1.3,3.883,5.6,5.6,0,0,0,3.718,1.732v2.37h1.943v-2.382a5.578,5.578,0,0,0,3.519-1.514,4.575,4.575,0,0,0,1.265-3.344,5.157,5.157,0,0,0-.329-1.917,4.428,4.428,0,0,0-.941-1.446,6.317,6.317,0,0,0-1.5-1.117,18.988,18.988,0,0,0-2.453-1.063,6.4,6.4,0,0,1-2.218-1.213,2.3,2.3,0,0,1-.652-1.705,2.412,2.412,0,0,1,.658-1.817,2.546,2.546,0,0,1,1.832-.635,2.259,2.259,0,0,1,1.874.885,3.87,3.87,0,0,1,.689,2.424h2.955a6.182,6.182,0,0,0-1.16-3.888,4.852,4.852,0,0,0-3.284-1.8v-2.687h-1.954v2.662a5.272,5.272,0,0,0-3.343,1.552,4.673,4.673,0,0,0-1.233,3.331,4.885,4.885,0,0,0,2.844,4.518,17.229,17.229,0,0,0,2.393,1.007,5.829,5.829,0,0,1,2.195,1.22,2.371,2.371,0,0,1,.661,1.715,2.321,2.321,0,0,1-.726,1.784,3.041,3.041,0,0,1-2.118.669,2.84,2.84,0,0,1-2.192-.842,3.405,3.405,0,0,1-.774-2.38Z" transform="translate(1619.001 5374)" />
</svg>
