<svg width="15" height="18" viewBox="0 0 15 18" fill="none" xmlns="http://www.w3.org/2000/svg">
<path d="M6.07566 9.88911C6.56658 9.88911 6.96455 9.49114 6.96455 9.00022C6.96455 8.5093 6.56658 8.11133 6.07566 8.11133C5.58474 8.11133 5.18677 8.5093 5.18677 9.00022C5.18677 9.49114 5.58474 9.88911 6.07566 9.88911Z" stroke="#246BFD" stroke-linecap="round" stroke-linejoin="round"/>
<path d="M1.6311 9.00011C1.6311 9.87914 1.89177 10.7384 2.38013 11.4693C2.86849 12.2002 3.56262 12.7699 4.37473 13.1062C5.18685 13.4426 6.08048 13.5306 6.94262 13.3592C7.80475 13.1877 8.59668 12.7644 9.21824 12.1428C9.83981 11.5212 10.2631 10.7293 10.4346 9.86718C10.6061 9.00504 10.5181 8.11141 10.1817 7.29929C9.84529 6.48718 9.27563 5.79305 8.54475 5.30469C7.81386 4.81633 6.95458 4.55566 6.07555 4.55566" stroke="#246BFD" stroke-linecap="round" stroke-linejoin="round"/>
<path d="M1 15.184C1.99129 15.9976 3.16363 16.5609 4.41821 16.8265C5.67279 17.0921 6.97284 17.0523 8.20878 16.7103C9.44473 16.3683 10.5803 15.7341 11.5199 14.8614C12.4595 13.9886 13.1755 12.9027 13.6075 11.6953C14.0396 10.4879 14.175 9.19432 14.0025 7.92359C13.83 6.65286 13.3545 5.44224 12.6161 4.39375C11.8777 3.34526 10.8981 2.48965 9.75981 1.89901C8.62153 1.30838 7.35795 1.00005 6.07556 1" stroke="#246BFD" stroke-linecap="round" stroke-linejoin="round"/>
</svg>
