<svg width="12" height="12" viewBox="0 0 12 12" fill="none" xmlns="http://www.w3.org/2000/svg">
<path d="M9.81 3.8584H5.04794C4.39043 3.8584 3.85742 4.39141 3.85742 5.04891V9.81097C3.85742 10.4685 4.39043 11.0015 5.04794 11.0015H9.81C10.4675 11.0015 11.0005 10.4685 11.0005 9.81097V5.04891C11.0005 4.39141 10.4675 3.8584 9.81 3.8584Z" stroke="#022A54" stroke-opacity="0.6" stroke-width="0.714309" stroke-linecap="round" stroke-linejoin="round"/>
<path d="M8.8574 3.61913V2.30957C8.8574 1.96225 8.71943 1.62915 8.47384 1.38356C8.22824 1.13797 7.89515 1 7.54783 1H2.30957C1.96225 1 1.62915 1.13797 1.38356 1.38356C1.13797 1.62915 1 1.96225 1 2.30957V7.54783C1 7.89515 1.13797 8.22824 1.38356 8.47384C1.62915 8.71943 1.96225 8.8574 2.30957 8.8574H3.61913" stroke="#022A54" stroke-opacity="0.6" stroke-width="0.714309" stroke-linecap="round" stroke-linejoin="round"/>
</svg>
