<svg xmlns="http://www.w3.org/2000/svg" width="15.478" height="15.478" viewBox="0 0 15.478 15.478">
  <path id="Path_108" dataname="Path 108" d="M13.168.835V0H2.31V.835H0v2.1A3.5,3.5,0,0,0,2.831,6.355,5.43,5.43,0,0,0,6.542,9.3v3.8H4.065v2.372H11.4V13.105H8.925v-3.8a5.429,5.429,0,0,0,3.722-2.952,3.5,3.5,0,0,0,2.831-3.423V.835ZM.954,2.933V1.782H2.31V4.051a5.371,5.371,0,0,0,.133,1.19A2.545,2.545,0,0,1,.954,2.933Zm8.161,3.2L7.739,5.412l-1.376.718.263-1.52L5.512,3.533l1.539-.222.688-1.383.688,1.383,1.539.222L8.852,4.609Zm5.408-3.2A2.544,2.544,0,0,1,13.035,5.24a5.356,5.356,0,0,0,.133-1.19V1.782h1.355Zm0,0" fill="#ad60a4"/>
</svg>
