<svg xmlns="http://www.w3.org/2000/svg" width="16.978" height="17" viewBox="0 0 16.978 17">
  <path id="iconfinder_icon-ios7-gear_211751" d="M79.955,74.25h-.673a1.035,1.035,0,0,0-1.009,1.036.969.969,0,0,0,.332.73l.434.425a1.087,1.087,0,0,1,0,1.545l-.987.978a1.123,1.123,0,0,1-1.549,0l-.416-.416a1,1,0,0,0-.752-.341,1.035,1.035,0,0,0-1.04,1v.677A1.106,1.106,0,0,1,73.21,81H71.865a1.1,1.1,0,0,1-1.08-1.111v-.673a1.035,1.035,0,0,0-1.04-1,.989.989,0,0,0-.735.328l-.429.425a1.09,1.09,0,0,1-.775.31,1.117,1.117,0,0,1-.775-.31l-1-.974a1.09,1.09,0,0,1,0-1.54l.416-.416a1,1,0,0,0,.345-.748,1.032,1.032,0,0,0-1.009-1.036h-.673A1.1,1.1,0,0,1,64,73.175V71.829a1.1,1.1,0,0,1,1.115-1.076h.673A1.035,1.035,0,0,0,66.8,69.718a1,1,0,0,0-.345-.748l-.416-.412a1.09,1.09,0,0,1,0-1.54l.987-.983a1.09,1.09,0,0,1,.775-.31,1.117,1.117,0,0,1,.775.31l.429.425a.982.982,0,0,0,.735.328,1.035,1.035,0,0,0,1.04-1v-.673A1.1,1.1,0,0,1,71.86,64h1.345a1.1,1.1,0,0,1,1.08,1.111v.673a1.028,1.028,0,0,0,1.793.664l.416-.416a1.123,1.123,0,0,1,1.549,0l.987.983a1.1,1.1,0,0,1,0,1.545l-.434.425a.976.976,0,0,0-.332.73,1.032,1.032,0,0,0,1.009,1.036h.673a1.029,1.029,0,0,1,1.031,1.075v1.35A1.017,1.017,0,0,1,79.955,74.25ZM76.074,72.5h0a3.541,3.541,0,1,0-7.082,0h0a3.541,3.541,0,0,0,7.082,0Z" transform="translate(-64 -64)" fill="#fff"/>
</svg>
