<svg xmlns="http://www.w3.org/2000/svg" width="35" height="35" viewBox="0 0 35 35">
  <g id="Group_83" dataname="Group 83" transform="translate(-35 -210)">
    <g id="Exclusion_1"  transform="translate(1654 5584)" >
      <path d="M -1591.999755859375 -5339.50048828125 L -1611.000122070312 -5339.50048828125 C -1615.135864257812 -5339.50048828125 -1618.500610351562 -5342.865234375 -1618.500610351562 -5347.0009765625 L -1618.500610351562 -5366 C -1618.500610351562 -5370.1357421875 -1615.135864257812 -5373.50048828125 -1611.000122070312 -5373.50048828125 L -1591.999755859375 -5373.50048828125 C -1587.86474609375 -5373.50048828125 -1584.500610351562 -5370.1357421875 -1584.500610351562 -5366 L -1584.500610351562 -5347.0009765625 C -1584.500610351562 -5342.865234375 -1587.86474609375 -5339.50048828125 -1591.999755859375 -5339.50048828125 Z M -1592.458251953125 -5358.16748046875 C -1593.85986328125 -5358.16748046875 -1595.000244140625 -5357.02734375 -1595.000244140625 -5355.62548828125 L -1595.000244140625 -5347.4580078125 C -1595.000244140625 -5346.05712890625 -1593.85986328125 -5344.91748046875 -1592.458251953125 -5344.91748046875 C -1591.057373046875 -5344.91748046875 -1589.917724609375 -5346.05712890625 -1589.917724609375 -5347.4580078125 L -1589.917724609375 -5355.62548828125 C -1589.917724609375 -5357.02734375 -1591.057373046875 -5358.16748046875 -1592.458251953125 -5358.16748046875 Z M -1600.624633789062 -5363.41650390625 C -1602.026245117188 -5363.41650390625 -1603.16650390625 -5362.2763671875 -1603.16650390625 -5360.875 L -1603.16650390625 -5347.4580078125 C -1603.16650390625 -5346.05712890625 -1602.026245117188 -5344.91748046875 -1600.624633789062 -5344.91748046875 C -1599.223754882812 -5344.91748046875 -1598.084106445312 -5346.05712890625 -1598.084106445312 -5347.4580078125 L -1598.084106445312 -5360.875 C -1598.084106445312 -5362.2763671875 -1599.223754882812 -5363.41650390625 -1600.624633789062 -5363.41650390625 Z M -1608.791015625 -5368.0830078125 C -1610.193359375 -5368.0830078125 -1611.334228515625 -5366.94287109375 -1611.334228515625 -5365.54150390625 L -1611.334228515625 -5347.4580078125 C -1611.334228515625 -5346.05712890625 -1610.193359375 -5344.91748046875 -1608.791015625 -5344.91748046875 C -1607.39013671875 -5344.91748046875 -1606.250366210938 -5346.05712890625 -1606.250366210938 -5347.4580078125 L -1606.250366210938 -5365.54150390625 C -1606.250366210938 -5366.94287109375 -1607.39013671875 -5368.0830078125 -1608.791015625 -5368.0830078125 Z" stroke="none"/>
      <path d="M -1591.999755859375 -5340.00048828125 C -1588.140380859375 -5340.00048828125 -1585.000610351562 -5343.14111328125 -1585.000610351562 -5347.0009765625 L -1585.000610351562 -5366 C -1585.000610351562 -5369.85986328125 -1588.140380859375 -5373.00048828125 -1591.999755859375 -5373.00048828125 L -1611.000122070312 -5373.00048828125 C -1614.860229492188 -5373.00048828125 -1618.000610351562 -5369.85986328125 -1618.000610351562 -5366 L -1618.000610351562 -5347.0009765625 C -1618.000610351562 -5343.14111328125 -1614.860229492188 -5340.00048828125 -1611.000122070312 -5340.00048828125 L -1591.999755859375 -5340.00048828125 M -1592.458251953125 -5358.66748046875 C -1590.78173828125 -5358.66748046875 -1589.417724609375 -5357.302734375 -1589.417724609375 -5355.62548828125 L -1589.417724609375 -5347.4580078125 C -1589.417724609375 -5345.78125 -1590.78173828125 -5344.41748046875 -1592.458251953125 -5344.41748046875 C -1594.135620117188 -5344.41748046875 -1595.500244140625 -5345.78125 -1595.500244140625 -5347.4580078125 L -1595.500244140625 -5355.62548828125 C -1595.500244140625 -5357.302734375 -1594.135620117188 -5358.66748046875 -1592.458251953125 -5358.66748046875 M -1600.624633789062 -5363.91650390625 C -1598.948120117188 -5363.91650390625 -1597.584106445312 -5362.55224609375 -1597.584106445312 -5360.875 L -1597.584106445312 -5347.4580078125 C -1597.584106445312 -5345.78125 -1598.948120117188 -5344.41748046875 -1600.624633789062 -5344.41748046875 C -1602.301879882812 -5344.41748046875 -1603.66650390625 -5345.78125 -1603.66650390625 -5347.4580078125 L -1603.66650390625 -5360.875 C -1603.66650390625 -5362.55224609375 -1602.301879882812 -5363.91650390625 -1600.624633789062 -5363.91650390625 M -1608.791015625 -5368.5830078125 C -1607.114379882812 -5368.5830078125 -1605.750366210938 -5367.21875 -1605.750366210938 -5365.54150390625 L -1605.750366210938 -5347.4580078125 C -1605.750366210938 -5345.78125 -1607.114379882812 -5344.41748046875 -1608.791015625 -5344.41748046875 C -1610.468994140625 -5344.41748046875 -1611.834228515625 -5345.78125 -1611.834228515625 -5347.4580078125 L -1611.834228515625 -5365.54150390625 C -1611.834228515625 -5367.21875 -1610.468994140625 -5368.5830078125 -1608.791015625 -5368.5830078125 M -1591.999755859375 -5339.00048828125 L -1611.000122070312 -5339.00048828125 C -1615.41162109375 -5339.00048828125 -1619.000610351562 -5342.58935546875 -1619.000610351562 -5347.0009765625 L -1619.000610351562 -5366 C -1619.000610351562 -5370.41162109375 -1615.41162109375 -5374.00048828125 -1611.000122070312 -5374.00048828125 L -1591.999755859375 -5374.00048828125 C -1587.588989257812 -5374.00048828125 -1584.000610351562 -5370.41162109375 -1584.000610351562 -5366 L -1584.000610351562 -5347.0009765625 C -1584.000610351562 -5342.58935546875 -1587.588989257812 -5339.00048828125 -1591.999755859375 -5339.00048828125 Z M -1592.458251953125 -5357.66748046875 C -1593.584228515625 -5357.66748046875 -1594.500244140625 -5356.75146484375 -1594.500244140625 -5355.62548828125 L -1594.500244140625 -5347.4580078125 C -1594.500244140625 -5346.3330078125 -1593.584228515625 -5345.41748046875 -1592.458251953125 -5345.41748046875 C -1591.333129882812 -5345.41748046875 -1590.417724609375 -5346.3330078125 -1590.417724609375 -5347.4580078125 L -1590.417724609375 -5355.62548828125 C -1590.417724609375 -5356.75146484375 -1591.333129882812 -5357.66748046875 -1592.458251953125 -5357.66748046875 Z M -1600.624633789062 -5362.91650390625 C -1601.75048828125 -5362.91650390625 -1602.66650390625 -5362.00048828125 -1602.66650390625 -5360.875 L -1602.66650390625 -5347.4580078125 C -1602.66650390625 -5346.3330078125 -1601.75048828125 -5345.41748046875 -1600.624633789062 -5345.41748046875 C -1599.49951171875 -5345.41748046875 -1598.584106445312 -5346.3330078125 -1598.584106445312 -5347.4580078125 L -1598.584106445312 -5360.875 C -1598.584106445312 -5362.00048828125 -1599.49951171875 -5362.91650390625 -1600.624633789062 -5362.91650390625 Z M -1608.791015625 -5367.5830078125 C -1609.917602539062 -5367.5830078125 -1610.834228515625 -5366.6669921875 -1610.834228515625 -5365.54150390625 L -1610.834228515625 -5347.4580078125 C -1610.834228515625 -5346.3330078125 -1609.917602539062 -5345.41748046875 -1608.791015625 -5345.41748046875 C -1607.665771484375 -5345.41748046875 -1606.750366210938 -5346.3330078125 -1606.750366210938 -5347.4580078125 L -1606.750366210938 -5365.54150390625 C -1606.750366210938 -5366.6669921875 -1607.665771484375 -5367.5830078125 -1608.791015625 -5367.5830078125 Z" stroke="none" fill="#FFFFFF"/>
    </g>
  </g>
</svg>
