<svg width="22" height="22" viewBox="0 0 22 22" fill="none" xmlns="http://www.w3.org/2000/svg">
<path d="M15.9567 9.50859C16.4134 9.50859 16.7836 9.1384 16.7836 8.68175C16.7836 8.22511 16.4134 7.85492 15.9567 7.85492C15.5001 7.85492 15.1299 8.22511 15.1299 8.68175C15.1299 9.1384 15.5001 9.50859 15.9567 9.50859Z" fill="#A1B5C9"/>
<path d="M17.8597 1.65367H16.7848V0.826836C16.7848 0.370174 16.4146 0 15.9579 0C15.5013 0 15.1311 0.370174 15.1311 0.826836V1.65367H11.369V0.826836C11.369 0.370174 10.9988 0 10.5422 0C10.0855 0 9.71532 0.370174 9.71532 0.826836V1.65367H5.99456V0.826836C5.99456 0.370174 5.62438 0 5.16772 0C4.71106 0 4.34089 0.370174 4.34089 0.826836V1.65367H3.30734C1.48367 1.65367 0 3.13735 0 4.96101V17.8597C0 19.6833 1.48367 21.167 3.30734 21.167H9.63264C10.0893 21.167 10.4595 20.7968 10.4595 20.3402C10.4595 19.8835 10.0893 19.5133 9.63264 19.5133H3.30734C2.39551 19.5133 1.65367 18.7715 1.65367 17.8597V4.96101C1.65367 4.04918 2.39551 3.30734 3.30734 3.30734H4.34089V4.13418C4.34089 4.59084 4.71106 4.96101 5.16772 4.96101C5.62438 4.96101 5.99456 4.59084 5.99456 4.13418V3.30734H9.71532V4.13418C9.71532 4.59084 10.0855 4.96101 10.5422 4.96101C10.9988 4.96101 11.369 4.59084 11.369 4.13418V3.30734H15.1311V4.13418C15.1311 4.59084 15.5013 4.96101 15.9579 4.96101C16.4146 4.96101 16.7848 4.59084 16.7848 4.13418V3.30734H17.8597C18.7715 3.30734 19.5133 4.04918 19.5133 4.96101V9.67398C19.5133 10.1306 19.8835 10.5008 20.3402 10.5008C20.7968 10.5008 21.167 10.1306 21.167 9.67398V4.96101C21.167 3.13735 19.6833 1.65367 17.8597 1.65367Z" fill="#A1B5C9"/>
<path d="M16.1625 11.1623C13.4042 11.1623 11.1602 13.4063 11.1602 16.1646C11.1602 18.923 13.4042 21.167 16.1625 21.167C18.9208 21.167 21.1649 18.923 21.1649 16.1646C21.1649 13.4063 18.9208 11.1623 16.1625 11.1623ZM16.1625 19.5133C14.3161 19.5133 12.8138 18.0111 12.8138 16.1646C12.8138 14.3182 14.3161 12.816 16.1625 12.816C18.009 12.816 19.5112 14.3182 19.5112 16.1646C19.5112 18.0111 18.009 19.5133 16.1625 19.5133Z" fill="#A1B5C9"/>
<path d="M17.3656 15.3376H16.9935V14.4694C16.9935 14.0128 16.6233 13.6426 16.1667 13.6426C15.71 13.6426 15.3398 14.0128 15.3398 14.4694V16.1644C15.3398 16.6211 15.71 16.9913 16.1667 16.9913H17.3656C17.8223 16.9913 18.1924 16.6211 18.1924 16.1644C18.1924 15.7078 17.8223 15.3376 17.3656 15.3376Z" fill="#A1B5C9"/>
<path d="M12.362 9.50859C12.8186 9.50859 13.1888 9.1384 13.1888 8.68175C13.1888 8.22511 12.8186 7.85492 12.362 7.85492C11.9053 7.85492 11.5352 8.22511 11.5352 8.68175C11.5352 9.1384 11.9053 9.50859 12.362 9.50859Z" fill="#A1B5C9"/>
<path d="M8.76434 13.1053C9.22098 13.1053 9.59117 12.7351 9.59117 12.2785C9.59117 11.8218 9.22098 11.4517 8.76434 11.4517C8.30769 11.4517 7.9375 11.8218 7.9375 12.2785C7.9375 12.7351 8.30769 13.1053 8.76434 13.1053Z" fill="#A1B5C9"/>
<path d="M5.16668 9.50859C5.62333 9.50859 5.99352 9.1384 5.99352 8.68175C5.99352 8.22511 5.62333 7.85492 5.16668 7.85492C4.71003 7.85492 4.33984 8.22511 4.33984 8.68175C4.33984 9.1384 4.71003 9.50859 5.16668 9.50859Z" fill="#A1B5C9"/>
<path d="M5.16668 13.1053C5.62333 13.1053 5.99352 12.7351 5.99352 12.2785C5.99352 11.8218 5.62333 11.4517 5.16668 11.4517C4.71003 11.4517 4.33984 11.8218 4.33984 12.2785C4.33984 12.7351 4.71003 13.1053 5.16668 13.1053Z" fill="#A1B5C9"/>
<path d="M5.16668 16.7021C5.62333 16.7021 5.99352 16.3319 5.99352 15.8752C5.99352 15.4186 5.62333 15.0484 5.16668 15.0484C4.71003 15.0484 4.33984 15.4186 4.33984 15.8752C4.33984 16.3319 4.71003 16.7021 5.16668 16.7021Z" fill="#A1B5C9"/>
<path d="M8.76434 16.7021C9.22098 16.7021 9.59117 16.3319 9.59117 15.8752C9.59117 15.4186 9.22098 15.0484 8.76434 15.0484C8.30769 15.0484 7.9375 15.4186 7.9375 15.8752C7.9375 16.3319 8.30769 16.7021 8.76434 16.7021Z" fill="#A1B5C9"/>
<path d="M8.76434 9.50859C9.22098 9.50859 9.59117 9.1384 9.59117 8.68175C9.59117 8.22511 9.22098 7.85492 8.76434 7.85492C8.30769 7.85492 7.9375 8.22511 7.9375 8.68175C7.9375 9.1384 8.30769 9.50859 8.76434 9.50859Z" fill="#A1B5C9"/>
</svg>
