<svg width="12" height="14" viewBox="0 0 12 14" fill="none" xmlns="http://www.w3.org/2000/svg">
<path d="M1 4.13086H11" stroke="inherit" stroke-width="0.714286" stroke-linecap="round" stroke-linejoin="round"/>
<path d="M4.57227 6.27148V9.83867" stroke="inherit" stroke-width="0.714286" stroke-linecap="round" stroke-linejoin="round"/>
<path d="M7.42773 6.27148V9.83867" stroke="inherit" stroke-width="0.714286" stroke-linecap="round" stroke-linejoin="round"/>
<path d="M1.71484 4.13086L2.32709 11.4691C2.32709 11.7934 2.4561 12.1045 2.68573 12.3339C2.91537 12.5632 3.22682 12.6921 3.55158 12.6921H8.44954C8.77429 12.6921 9.08575 12.5632 9.31538 12.3339C9.54502 12.1045 9.67403 11.7934 9.67403 11.4691L10.2863 4.13086" stroke="inherit" stroke-width="0.714286" stroke-linecap="round" stroke-linejoin="round"/>
<path d="M3.85742 4.13109V1.99078C3.85742 1.80157 3.93268 1.6201 4.06663 1.4863C4.20059 1.35251 4.38227 1.27734 4.57171 1.27734H7.42885C7.61829 1.27734 7.79997 1.35251 7.93393 1.4863C8.06788 1.6201 8.14314 1.80157 8.14314 1.99078V4.13109" stroke="inherit" stroke-width="0.714286" stroke-linecap="round" stroke-linejoin="round"/>
</svg>
