<svg id="Group_2336" dataname="Group 2336" xmlns="http://www.w3.org/2000/svg" width="20.92" height="20.92" viewBox="0 0 20.92 20.92">
  <g id="newspaper">
    <g id="Group_393" dataname="Group 393">
      <path id="Path_154" dataname="Path 154" d="M20.173,5.23H16.437V.747A.747.747,0,0,0,15.69,0H.747A.747.747,0,0,0,0,.747V17.932A2.989,2.989,0,0,0,2.989,20.92H17.932a2.989,2.989,0,0,0,2.989-2.989V5.977A.747.747,0,0,0,20.173,5.23ZM5.977,3.736H10.46a.747.747,0,1,1,0,1.494H5.977a.747.747,0,0,1,0-1.494Zm6.724,14.2H3.736a.747.747,0,1,1,0-1.494H12.7a.747.747,0,0,1,0,1.494Zm0-2.989H3.736a.747.747,0,1,1,0-1.494H12.7a.747.747,0,0,1,0,1.494Zm0-2.989H3.736a.747.747,0,0,1,0-1.494H12.7a.747.747,0,0,1,0,1.494Zm0-2.989H3.736s-.747-.335-.747-.747a.747.747,0,0,1,.747-.747H12.7a.747.747,0,0,1,0,1.494Zm6.724,8.966a1.494,1.494,0,0,1-2.989,0V6.724h2.989V17.932Z" transform="translate(0 0)" />
    </g>
  </g>
</svg>
