<svg width="17" height="15" viewBox="0 0 17 15" fill="none" xmlns="http://www.w3.org/2000/svg">
<path d="M13.4128 11C14.099 11 14.757 10.7174 15.2422 10.2145C15.7274 9.71149 16 9.02932 16 8.31801C16 7.6067 15.7274 6.92452 15.2422 6.42155C14.757 5.91858 14.099 5.63602 13.4128 5.63602H12.6736C12.7815 5.1379 12.7831 4.62484 12.6785 4.12613C12.5738 3.62742 12.3649 3.15283 12.0636 2.72945C11.7624 2.30607 11.3747 1.9422 10.9227 1.65861C10.4707 1.37501 9.96331 1.17726 9.42942 1.07663C8.89552 0.975999 8.34561 0.974466 7.81108 1.07212C7.27655 1.16977 6.76787 1.36469 6.31408 1.64576C5.39762 2.2134 4.76038 3.09745 4.54255 4.10345C3.75454 4.07073 2.97956 4.31065 2.35031 4.78215C1.72106 5.25364 1.27667 5.92737 1.09324 6.68799C0.909812 7.44861 0.998743 8.2488 1.34481 8.95155C1.69088 9.65431 2.27255 10.2159 2.99025 10.5402" stroke="#246BFD" stroke-linecap="round" stroke-linejoin="round"/>
<path d="M8 7V14" stroke="#246BFD" stroke-linecap="round" stroke-linejoin="round"/>
<path d="M6 12L8 14L10 12" stroke="#246BFD" stroke-linecap="round" stroke-linejoin="round"/>
</svg>
