<svg width="10" height="10" viewBox="0 0 10 10" fill="none" xmlns="http://www.w3.org/2000/svg">
<path d="M2.66667 3.8335C2.299 3.8335 2 4.1325 2 4.50016C2 4.86783 2.299 5.16683 2.66667 5.16683C3.03433 5.16683 3.33333 4.86783 3.33333 4.50016C3.33333 4.1325 3.03433 3.8335 2.66667 3.8335ZM2.66667 4.8335C2.48283 4.8335 2.33333 4.684 2.33333 4.50016C2.33333 4.31633 2.48283 4.16683 2.66667 4.16683C2.8505 4.16683 3 4.31633 3 4.50016C3 4.684 2.8505 4.8335 2.66667 4.8335Z" fill="#022A54"/>
<path d="M5.00065 3.8335C4.63298 3.8335 4.33398 4.1325 4.33398 4.50016C4.33398 4.86783 4.63298 5.16683 5.00065 5.16683C5.36832 5.16683 5.66732 4.86783 5.66732 4.50016C5.66732 4.1325 5.36832 3.8335 5.00065 3.8335ZM5.00065 4.8335C4.81682 4.8335 4.66732 4.684 4.66732 4.50016C4.66732 4.31633 4.81682 4.16683 5.00065 4.16683C5.18448 4.16683 5.33398 4.31633 5.33398 4.50016C5.33398 4.684 5.18448 4.8335 5.00065 4.8335Z" fill="#022A54"/>
<path d="M7.33268 3.8335C6.96502 3.8335 6.66602 4.1325 6.66602 4.50016C6.66602 4.86783 6.96502 5.16683 7.33268 5.16683C7.70035 5.16683 7.99935 4.86783 7.99935 4.50016C7.99935 4.1325 7.70035 3.8335 7.33268 3.8335ZM7.33268 4.8335C7.14885 4.8335 6.99935 4.684 6.99935 4.50016C6.99935 4.31633 7.14885 4.16683 7.33268 4.16683C7.51652 4.16683 7.66602 4.31633 7.66602 4.50016C7.66602 4.684 7.51652 4.8335 7.33268 4.8335Z" fill="#022A54"/>
<path d="M5.00001 0C2.24301 0 1.34377e-05 2.01867 1.34377e-05 4.5C1.34377e-05 5.36733 0.274347 6.2075 0.79468 6.934C0.69618 8.0235 0.43218 8.83233 0.0488468 9.2155C-0.00181989 9.26617 -0.0144866 9.34367 0.0175134 9.40767C0.0458468 9.46483 0.10418 9.5 0.16668 9.5C0.174347 9.5 0.182013 9.4995 0.189847 9.49833C0.257347 9.48883 1.82535 9.26317 2.95951 8.6085C3.60351 8.86833 4.28951 9 5.00001 9C7.75701 9 10 6.98133 10 4.5C10 2.01867 7.75701 0 5.00001 0ZM5.00001 8.66667C4.41885 8.66667 3.85568 8.57183 3.32085 8.3865C4.00001 7.96217 4.00151 7.93217 4.00101 7.83383C4.00068 7.77567 3.96918 7.72017 3.91918 7.69033C3.84335 7.64483 3.74568 7.6665 3.69618 7.73867C3.60485 7.81117 3.21218 8.06283 2.86051 8.28H2.86035C2.11601 8.7295 1.11435 8.98033 0.55868 9.0935C0.92568 8.48183 1.07385 7.596 1.13201 6.90017C1.13535 6.86 1.12401 6.82 1.10018 6.78733C0.598513 6.10717 0.333347 5.316 0.333347 4.5C0.333347 2.2025 2.42685 0.333333 5.00001 0.333333C7.57318 0.333333 9.66668 2.2025 9.66668 4.5C9.66668 6.7975 7.57318 8.66667 5.00001 8.66667Z" fill="#022A54"/>
</svg>
