<svg width="20" height="16" viewBox="0 0 20 16" fill="none" xmlns="http://www.w3.org/2000/svg">
<path d="M10 11C11.6569 11 13 9.65685 13 8C13 6.34315 11.6569 5 10 5C8.34315 5 7 6.34315 7 8C7 9.65685 8.34315 11 10 11Z" stroke="#246BFD" stroke-width="0.86" stroke-linecap="round" stroke-linejoin="round"/>
<path d="M1 5H4V11H1V5Z" stroke="#246BFD" stroke-width="0.86" stroke-linecap="round" stroke-linejoin="round"/>
<path d="M16 5H19V11H16V5Z" stroke="#246BFD" stroke-width="0.86" stroke-linecap="round" stroke-linejoin="round"/>
<path d="M17 1H3C1.89543 1 1 1.89543 1 3V13C1 14.1046 1.89543 15 3 15H17C18.1046 15 19 14.1046 19 13V3C19 1.89543 18.1046 1 17 1Z" stroke="#246BFD" stroke-width="0.86" stroke-linecap="round" stroke-linejoin="round"/>
<path d="M10 1V15" stroke="#246BFD" stroke-width="0.86" stroke-linecap="round" stroke-linejoin="round"/>
</svg>
