<svg width="24" height="24" viewBox="0 0 24 24" fill="none" xmlns="http://www.w3.org/2000/svg">
<path d="M12 21C16.9706 21 21 16.9706 21 12C21 7.02944 16.9706 3 12 3C7.02944 3 3 7.02944 3 12C3 16.9706 7.02944 21 12 21Z" stroke="inherit" stroke-linecap="round" stroke-linejoin="round"/>
<path d="M11.9983 7L16.7583 10.45L14.9983 16H8.99828L7.23828 10.45L11.9983 7Z" stroke="inherit" stroke-linecap="round" stroke-linejoin="round"/>
<path d="M7.24 10.45L3.5 9M12 7V3V7ZM15 16L17.5 19L15 16ZM16.76 10.45L20.5 9L16.76 10.45ZM9.06 16.05L6.5 19L9.06 16.05Z" stroke="inherit" stroke-linecap="round" stroke-linejoin="round"/>
</svg>
