<svg width="18" height="17" viewBox="0 0 18 17" fill="none" xmlns="http://www.w3.org/2000/svg">
<path d="M6.71429 1H9.28571L11 2.84615H15.2857C15.7404 2.84615 16.1764 3.04066 16.4979 3.38688C16.8194 3.7331 17 4.20268 17 4.69231V11.1538C17 11.6435 16.8194 12.1131 16.4979 12.4593C16.1764 12.8055 15.7404 13 15.2857 13H6.71429C6.25963 13 5.82359 12.8055 5.5021 12.4593C5.18061 12.1131 5 11.6435 5 11.1538V2.84615C5 2.35652 5.18061 1.88695 5.5021 1.54073C5.82359 1.1945 6.25963 1 6.71429 1Z" stroke="inherit" stroke-linecap="round" stroke-linejoin="round"/>
<path d="M13 13V14.3077C13 14.7565 12.8194 15.187 12.4979 15.5043C12.1764 15.8217 11.7404 16 11.2857 16H2.71429C2.25963 16 1.82359 15.8217 1.5021 15.5043C1.18061 15.187 1 14.7565 1 14.3077V6.69231C1 6.24348 1.18061 5.81304 1.5021 5.49567C1.82359 5.1783 2.25963 5 2.71429 5H4.42857" stroke="inherit" stroke-linecap="round" stroke-linejoin="round"/>
</svg>
