<svg id="football-ball" xmlns="http://www.w3.org/2000/svg" width="41.622" height="41.669" viewBox="0 0 41.622 41.669">
  <path id="Path_96" dataname="Path 96" d="M189.306,197.528l-2.15,6.617,5.628,4.089,5.628-4.089-2.15-6.617Z" transform="translate(-171.975 -181.478)" fill="#6b2262"/>
  <path id="Path_97" dataname="Path 97" d="M457.213,290.249a20.779,20.779,0,0,0,2.788-8.52l-4.489,3.246Z" transform="translate(-418.463 -258.822)" fill="#6b2262"/>
  <path id="Path_98" dataname="Path 98" d="M325.682,121.708,328,128.835l6.679,2.2,6.23-4.505a20.8,20.8,0,0,0-3.371-10.484l-7.7-.013Z" transform="translate(-299.286 -106.62)" fill="#6b2262"/>
  <path id="Path_99" dataname="Path 99" d="M71.482,304.916l-6.062-4.4-6.689,2.167-2.379,7.306a21.363,21.363,0,0,0,1.522,1.7,20.925,20.925,0,0,0,7.386,4.789l6.223-4.521Z" transform="translate(-51.752 -276.157)" fill="#6b2262"/>
  <path id="Path_100" dataname="Path 100" d="M72.078,21.22a20.971,20.971,0,0,0-6.444,4.405q-.429.429-.828.878l5.546.006Z" transform="translate(-59.512 -19.479)" fill="#6b2262"/>
  <path id="Path_101" dataname="Path 101" d="M1.21,281a20.781,20.781,0,0,0,2.764,8.528l1.716-5.269Z" transform="translate(-1.134 -258.157)" fill="#6b2262"/>
  <path id="Path_102" dataname="Path 102" d="M164.027,13.746h7.491l4.153-5.676L173.3.733a21.216,21.216,0,0,0-11-.015l-2.393,7.331Z" transform="translate(-146.961 0)" fill="#6b2262"/>
  <path id="Path_103" dataname="Path 103" d="M13.2,128.416l2.315-7.125-4.121-5.7-7.7-.009a20.8,20.8,0,0,0-3.4,10.474l6.22,4.524Z" transform="translate(-0.289 -106.208)" fill="#6b2262"/>
  <path id="Path_104" dataname="Path 104" d="M276.81,300.563l-6.057,4.4v7.032l6.222,4.521a20.926,20.926,0,0,0,7.386-4.789,21.333,21.333,0,0,0,1.484-1.648l-2.358-7.315Z" transform="translate(-248.864 -276.205)" fill="#6b2262"/>
  <path id="Path_105" dataname="Path 105" d="M365.989,26.809q-.419-.472-.867-.922a20.975,20.975,0,0,0-6.39-4.382l1.711,5.3Z" transform="translate(-329.624 -19.741)" fill="#6b2262"/>
  <path id="Path_106" dataname="Path 106" d="M201.189,469.328a21.246,21.246,0,0,0,8.954,0l-4.477-3.253Z" transform="translate(-184.856 -428.136)" fill="#6b2262"/>
</svg>
