<svg width="14" height="12" viewBox="0 0 14 12" fill="none" xmlns="http://www.w3.org/2000/svg">
<path d="M8.51676 6.49365C8.37301 6.49365 8.25635 6.61032 8.25635 6.75407C8.25635 6.89782 8.37301 7.01449 8.51676 7.01449C8.66077 7.01449 8.77718 6.89782 8.77718 6.75407C8.77718 6.61032 8.66077 6.49365 8.51676 6.49365Z" fill="white"/>
<path d="M7.47526 5.7124C7.33151 5.7124 7.21484 5.82907 7.21484 5.97282C7.21484 6.11657 7.33151 6.23323 7.47526 6.23323C7.61927 6.23323 7.73568 6.11657 7.73568 5.97282C7.73568 5.82907 7.61927 5.7124 7.47526 5.7124Z" fill="white"/>
<path d="M6.43327 4.93115C6.28952 4.93115 6.17285 5.04782 6.17285 5.19157C6.17285 5.33532 6.28952 5.45199 6.43327 5.45199C6.57728 5.45199 6.69369 5.33532 6.69369 5.19157C6.69369 5.04782 6.57728 4.93115 6.43327 4.93115Z" fill="white"/>
<path d="M2.05225 10.3996C2.05225 10.5433 2.16891 10.66 2.31266 10.66C2.45641 10.66 2.57308 10.5433 2.57308 10.3996C2.57308 10.2558 2.45641 10.1392 2.31266 10.1392C2.16891 10.1392 2.05225 10.2558 2.05225 10.3996Z" fill="white"/>
<path d="M12.7655 5.88349C12.1691 5.36886 11.3953 5.13735 10.6428 5.24873C9.90617 5.35722 9.3993 5.10654 8.93373 4.54779C8.37724 3.87943 7.94899 2.85479 7.3274 1.92211C7.27912 1.84964 7.19779 1.8061 7.1107 1.8061H6.38466C5.54474 1.8061 5.23623 1.50128 4.62159 0.89404C4.52115 0.794769 4.35992 0.793675 4.25815 0.891461C1.25058 3.78016 1.2149 3.8137 1.20248 3.82792C0.890992 4.18615 0.968466 4.73727 1.36633 4.99586C7.22 9.48188 6.95787 9.28138 6.96787 9.28847C7.27641 9.50446 7.63828 9.61862 8.01438 9.61862H12.8857C13.3165 9.61862 13.667 9.26815 13.667 8.83737C13.667 8.47305 13.667 8.16003 13.667 7.79571C13.667 7.07492 13.3384 6.378 12.7655 5.88349ZM4.43649 1.44237C4.99086 1.98141 5.43193 2.32693 6.38469 2.32693H6.96998C7.0662 2.47641 7.15636 2.62586 7.23802 2.76563C6.26787 2.96826 5.66349 2.77381 4.83547 2.31711C4.74128 2.26519 4.62492 2.27644 4.54253 2.3455C4.21807 2.61719 3.75388 2.66644 3.37667 2.46034L4.43649 1.44237ZM13.1461 8.83735C13.1461 8.98094 13.0293 9.09776 12.8857 9.09776H8.01435C7.74748 9.09776 7.49052 9.01722 7.27097 8.86485L1.67433 4.57571C1.66779 4.57073 1.66102 4.56602 1.65406 4.56167C1.52016 4.47784 1.49177 4.29753 1.58925 4.17716L1.74344 4.02904C5.91857 7.22625 7.51242 8.4481 7.52896 8.45847C7.65302 8.53599 7.79602 8.57696 7.94248 8.57696H13.1461V8.83735ZM13.1461 8.0561H7.94248C7.89716 8.0561 7.85287 8.04435 7.81375 8.02201L2.12344 3.66401L2.98914 2.83253C3.52026 3.19938 4.21058 3.19391 4.73123 2.85292C5.34482 3.17821 5.87597 3.36891 6.51813 3.36888C6.81706 3.36888 7.14024 3.32737 7.50672 3.23907C7.5682 3.34974 7.62464 3.45206 7.68912 3.56805L6.98594 4.27123C6.88425 4.37292 6.88425 4.53782 6.98594 4.63953C7.08768 4.74123 7.2525 4.7412 7.35425 4.63953L7.95654 4.03724C8.08979 4.26261 8.23198 4.4867 8.38625 4.69367L8.02758 5.05255C7.92591 5.15427 7.92597 5.31917 8.02768 5.42086C8.12943 5.52253 8.29425 5.52248 8.39599 5.42076L8.7244 5.09216C8.92065 5.2919 9.12557 5.44742 9.3424 5.56065L9.0693 5.83375C8.96761 5.93545 8.96761 6.10034 9.0693 6.20206C9.17104 6.30375 9.33586 6.30373 9.43761 6.20206L9.88719 5.75248C10.1454 5.80344 10.4244 5.80753 10.7189 5.76406C11.3217 5.67498 11.9436 5.86224 12.4252 6.27789C12.8833 6.67326 13.1461 7.22649 13.1461 7.79568V8.0561Z" fill="white"/>
<path d="M0.333496 9.35807C0.333496 9.50187 0.450111 9.61849 0.593913 9.61849H5.9585C6.1023 9.61849 6.21891 9.50187 6.21891 9.35807C6.21891 9.21427 6.1023 9.09766 5.9585 9.09766H0.593913C0.450111 9.09766 0.333496 9.21427 0.333496 9.35807Z" fill="white"/>
<path d="M5.95833 10.1392H3.35417C3.21036 10.1392 3.09375 10.2558 3.09375 10.3996C3.09375 10.5434 3.21036 10.66 3.35417 10.66H5.95833C6.10214 10.66 6.21875 10.5434 6.21875 10.3996C6.21875 10.2558 6.10214 10.1392 5.95833 10.1392Z" fill="white"/>
<path d="M9.60433 11.181C9.74813 11.181 9.86475 11.0644 9.86475 10.9206C9.86475 10.7768 9.74813 10.6602 9.60433 10.6602H7.00016C6.85636 10.6602 6.73975 10.7768 6.73975 10.9206C6.73975 11.0644 6.85636 11.181 7.00016 11.181H9.60433Z" fill="white"/>
<path d="M13.4066 10.1392H10.6462C10.5024 10.1392 10.3857 10.2558 10.3857 10.3996C10.3857 10.5434 10.5024 10.66 10.6462 10.66H13.4066C13.5504 10.66 13.667 10.5434 13.667 10.3996C13.667 10.2558 13.5504 10.1392 13.4066 10.1392Z" fill="white"/>
</svg>
