<svg width="12" height="12" viewBox="0 0 12 12" fill="none" xmlns="http://www.w3.org/2000/svg">
<path d="M3.7128 0.582575C3.00747 0.868545 2.37457 1.28901 1.83186 1.83157C1.289 2.37429 0.869006 3.00735 0.582883 3.71253C0.306659 4.39383 0.166504 5.11379 0.166504 5.85228C0.166504 6.59062 0.306659 7.31057 0.582883 7.99156C0.869006 8.6969 1.28916 9.32996 1.83186 9.87252C2.37457 10.4154 3.00731 10.8355 3.7128 11.1215C4.39409 11.3981 5.11387 11.5377 5.85236 11.5377C6.59084 11.5377 7.31047 11.3976 7.99176 11.1215C8.69694 10.8355 9.33015 10.4154 9.8727 9.87252C10.4156 9.32996 10.8357 8.69721 11.1217 7.99156C11.3979 7.31057 11.5377 6.59062 11.5377 5.85228C11.5377 5.11379 11.3977 4.39383 11.1217 3.71253C10.8357 3.00735 10.4152 2.37413 9.8727 1.83157C9.33015 1.28901 8.69756 0.868545 7.99176 0.582575C7.31047 0.306504 6.59084 0.166504 5.85236 0.166504C5.11387 0.166504 4.39409 0.306504 3.7128 0.582575ZM1.58754 8.24579C1.31367 8.07389 1.06133 7.87591 0.837896 7.64274C0.496622 6.68238 0.4388 5.64267 0.664902 4.65576C0.771275 4.446 0.892261 4.24456 1.02912 4.05161C1.07138 3.99206 1.11051 3.93 1.15576 3.87217L2.43883 4.63141C2.43883 4.64146 2.43883 4.65246 2.43883 4.66362C2.43553 5.35372 2.50561 6.03879 2.64514 6.71396C2.64561 6.7171 2.64608 6.71883 2.64671 6.72166L1.65164 8.28192C1.62996 8.27093 1.60843 8.25898 1.58754 8.24579ZM5.40251 10.8835C5.6239 10.9964 5.85157 11.0918 6.08553 11.1694C5.09172 11.2126 4.08801 10.9798 3.20073 10.4707L5.3516 10.8539C5.3681 10.8645 5.38491 10.8745 5.40251 10.8835ZM5.39465 10.4952L2.85647 10.0428C2.55951 9.68224 2.29239 9.30073 2.06284 8.89299C2.00439 8.78929 1.93918 8.68857 1.88969 8.58031L2.88381 7.02161C2.90581 7.02711 2.93032 7.03293 2.95813 7.04031C3.58003 7.20671 4.21292 7.32503 4.85022 7.41773C4.88746 7.42291 4.91857 7.42747 4.94512 7.4303L6.13675 9.4907C5.92998 9.78138 5.72085 10.0705 5.50716 10.3565C5.47165 10.4041 5.43394 10.4498 5.39465 10.4952ZM9.61753 9.6175C9.41546 9.81972 9.20099 10.002 8.97646 10.1645C8.93922 9.86686 8.87496 9.57523 8.7843 9.29036L10.0557 6.91838C10.406 6.7589 10.7438 6.57805 11.0574 6.35383C11.0984 6.32476 11.1325 6.29223 11.1589 6.25672C11.0668 7.48247 10.553 8.68213 9.61753 9.6175ZM9.56112 6.54128C9.60841 6.63147 9.65508 6.7226 9.7019 6.81499L8.47382 9.1059C8.46675 9.10747 8.45999 9.10904 8.45292 9.10998C7.78907 9.23395 7.11988 9.29995 6.44503 9.30309L5.21946 7.18393C5.41021 6.82976 5.59923 6.47419 5.78668 6.11845C5.91395 5.87711 6.03902 5.63419 6.16394 5.39143L8.70039 5.13091C9.01103 5.58658 9.30532 6.05199 9.56112 6.54128ZM9.04654 3.82394C8.92618 4.1418 8.79734 4.45637 8.66928 4.77156L6.19835 5.02532C6.16881 4.98636 6.13817 4.94802 6.10596 4.91141C5.81418 4.58097 5.52051 4.25258 5.22732 3.92324C5.22999 3.91994 5.23266 3.91743 5.23533 3.91444C5.11702 3.79628 4.99839 3.67812 4.88007 3.55965L5.56796 1.48857C5.61541 1.476 5.66318 1.46547 5.71142 1.46028C6.08537 1.42226 6.4598 1.37921 6.8347 1.35752C7.06426 1.34464 7.29507 1.33725 7.52856 1.35375L9.23053 3.27211C9.17192 3.4572 9.11473 3.64277 9.04654 3.82394ZM9.61753 2.08675C10.087 2.55655 10.4506 3.09267 10.7077 3.66539C10.3896 3.44652 10.0496 3.26645 9.69216 3.11969C9.63654 3.09675 9.5795 3.07648 9.52152 3.05653L7.84626 1.16834C7.85789 1.08679 7.86402 1.00509 7.86653 0.922753C8.50383 1.18217 9.10122 1.57059 9.61753 2.08675ZM4.14709 0.823607C4.15369 0.828477 4.15683 0.832563 4.1606 0.833663C4.54351 0.965963 4.89186 1.1608 5.22025 1.39193L4.57761 3.32726C4.57431 3.3282 4.57117 3.32914 4.56802 3.33056C4.43651 3.38492 4.30248 3.43363 4.17301 3.49256C3.63958 3.735 3.1195 4.00353 2.62958 4.32548L1.36143 3.5752C1.36332 3.53561 1.37008 3.49538 1.38359 3.45956C1.46875 3.23267 1.5525 3.00452 1.64881 2.78219C1.72298 2.61092 1.80751 2.44547 1.89974 2.28378C1.96008 2.21716 2.02261 2.15117 2.08703 2.08675C2.68929 1.48464 3.40106 1.0571 4.15887 0.80428C4.15495 0.810408 4.15086 0.81685 4.14709 0.823607Z" fill="inherit"/>
</svg>
