<svg width="30" height="30" viewBox="0 0 30 30" fill="none" xmlns="http://www.w3.org/2000/svg">
<path d="M15 30C23.2843 30 30 23.2843 30 15C30 6.71573 23.2843 0 15 0C6.71573 0 0 6.71573 0 15C0 23.2843 6.71573 30 15 30Z" fill="#FFCA28"/>
<path d="M9.375 13.125C10.4105 13.125 11.25 12.2855 11.25 11.25C11.25 10.2145 10.4105 9.375 9.375 9.375C8.33947 9.375 7.5 10.2145 7.5 11.25C7.5 12.2855 8.33947 13.125 9.375 13.125Z" fill="#6D4C41"/>
<path d="M20.625 13.125C21.6605 13.125 22.5 12.2855 22.5 11.25C22.5 10.2145 21.6605 9.375 20.625 9.375C19.5895 9.375 18.75 10.2145 18.75 11.25C18.75 12.2855 19.5895 13.125 20.625 13.125Z" fill="#6D4C41"/>
<path d="M14.9999 24.375C12.4949 24.375 10.1418 23.3982 8.36992 21.6282C8.0043 21.2625 8.0043 20.6682 8.36992 20.3025C8.73555 19.9369 9.32992 19.9369 9.69555 20.3025C12.5287 23.1375 17.4674 23.1375 20.3024 20.3025C20.668 19.9369 21.2624 19.9369 21.628 20.3025C21.9937 20.6682 21.9937 21.2625 21.628 21.6282C19.858 23.3982 17.5049 24.375 14.9999 24.375Z" fill="#6D4C41"/>
</svg>
