<svg width="10" height="14" viewBox="0 0 10 14" fill="none" xmlns="http://www.w3.org/2000/svg">
<path d="M2.4842 0.676758H0.225841C0.100953 0.676758 0 0.777933 0 0.902598V13.0978C0 13.2225 0.100953 13.3236 0.225841 13.3236H2.48422C2.60911 13.3236 2.71006 13.2225 2.71006 13.0978V0.902598C2.71004 0.777933 2.60908 0.676758 2.4842 0.676758ZM2.25836 2.03178H1.80667V2.48346H2.25836V3.38679H1.35502V3.83848H2.25836V4.74181H1.80667V5.19349H2.25836V6.09683H1.35502V6.54851H2.25836V7.45185H1.80667V7.90353H2.25836V8.80687H1.35502V9.25855H2.25836V10.1619H1.80667V10.6136H2.25836V11.5169H1.35502V11.9686H2.25836V12.8719H0.451656V1.12844H2.25836V2.03178Z" fill="white"/>
<path d="M3.6133 1.12842H3.16162V1.5801H3.6133V1.12842Z" fill="white"/>
<path d="M4.51662 1.12842H4.06494V1.5801H4.51662V1.12842Z" fill="white"/>
<path d="M5.41994 1.12842H4.96826V1.5801H5.41994V1.12842Z" fill="white"/>
<path d="M3.88869 12.8721H3.43701V13.3238H3.88869V12.8721Z" fill="white"/>
<path d="M4.79201 12.8721H4.34033V13.3238H4.79201V12.8721Z" fill="white"/>
<path d="M5.69533 12.8721H5.24365V13.3238H5.69533V12.8721Z" fill="white"/>
<path d="M7.77881 3.07324L7.77881 12.7318" stroke="white" stroke-linecap="round" stroke-linejoin="round"/>
<path d="M6.69531 11.748L7.86198 13.0001L9.02865 11.748" stroke="white" stroke-linecap="round" stroke-linejoin="round"/>
<path d="M9.02865 3.25203L7.86198 2L6.69531 3.25203" stroke="white" stroke-linecap="round" stroke-linejoin="round"/>
</svg>
