<svg xmlns="http://www.w3.org/2000/svg" width="17" height="16.158" viewBox="0 0 17 16.158">
  <g id="home" transform="translate(0 -12.676)">
    <g id="Group_703" dataname="Group 703" transform="translate(0 12.675)">
      <g id="Group_702" dataname="Group 702" transform="translate(0 0)">
        <path id="Path_183" dataname="Path 183" d="M16.714,19.854,9.087,12.9a.868.868,0,0,0-1.174,0L.285,19.854A.872.872,0,0,0,.873,21.37H2.091v6.963a.5.5,0,0,0,.5.5H6.772a.5.5,0,0,0,.5-.5V24.106H9.729v4.228a.5.5,0,0,0,.5.5h4.181a.5.5,0,0,0,.5-.5V21.37h1.218a.872.872,0,0,0,.587-1.516Z" transform="translate(0 -12.675)" />
      </g>
    </g>
    <g id="Group_705" dataname="Group 705" transform="translate(11.421 13.673)">
      <g id="Group_704" dataname="Group 704" transform="translate(0 0)">
        <path id="Path_184" dataname="Path 184" d="M347.33,42.73h-3.357l3.857,3.507V43.23A.5.5,0,0,0,347.33,42.73Z" transform="translate(-343.973 -42.73)"/>
      </g>
    </g>
  </g>
</svg>
