<svg xmlns="http://www.w3.org/2000/svg" width="25.312" height="25.312" viewBox="0 0 25.312 25.312">
  <g id="Group_393" dataname="Group 393" transform="translate(0 0)">
    <path id="Path_154" dataname="Path 154" d="M24.408,6.328h-4.52V.9a.9.9,0,0,0-.9-.9H.9A.9.9,0,0,0,0,.9V21.7a3.616,3.616,0,0,0,3.616,3.616H21.7A3.616,3.616,0,0,0,25.312,21.7V7.232A.9.9,0,0,0,24.408,6.328ZM7.232,4.52h5.424a.9.9,0,1,1,0,1.808H7.232a.9.9,0,1,1,0-1.808ZM15.368,21.7H4.52a.9.9,0,1,1,0-1.808H15.368a.9.9,0,0,1,0,1.808Zm0-3.616H4.52a.9.9,0,1,1,0-1.808H15.368a.9.9,0,0,1,0,1.808Zm0-3.616H4.52a.9.9,0,0,1,0-1.808H15.368a.9.9,0,0,1,0,1.808Zm0-3.616H4.52a.9.9,0,0,1,0-1.808H15.368a.9.9,0,0,1,0,1.808ZM23.5,21.7a1.808,1.808,0,1,1-3.616,0V8.136H23.5V21.7Z" />
  </g>
</svg>
