<svg width="13" height="12" viewBox="0 0 13 12" fill="none" xmlns="http://www.w3.org/2000/svg">
<path d="M6.85019 1.08108C8.47221 1.08108 8.66435 1.0872 9.30491 1.11606C9.8972 1.14274 10.2189 1.24048 10.4329 1.32265C10.7165 1.43149 10.9188 1.56151 11.1314 1.77146C11.344 1.98143 11.4756 2.1813 11.5858 2.46136C11.669 2.67279 11.768 2.99048 11.795 3.57547C11.8242 4.20815 11.8304 4.39792 11.8304 5.99997C11.8304 7.60204 11.8242 7.79181 11.795 8.42449C11.768 9.00948 11.669 9.32717 11.5858 9.53859C11.4756 9.81866 11.344 10.0185 11.1314 10.2285C10.9188 10.4384 10.7165 10.5685 10.4329 10.6773C10.2189 10.7595 9.8972 10.8572 9.30491 10.8839C8.66444 10.9128 8.47233 10.9189 6.85019 10.9189C5.22802 10.9189 5.03593 10.9128 4.39544 10.8839C3.80316 10.8572 3.4815 10.7595 3.26744 10.6773C2.98389 10.5685 2.78152 10.4384 2.56896 10.2285C2.35639 10.0185 2.22473 9.81866 2.11453 9.53859C2.03134 9.32717 1.93238 9.00948 1.90537 8.42449C1.87614 7.79181 1.86994 7.60204 1.86994 5.99997C1.86994 4.39792 1.87614 4.20815 1.90537 3.57547C1.93238 2.99048 2.03134 2.67279 2.11453 2.46136C2.22473 2.1813 2.35637 1.98143 2.56896 1.77148C2.78152 1.56151 2.98389 1.43149 3.26744 1.32265C3.4815 1.24048 3.80316 1.14274 4.39544 1.11606C5.036 1.0872 5.22814 1.08108 6.85019 1.08108ZM6.85019 0C5.20036 0 4.99349 0.00690692 4.34555 0.0361065C3.69896 0.0652346 3.25736 0.166671 2.87096 0.314979C2.47149 0.468313 2.13271 0.673472 1.79497 1.00703C1.45726 1.34061 1.24954 1.67521 1.09432 2.06976C0.94414 2.45141 0.841439 2.88757 0.811947 3.5262C0.782384 4.16616 0.775391 4.37048 0.775391 5.99997C0.775391 7.62948 0.782384 7.8338 0.811947 8.47376C0.841439 9.11239 0.94414 9.54855 1.09432 9.93019C1.24954 10.3247 1.45726 10.6593 1.79497 10.9929C2.13271 11.3265 2.47149 11.5316 2.87096 11.685C3.25736 11.8333 3.69896 11.9347 4.34555 11.9639C4.99349 11.9931 5.20036 12 6.85019 12C8.49999 12 8.70686 11.9931 9.3548 11.9639C10.0014 11.9347 10.443 11.8333 10.8294 11.685C11.2289 11.5316 11.5676 11.3265 11.9054 10.9929C12.2431 10.6593 12.4508 10.3247 12.6061 9.93019C12.7562 9.54855 12.8589 9.11239 12.8884 8.47376C12.918 7.8338 12.925 7.62948 12.925 5.99997C12.925 4.37048 12.918 4.16616 12.8884 3.5262C12.8589 2.88757 12.7562 2.45141 12.6061 2.06976C12.4508 1.67521 12.2431 1.34061 11.9054 1.00703C11.5676 0.673472 11.2289 0.468313 10.8294 0.314979C10.443 0.166671 10.0014 0.0652346 9.3548 0.0361065C8.70686 0.00690692 8.49999 0 6.85019 0Z" fill="white"/>
<path d="M6.85387 2.92236C5.131 2.92236 3.73438 4.30179 3.73438 6.00342C3.73438 7.70507 5.131 9.0845 6.85387 9.0845C8.57671 9.0845 9.97334 7.70507 9.97334 6.00342C9.97334 4.30179 8.57671 2.92236 6.85387 2.92236ZM6.85387 8.00343C5.73552 8.00343 4.82893 7.108 4.82893 6.00342C4.82893 4.89886 5.73552 4.00344 6.85387 4.00344C7.9722 4.00344 8.87879 4.89886 8.87879 6.00342C8.87879 7.108 7.9722 8.00343 6.85387 8.00343Z" fill="white"/>
<path d="M10.8251 2.79863C10.8251 3.19625 10.4988 3.51861 10.0962 3.51861C9.69357 3.51861 9.36719 3.19625 9.36719 2.79863C9.36719 2.40098 9.69357 2.07861 10.0962 2.07861C10.4988 2.07861 10.8251 2.40098 10.8251 2.79863Z" fill="white"/>
</svg>
