<svg xmlns="http://www.w3.org/2000/svg" width="34.96" height="35" viewBox="0 0 34.96 35">
  <g id="football-ball" transform="translate(-0.289)">
    <path id="Path_96" dataname="Path 96" d="M188.962,197.528l-1.806,5.558,4.728,3.435,4.728-3.435-1.806-5.558Z" transform="translate(-174.115 -184.046)" />
    <path id="Path_97" dataname="Path 97" d="M456.94,288.886a17.454,17.454,0,0,0,2.342-7.157l-3.771,2.726Z" transform="translate(-424.104 -262.488)" />
    <path id="Path_98" dataname="Path 98" d="M325.682,120.8l1.945,5.987,5.61,1.848,5.233-3.784a17.475,17.475,0,0,0-2.832-8.806l-6.471-.011Z" transform="translate(-303.221 -108.127)" />
    <path id="Path_99" dataname="Path 99" d="M69.061,304.211l-5.092-3.7-5.619,1.82-2,6.137a17.922,17.922,0,0,0,1.278,1.424,17.579,17.579,0,0,0,6.2,4.023l5.227-3.8Z" transform="translate(-52.199 -280.054)" />
    <path id="Path_100" dataname="Path 100" d="M70.914,21.22a17.615,17.615,0,0,0-5.413,3.7q-.36.36-.7.737l4.658.005Z" transform="translate(-60.071 -19.758)" />
    <path id="Path_101" dataname="Path 101" d="M1.21,281.005a17.455,17.455,0,0,0,2.322,7.163l1.441-4.426Z" transform="translate(-0.858 -261.814)" />
    <path id="Path_102" dataname="Path 102" d="M163.367,11.546h6.292l3.488-4.768L171.156.616A17.821,17.821,0,0,0,161.916.6l-2.01,6.158Z" transform="translate(-148.744 0)" />
    <path id="Path_103" dataname="Path 103" d="M11.132,126.363l1.945-5.985-3.462-4.786-6.469-.007a17.473,17.473,0,0,0-2.857,8.8l5.224,3.8Z" transform="translate(0 -107.708)" />
    <path id="Path_104" dataname="Path 104" d="M275.84,300.563l-5.087,3.7v5.906l5.227,3.8a17.579,17.579,0,0,0,6.2-4.023,17.924,17.924,0,0,0,1.247-1.385l-1.981-6.144Z" transform="translate(-252.078 -280.103)" />
    <path id="Path_105" dataname="Path 105" d="M364.828,25.961q-.352-.4-.729-.775a17.618,17.618,0,0,0-5.367-3.681l1.438,4.448Z" transform="translate(-333.993 -20.023)" />
    <path id="Path_106" dataname="Path 106" d="M201.189,468.807a17.844,17.844,0,0,0,7.521,0l-3.76-2.732Z" transform="translate(-187.181 -434.208)" />
  </g>
</svg>
