<svg width="14" height="14" viewBox="0 0 14 14" fill="none" xmlns="http://www.w3.org/2000/svg">
<path d="M5.50684 8.4937C5.75017 8.74205 6.04062 8.93936 6.36117 9.07405C6.68172 9.20875 7.02593 9.27813 7.37363 9.27813C7.72133 9.27813 8.06553 9.20875 8.38608 9.07405C8.70663 8.93936 8.99708 8.74205 9.24042 8.4937L12.2273 5.50683C12.7224 5.01173 13.0005 4.34022 13.0005 3.64004C13.0005 2.93986 12.7224 2.26835 12.2273 1.77325C11.7322 1.27815 11.0607 1 10.3605 1C9.66031 1 8.9888 1.27815 8.4937 1.77325L8.12034 2.14661" stroke="#246BFD" stroke-width="0.857139" stroke-linecap="round" stroke-linejoin="round"/>
<path d="M8.4937 5.50611C8.25036 5.25776 7.95991 5.06045 7.63936 4.92576C7.31881 4.79106 6.9746 4.72168 6.6269 4.72168C6.27921 4.72168 5.935 4.79106 5.61445 4.92576C5.2939 5.06045 5.00345 5.25776 4.76011 5.50611L1.77325 8.49298C1.27815 8.98808 1 9.65959 1 10.3598C1 11.06 1.27815 11.7315 1.77325 12.2266C2.26835 12.7217 2.93986 12.9998 3.64004 12.9998C4.34022 12.9998 5.01173 12.7217 5.50683 12.2266L5.88019 11.8532" stroke="#246BFD" stroke-width="0.857139" stroke-linecap="round" stroke-linejoin="round"/>
</svg>
