<svg width="12" height="11" viewBox="0 0 12 11" fill="none" xmlns="http://www.w3.org/2000/svg">
<path fill-rule="evenodd" clip-rule="evenodd" d="M2.97182 1.14194C2.97182 1.76449 2.49189 2.2683 1.74137 2.2683C1.02009 2.2683 0.54017 1.76449 0.555023 1.14194C0.54017 0.489141 1.02008 0 1.75575 0C2.49188 0 2.95743 0.489141 2.97182 1.14194ZM0.615364 10.4095V3.15811H2.89709V10.4091H0.615364V10.4095Z" fill="white"/>
<path fill-rule="evenodd" clip-rule="evenodd" d="M4.72636 5.47255C4.72636 4.56807 4.69618 3.797 4.66602 3.15932H6.6479L6.75326 4.15274H6.79829C7.09859 3.69294 7.84911 2.99658 9.06517 2.99658C10.5662 2.99658 11.6922 3.97533 11.6922 6.10977V10.4107H9.41048V6.39216C9.41048 5.45742 9.08048 4.82021 8.25477 4.82021C7.624 4.82021 7.24898 5.25021 7.09906 5.66509C7.03872 5.81362 7.00901 6.02083 7.00901 6.22896V10.4107H4.72728V5.47255H4.72636Z" fill="white"/>
</svg>
