<svg width="193" height="57" viewBox="0 0 193 57" fill="none" xmlns="http://www.w3.org/2000/svg">
<path d="M76.6147 33.5761L76.6065 35.0053H69.2582V23.1484H76.6065V24.5767H71.025V28.3334H75.5167V29.7122H71.025V33.5761H76.6147Z" fill="#022A54"/>
<path d="M87.7922 33.5267V35.0053H81.0052V23.1484H82.7639V33.5267H87.7922Z" fill="#022A54"/>
<path d="M98.4332 33.5761L98.4249 35.0053H91.0765V23.1484H98.4249V24.5767H92.8435V28.3334H97.335V29.7122H92.8435V33.5761H98.4332Z" fill="#022A54"/>
<path d="M111.53 23.1484L106.708 35.0053H105.131L100.309 23.1484H101.713C101.867 23.1484 101.992 23.1868 102.088 23.264C102.184 23.341 102.258 23.4401 102.307 23.5611L105.511 31.6195C105.588 31.8176 105.663 32.035 105.738 32.2719C105.812 32.5088 105.879 32.7561 105.94 33.0151C105.995 32.7561 106.055 32.5088 106.122 32.2719C106.188 32.035 106.259 31.8176 106.336 31.6195L109.531 23.5611C109.57 23.4511 109.64 23.3547 109.742 23.2722C109.844 23.1895 109.969 23.1484 110.118 23.1484H111.53Z" fill="#022A54"/>
<path d="M122.771 33.5761L122.762 35.0053H115.414V23.1484H122.762V24.5767H117.181V28.3334H121.672V29.7122H117.181V33.5761H122.771Z" fill="#022A54"/>
<path d="M136.031 23.1484V35.0053H135.139C135.001 35.0053 134.888 34.9806 134.797 34.9298C134.706 34.8804 134.613 34.801 134.519 34.6916L127.824 26.0298C127.834 26.1784 127.845 26.3244 127.852 26.4675C127.862 26.6107 127.866 26.7454 127.866 26.872V35.0053H126.322V23.1484H127.229C127.384 23.1484 127.498 23.1662 127.577 23.202C127.653 23.2378 127.738 23.319 127.832 23.4455L134.544 32.1144C134.529 31.9556 134.516 31.7994 134.508 31.6484C134.5 31.4972 134.495 31.3553 134.495 31.2232V23.1484H136.031Z" fill="#022A54"/>
<path d="M147.182 25.365C147.105 25.4918 147.026 25.5838 146.946 25.6416C146.867 25.6994 146.763 25.7283 146.636 25.7283C146.515 25.7283 146.385 25.6858 146.245 25.6004C146.104 25.5151 145.94 25.4228 145.754 25.3238C145.566 25.2247 145.352 25.1326 145.11 25.0472C144.867 24.9618 144.584 24.9191 144.258 24.9191C143.686 24.9191 143.257 25.0472 142.971 25.3032C142.685 25.5591 142.541 25.8935 142.541 26.3062C142.541 26.5705 142.62 26.7893 142.777 26.9627C142.933 27.1362 143.14 27.2861 143.395 27.4126C143.652 27.5394 143.942 27.6521 144.267 27.7512C144.591 27.8502 144.925 27.9591 145.266 28.0774C145.607 28.1958 145.94 28.3348 146.265 28.4943C146.589 28.654 146.88 28.855 147.136 29.0971C147.393 29.3393 147.598 29.6352 147.756 29.9847C147.912 30.3343 147.99 30.7595 147.99 31.2602C147.99 31.8056 147.896 32.3159 147.706 32.7923C147.516 33.2687 147.242 33.6839 146.884 34.0392C146.527 34.3933 146.084 34.6731 145.559 34.8762C145.034 35.0805 144.438 35.1821 143.771 35.1821C143.391 35.1821 143.013 35.143 142.636 35.0662C142.259 34.9894 141.896 34.8827 141.547 34.7447C141.197 34.6067 140.868 34.4414 140.56 34.2488C140.252 34.0562 139.982 33.8414 139.751 33.6058L140.477 32.433C140.538 32.3445 140.618 32.2716 140.717 32.2143C140.815 32.1558 140.92 32.1271 141.03 32.1271C141.179 32.1271 141.336 32.1818 141.501 32.2924C141.667 32.4031 141.855 32.5241 142.07 32.6556C142.285 32.7884 142.535 32.9094 142.817 33.0188C143.101 33.1294 143.441 33.1841 143.838 33.1841C144.416 33.1841 144.862 33.0513 145.18 32.7884C145.496 32.5241 145.654 32.1297 145.654 31.6071C145.654 31.3044 145.576 31.0594 145.419 30.8722C145.262 30.6852 145.056 30.5282 144.804 30.4016C144.55 30.275 144.261 30.1662 143.937 30.0755C143.611 29.9847 143.279 29.8843 142.937 29.7741C142.596 29.6639 142.263 29.5319 141.939 29.3778C141.613 29.2237 141.324 29.02 141.072 28.7667C140.818 28.5137 140.614 28.1999 140.456 27.8255C140.3 27.4512 140.221 26.9862 140.221 26.4302C140.221 25.9842 140.309 25.5522 140.486 25.1339C140.662 24.7155 140.92 24.344 141.262 24.0193C141.603 23.6945 142.022 23.433 142.521 23.2348C143.019 23.0367 143.591 22.9376 144.234 22.9376C144.955 22.9376 145.622 23.0492 146.237 23.272C146.85 23.4949 147.369 23.8045 147.792 24.2009L147.182 25.365Z" fill="url(#paint0_linear)"/>
<path d="M159.306 24.9358H155.806V34.9185H153.321V24.9358H149.82V22.9376H159.306V24.9358Z" fill="url(#paint1_linear)"/>
<path d="M167.619 30.3685L166.323 26.7026C166.246 26.5101 166.165 26.2844 166.079 26.0255C165.995 25.767 165.913 25.4862 165.836 25.1833C165.759 25.4918 165.678 25.7765 165.592 26.038C165.506 26.2993 165.426 26.5265 165.349 26.7191L164.06 30.3685H167.619ZM171.78 34.9185H169.857C169.642 34.9185 169.467 34.8677 169.333 34.7649C169.198 34.6634 169.098 34.5332 169.031 34.3731L168.222 32.0861H163.45L162.64 34.3731C162.586 34.5111 162.489 34.636 162.351 34.7493C162.215 34.8612 162.04 34.9185 161.832 34.9185H159.891L164.573 22.9376H167.107L171.78 34.9185Z" fill="url(#paint2_linear)"/>
<path d="M181.967 24.9358H178.465V34.9185H175.981V24.9358H172.479V22.9376H181.967V24.9358Z" fill="url(#paint3_linear)"/>
<path d="M191.657 25.365C191.581 25.4918 191.501 25.5838 191.422 25.6416C191.342 25.6994 191.24 25.7283 191.112 25.7283C190.991 25.7283 190.861 25.6858 190.72 25.6004C190.58 25.5151 190.416 25.4228 190.229 25.3238C190.042 25.2247 189.827 25.1326 189.585 25.0472C189.343 24.9618 189.059 24.9191 188.735 24.9191C188.162 24.9191 187.733 25.0472 187.447 25.3032C187.16 25.5591 187.017 25.8935 187.017 26.3062C187.017 26.5705 187.095 26.7893 187.253 26.9627C187.409 27.1362 187.616 27.2861 187.872 27.4126C188.127 27.5394 188.418 27.6521 188.743 27.7512C189.067 27.8502 189.4 27.9591 189.741 28.0774C190.084 28.1958 190.416 28.3348 190.741 28.4943C191.065 28.654 191.357 28.855 191.612 29.0971C191.868 29.3393 192.074 29.6352 192.231 29.9847C192.388 30.3343 192.467 30.7595 192.467 31.2602C192.467 31.8056 192.372 32.3159 192.182 32.7923C191.992 33.2687 191.719 33.6839 191.361 34.0392C191.003 34.3933 190.56 34.6731 190.036 34.8762C189.51 35.0805 188.913 35.1821 188.247 35.1821C187.868 35.1821 187.49 35.143 187.112 35.0662C186.735 34.9894 186.371 34.8827 186.023 34.7447C185.672 34.6067 185.343 34.4414 185.036 34.2488C184.727 34.0562 184.458 33.8414 184.226 33.6058L184.953 32.433C185.014 32.3445 185.093 32.2716 185.192 32.2143C185.291 32.1558 185.396 32.1271 185.506 32.1271C185.656 32.1271 185.812 32.1818 185.977 32.2924C186.142 32.4031 186.332 32.5241 186.547 32.6556C186.762 32.7884 187.011 32.9094 187.294 33.0188C187.577 33.1294 187.916 33.1841 188.313 33.1841C188.891 33.1841 189.339 33.0513 189.655 32.7884C189.972 32.5241 190.131 32.1297 190.131 31.6071C190.131 31.3044 190.051 31.0594 189.895 30.8722C189.737 30.6852 189.533 30.5282 189.279 30.4016C189.027 30.275 188.738 30.1662 188.412 30.0755C188.088 29.9847 187.755 29.8843 187.414 29.7741C187.072 29.6639 186.74 29.5319 186.414 29.3778C186.089 29.2237 185.8 29.02 185.547 28.7667C185.294 28.5137 185.089 28.1999 184.932 27.8255C184.776 27.4512 184.698 26.9862 184.698 26.4302C184.698 25.9842 184.785 25.5522 184.962 25.1339C185.137 24.7155 185.396 24.344 185.738 24.0193C186.079 23.6945 186.498 23.433 186.996 23.2348C187.495 23.0367 188.066 22.9376 188.71 22.9376C189.43 22.9376 190.098 23.0492 190.712 23.272C191.325 23.4949 191.845 23.8045 192.268 24.2009L191.657 25.365Z" fill="url(#paint4_linear)"/>
<path d="M59.1157 13.2182C58.6359 13.895 58.1339 14.5544 57.6145 15.1947C57.1188 15.8079 56.6025 16.4035 56.0735 16.9817C55.8591 17.2173 55.6398 17.4515 55.419 17.6823C54.7534 18.3799 54.0639 19.0521 53.3554 19.7003C52.9472 20.0729 52.5357 20.4376 52.1148 20.7959L52.1116 20.7992C49.1663 23.3059 45.9256 25.4368 42.5642 27.2476C41.5522 27.7924 40.5276 28.3084 39.4998 28.7958C38.8993 29.0807 38.2972 29.3563 37.692 29.6222C36.8087 30.0141 35.9223 30.3852 35.0374 30.7354C21.8582 35.9833 8.83079 37.1268 5.87967 37.3274C5.67506 37.3402 5.46282 37.353 5.2598 37.3657C5.2382 37.3672 5.21659 37.3672 5.19498 37.3688C4.86583 37.3848 4.53508 37.4007 4.20879 37.4134C4.08885 37.4214 3.96876 37.4262 3.8504 37.431C3.63499 37.4405 3.41958 37.4469 3.20559 37.4548C2.95793 37.4629 2.71028 37.4708 2.46564 37.4772C2.15173 36.4897 1.88707 35.4799 1.67786 34.4496C1.69311 34.4496 1.70867 34.4496 1.72249 34.4479C1.79175 34.4479 1.86085 34.4464 1.93012 34.4448C2.20701 34.4384 2.48406 34.4305 2.76254 34.4224H2.76556C3.1411 34.4098 3.5195 34.3969 3.90267 34.381C3.96113 34.3779 4.018 34.3764 4.07805 34.3731H4.07948C4.12269 34.3715 4.16574 34.3683 4.20879 34.3667L4.33651 34.3619L4.35955 34.3603H4.36575C7.11369 34.2394 10.0264 34.0067 13.0466 33.6262C13.2682 33.5991 13.4882 33.5705 13.7113 33.5402C14.2067 33.4749 14.7067 33.4064 15.2068 33.3316C17.2716 33.0257 19.4287 32.6419 21.6612 32.1545C21.7444 32.1371 21.8275 32.118 21.9106 32.0988C22.5552 31.957 23.2045 31.8041 23.863 31.6433H23.8646C24.1016 31.5861 24.3384 31.527 24.5769 31.4665L24.6153 31.457C24.6816 31.4396 24.7477 31.4251 24.8155 31.4077C25.4802 31.2357 26.1494 31.0589 26.8249 30.8693L26.8571 30.8614C27.9857 30.5444 29.1231 30.202 30.2748 29.8309C31.3042 29.4964 32.34 29.1414 33.3853 28.7576C34.3797 28.3927 35.379 28.0089 36.3845 27.5934C36.429 27.5758 36.4751 27.5566 36.5196 27.5375C37.2789 27.2237 38.043 26.8973 38.8056 26.5533H38.8071C39.4537 26.2651 40.0971 25.964 40.7436 25.6519C40.8898 25.5818 41.0343 25.5102 41.1821 25.4385C41.9732 25.0547 42.7596 24.6549 43.5475 24.2328C43.6841 24.1628 43.8223 24.0894 43.9574 24.0162C44.3164 23.8235 44.6722 23.626 45.0328 23.4238C46.0749 22.8425 47.1123 22.2277 48.1433 21.5828C48.6643 21.2593 49.1806 20.9281 49.6969 20.5889L49.6985 20.5874C49.7509 20.5522 49.8018 20.5188 49.8542 20.4822C50.245 20.2242 50.6358 19.9598 51.0266 19.6891C51.0727 19.6572 51.1187 19.6269 51.1648 19.5936C51.222 19.5536 51.2808 19.5138 51.3395 19.4725L51.3427 19.4709C51.8113 19.1443 52.2784 18.8099 52.7438 18.4675C52.7851 18.4373 52.828 18.407 52.8693 18.3751C53.5953 17.8417 54.315 17.2906 55.0314 16.7204C55.222 16.5691 55.4127 16.4147 55.6033 16.2601C55.8082 16.0945 56.0116 15.9273 56.2149 15.7569C56.3213 15.6693 56.4294 15.58 56.5358 15.4909C56.5819 15.4526 56.6295 15.4161 56.6756 15.3763C56.8106 15.2584 56.9488 15.1421 57.0854 15.0242C57.176 14.9494 57.2602 14.8746 57.3492 14.7981C57.9433 14.2838 58.5311 13.758 59.1157 13.2182Z" fill="#022A54"/>
<path fill-rule="evenodd" clip-rule="evenodd" d="M29.3231 56.2367C30.3334 56.2229 31.33 56.1518 32.3093 56.0252V33.6328C32.5386 33.5531 32.7679 33.4715 32.992 33.3916C35.5454 32.4776 38.0522 31.4354 40.4539 30.2836V51.5123C37.9419 52.8166 35.2006 53.7082 32.3093 54.1018V56.0252C31.33 56.1518 30.3334 56.2229 29.3231 56.2367ZM21.1769 55.0991C20.1549 54.7885 19.158 54.4193 18.1894 53.9942C19.158 54.4193 20.1549 54.7885 21.1769 55.0991V36.6713C21.3136 36.6437 21.4505 36.6141 21.5876 36.5864C24.2243 36.0383 26.8242 35.3723 29.3231 34.6057V54.3291C29.1886 54.3307 29.0542 54.3325 28.9197 54.3325C26.2449 54.3325 23.64 53.9075 21.1769 53.1062V55.0991ZM18.1894 53.9942C18.0058 53.9161 17.8237 53.833 17.6434 53.748C17.8237 53.833 18.0058 53.9145 18.1894 53.9942ZM40.4539 53.6284C41.4849 53.1373 42.4832 52.5808 43.4418 51.9668V28.7714C43.7797 28.5875 44.1108 28.4088 44.4314 28.2302C46.9021 26.86 49.3038 25.3425 51.5865 23.7069V40.4246C49.6072 44.1378 46.8073 47.317 43.4418 49.6947V51.9668C42.4832 52.5808 41.4849 53.1373 40.4539 53.6284ZM18.1894 51.9198C15.1234 50.4717 12.3549 48.4095 10.0439 45.8461V48.5153C7.1884 45.7561 4.89396 42.3773 3.35779 38.5896C4.89396 42.3773 7.1884 45.7561 10.0439 48.5153V38.2478C10.0989 38.2444 10.159 38.2374 10.2175 38.234C11.0257 38.1647 11.7723 38.0918 12.5002 38.0138C14.4022 37.8093 16.3143 37.5439 18.1894 37.2264V51.9198ZM10.3863 48.8397C10.2976 48.76 10.2126 48.6783 10.1258 48.5934C10.2109 48.6767 10.2976 48.7582 10.3863 48.8397ZM51.1744 44.5991C51.2451 44.502 51.3123 44.4032 51.3813 44.3061C51.3141 44.405 51.2451 44.502 51.1744 44.5991Z" fill="url(#paint5_linear)"/>
<path fill-rule="evenodd" clip-rule="evenodd" d="M44 48.9301V46.551C46.959 44.0612 49.4207 40.7321 51.1609 36.8439V40.596C51.1003 40.6995 51.0427 40.8049 50.9805 40.9084C50.9199 41.01 50.8608 41.1135 50.7987 41.2151C50.7441 41.3042 50.691 41.3931 50.6364 41.4822C50.5591 41.6076 50.4818 41.731 50.403 41.8546C50.2833 42.0453 50.1605 42.2322 50.0362 42.4193C49.7876 42.7917 49.5314 43.1566 49.2691 43.5144C49.204 43.6033 49.1373 43.6924 49.0706 43.7814C48.9387 43.9577 48.8038 44.1319 48.6658 44.3044C48.5991 44.3918 48.5294 44.4771 48.4612 44.5624C48.3915 44.6477 48.3232 44.733 48.252 44.8167C48.1914 44.8928 48.1277 44.9672 48.064 45.0419C48.0489 45.0599 48.0337 45.0799 48.017 45.0981C47.9549 45.1707 47.8927 45.2451 47.8291 45.316C47.7578 45.3996 47.6866 45.4812 47.6138 45.5613C47.4698 45.7246 47.3228 45.8845 47.1772 46.0424C46.9453 46.2894 46.7104 46.5328 46.4739 46.7688C46.2541 46.985 46.0328 47.1975 45.8084 47.4064C45.7205 47.4881 45.6326 47.568 45.5431 47.6479C45.3961 47.7805 45.246 47.913 45.0944 48.0421C45.0141 48.1111 44.9338 48.1801 44.8519 48.2474C44.6897 48.3835 44.526 48.5159 44.3623 48.6468C44.241 48.743 44.1213 48.8375 44 48.9301Z" fill="url(#paint6_linear)"/>
<path fill-rule="evenodd" clip-rule="evenodd" d="M33 53.6858V51.9575C35.485 51.6039 37.841 50.8027 40 49.6307V51.5321C39.874 51.5944 39.7466 51.6568 39.6192 51.7175C39.471 51.7876 39.3243 51.8562 39.1746 51.9233C39.0561 51.9762 38.9361 52.0291 38.816 52.0806C38.7953 52.0885 38.776 52.0977 38.7568 52.1056C38.616 52.1664 38.4752 52.224 38.3345 52.2802C38.1922 52.3378 38.0514 52.3939 37.9092 52.4469C37.7803 52.4951 37.6528 52.5434 37.5239 52.5872C37.4691 52.6074 37.4143 52.6259 37.3609 52.6448C37.2809 52.6744 37.2024 52.7009 37.1224 52.7275C36.9846 52.7741 36.8453 52.8193 36.706 52.863C36.6393 52.8848 36.5741 52.9049 36.5074 52.9238C36.4141 52.9534 36.3207 52.9814 36.2259 53.0079C36.1696 53.025 36.1147 53.0406 36.0584 53.0547C35.8199 53.1233 35.5813 53.1856 35.3398 53.2448C35.196 53.2791 35.0508 53.3133 34.9086 53.346L34.8952 53.349C34.747 53.3819 34.5989 53.4131 34.4507 53.4427C34.3692 53.4599 34.2907 53.4754 34.2106 53.4894C34.144 53.5035 34.0773 53.5159 34.0091 53.5268C33.9543 53.5378 33.9024 53.5471 33.8476 53.5565C33.7735 53.569 33.6994 53.5816 33.6268 53.5923C33.5512 53.6047 33.4757 53.6173 33.3986 53.6297C33.2667 53.6499 33.1334 53.6686 33 53.6858Z" fill="url(#paint7_linear)"/>
<path fill-rule="evenodd" clip-rule="evenodd" d="M28.6966 54.729C28.5303 54.729 28.3641 54.7273 28.1978 54.7237C28.0316 54.7199 27.8654 54.7163 27.6991 54.7091C27.5346 54.7034 27.3683 54.6942 27.2038 54.6849H27.197C27.065 54.6758 26.9365 54.6686 26.8062 54.6576C26.7599 54.6538 26.7137 54.6519 26.6686 54.6464C26.5587 54.639 26.4509 54.6279 26.343 54.6169C26.2103 54.6059 26.0792 54.593 25.9481 54.5765C25.8103 54.5636 25.6742 54.547 25.538 54.5286C25.4467 54.5195 25.357 54.5066 25.2674 54.4936C25.1827 54.4826 25.0981 54.4697 25.0134 54.457C24.8326 54.4311 24.6518 54.4017 24.4723 54.3704C24.3944 54.3576 24.3147 54.3428 24.2365 54.3301C24.0924 54.3041 23.9479 54.2767 23.805 54.2471C23.7404 54.2344 23.6756 54.2214 23.611 54.2066L23.5795 54.1992C23.4648 54.1774 23.3486 54.1514 23.2358 54.1257C23.1212 54.1018 23.0067 54.0761 22.8922 54.0467C22.7495 54.0135 22.6065 53.9785 22.4657 53.9418C22.2996 53.8995 22.1352 53.8554 21.971 53.8093C21.805 53.7633 21.6406 53.7154 21.4763 53.6658C21.3169 53.618 21.1577 53.5684 21 53.5186V51.4047C23.4483 52.2547 26.0377 52.7054 28.6966 52.7054C28.8302 52.7054 28.9639 52.7035 29.0976 52.7018V54.7254C28.9639 54.7273 28.8319 54.729 28.6966 54.729Z" fill="url(#paint8_linear)"/>
<path fill-rule="evenodd" clip-rule="evenodd" d="M18.1913 52.1864C18.0082 52.1131 17.8267 52.0381 17.647 51.9598L17.6004 51.939C17.4555 51.8785 17.3108 51.8144 17.1659 51.7491C16.7663 51.5686 16.3718 51.3788 15.9824 51.1823C15.8026 51.0898 15.6244 50.997 15.4463 50.9012C14.9436 50.6316 14.4491 50.3474 13.9665 50.0489C13.8916 50.0026 13.8168 49.9561 13.7434 49.9083C13.482 49.7455 13.2257 49.5778 12.9725 49.4054C12.9194 49.3703 12.8679 49.3352 12.8161 49.2984C12.7297 49.2393 12.6431 49.1788 12.5564 49.1181C12.4384 49.035 12.3217 48.952 12.2069 48.8674C12.0838 48.7781 11.9638 48.6904 11.844 48.5992C11.8057 48.5705 11.7691 48.5417 11.7308 48.513C11.4977 48.3358 11.2664 48.1539 11.04 47.9686C10.9601 47.905 10.8802 47.8394 10.802 47.7723L10.792 47.7644C10.7337 47.7164 10.6755 47.6684 10.6189 47.619L10.5873 47.592C10.5306 47.5456 10.4739 47.4977 10.419 47.4484L10.4125 47.4418C10.3242 47.3668 10.2377 47.2918 10.1528 47.2152C10.1244 47.1913 10.0978 47.1672 10.0712 47.1433V44.6863C12.3749 47.0459 15.1349 48.9441 18.1913 50.277V52.1864Z" fill="url(#paint9_linear)"/>
<path d="M4.63706 17.7122C5.54768 12.9643 11.2935 8.26031 11.3152 8.24066C12.7546 6.93486 21.6827 3.13397 21.6827 3.13397C21.6827 3.13397 21.7374 8.37407 24.0504 12.815C24.0894 12.8909 19.5181 21.3258 19.332 21.3312C16.2679 21.4197 12.9458 22.5422 10.1078 24.0255C7.28029 22.3375 4.52798 20.6589 4.52798 20.6589C4.52798 20.6589 4.0495 19.0195 4.07241 18.9311C4.10678 18.7981 4.61454 17.8295 4.63706 17.7122ZM2.90238 34.3515C2.43926 32.4332 0.818731 29.5507 2.95627 23.2952C3.15021 22.7273 4.11264 22.0227 4.11264 22.0227C4.11264 22.0227 9.00377 25.1028 9.53627 25.2495C9.12691 27.2244 8.85734 32.1443 9.31539 34.6973C11.5491 34.7545 13.7912 34.7534 15.9976 34.5051C17.8143 34.2247 19.6027 33.788 21.3612 33.2519C23.5597 32.5818 25.71 31.7719 27.859 30.9617C27.4646 30.9089 25.3741 31.6743 24.9941 31.6117C24.6283 31.5527 24.8665 31.5818 24.6973 31.5497C24.2313 30.7892 23.5883 26.2759 20.6024 22.2927C20.3056 21.8984 20.4318 21.8437 20.4318 21.8437C20.3303 21.6786 24.9732 13.3762 24.9602 13.3647C26.927 13.4537 28.7193 13.5949 30.3659 13.4743C32.662 13.3058 35.4488 12.7676 35.3876 12.7994C36.6293 13.9546 43.0802 20.5767 43.0698 20.5968C41.5964 23.5579 41.9009 23.3227 40.2179 27.1402C40.8675 26.9146 41.5131 26.6766 42.1522 26.4188C43.9094 25.6432 46.6832 23.9424 48.236 22.809C48.5926 22.5194 50.8913 20.6184 50.8913 20.6184C50.8913 20.6184 44.3402 19.9794 43.8872 19.9469C43.8573 19.9447 37.7279 13.344 36.4901 12.1367C37.5652 10.1883 38.3423 7.31936 38.8864 4.50458C40.3976 4.96966 42.5531 6.96988 43.9367 7.45473C47.403 9.91742 49.9164 13.287 51.8012 17.1361C51.8324 17.6552 52.3452 17.7375 52.3257 18.402C53.2824 17.6009 53.2954 17.6237 54.3953 17.0199C52.9961 13.8649 51.0111 10.9628 48.4976 8.44879C43.131 3.08307 35.3264 1.46814 27.7379 1.46814C20.1494 1.46814 13.6867 3.08307 8.32081 8.44879C2.9551 13.8145 0 20.9487 0 28.5371C0 30.531 0.206047 32.4929 0.604086 34.4003C1.6161 34.4411 1.89023 34.3157 2.90238 34.3515Z" fill="#022A54"/>
<path d="M55.5849 19.6239C55.0721 20.1253 54.5448 20.6128 54.0078 21.0875C53.8133 21.2605 53.6155 21.4317 53.4178 21.5998C53.4757 21.8022 53.5271 22.0063 53.5786 22.2101C54.085 24.2234 54.3535 26.3302 54.3535 28.4991C54.3535 34.0315 52.6075 39.1621 49.635 43.3709C49.5707 43.4597 49.5096 43.55 49.4437 43.6388C49.381 43.7275 49.3167 43.8146 49.2508 43.9018C49.1929 43.9781 49.1366 44.0543 49.0787 44.1307C48.9967 44.2382 48.9148 44.344 48.8312 44.45C48.7042 44.6135 48.5739 44.7738 48.4421 44.9342C48.1784 45.2535 47.9068 45.5663 47.6286 45.8731C47.5595 45.9493 47.4888 46.0256 47.418 46.102C47.2782 46.2531 47.1351 46.4025 46.9888 46.5504C46.918 46.6253 46.8441 46.6984 46.7717 46.7716C46.6978 46.8447 46.6254 46.9179 46.5499 46.9896C46.4856 47.0549 46.4181 47.1187 46.3505 47.1827C46.3345 47.1981 46.3184 47.2153 46.3007 47.2309C46.2348 47.2931 46.1689 47.3569 46.1014 47.4177C46.0258 47.4894 45.9502 47.5593 45.8731 47.628C45.7203 47.768 45.5644 47.9052 45.4101 48.0405C45.1641 48.2523 44.9149 48.4609 44.6641 48.6633C44.431 48.8487 44.1963 49.0308 43.9583 49.2099C43.8651 49.28 43.7719 49.3485 43.677 49.417C43.5211 49.5307 43.3619 49.6443 43.2011 49.7549C43.1159 49.8141 43.0307 49.8732 42.9439 49.931C42.7719 50.0477 42.5983 50.1612 42.4246 50.2734C42.296 50.3559 42.169 50.4369 42.0404 50.5163C41.1466 51.0676 40.2157 51.5672 39.2543 52.0081C39.1177 52.0703 38.9794 52.1327 38.8412 52.1933C38.6804 52.2634 38.5212 52.3318 38.3589 52.3989C38.2303 52.4518 38.1 52.5047 37.9698 52.5561C37.9473 52.564 37.9264 52.5732 37.9055 52.581C37.7528 52.6418 37.6001 52.6994 37.4473 52.7555C37.293 52.813 37.1403 52.8691 36.9859 52.922C36.8461 52.9702 36.7078 53.0185 36.5679 53.0622C36.5085 53.0825 36.449 53.1009 36.3911 53.1198C36.3043 53.1493 36.2191 53.1759 36.1323 53.2024C35.9828 53.249 35.8316 53.2942 35.6805 53.3378C35.6082 53.3596 35.5374 53.3797 35.4651 53.3985C35.3638 53.4281 35.2625 53.4561 35.1596 53.4826C35.0985 53.4996 35.0391 53.5152 34.978 53.5294C34.7191 53.5979 34.4603 53.6601 34.1983 53.7193C34.0423 53.7535 33.8848 53.7877 33.7304 53.8204L33.716 53.8234C33.5552 53.8562 33.3944 53.8874 33.2337 53.917C33.1452 53.9342 33.06 53.9496 32.9732 53.9636C32.9009 53.9778 32.8285 53.9901 32.7546 54.0011C32.6951 54.012 32.6388 54.0213 32.5793 54.0307C32.499 54.0432 32.4186 54.0557 32.3398 54.0665C32.2578 54.0789 32.1758 54.0914 32.0922 54.1038C31.9491 54.1241 31.8044 54.1427 31.6598 54.1599C30.7466 54.2736 29.8174 54.3374 28.8753 54.3498C28.7499 54.3514 28.6261 54.3528 28.4991 54.3528C28.3432 54.3528 28.1872 54.3514 28.0313 54.3483C27.8753 54.3451 27.7194 54.3421 27.5634 54.3359C27.4091 54.3311 27.2532 54.3234 27.0988 54.3155H27.0924C26.9686 54.3078 26.848 54.3017 26.7259 54.2924C26.6824 54.2892 26.639 54.2876 26.5968 54.2829C26.4937 54.2766 26.3926 54.2673 26.2913 54.258C26.1669 54.2487 26.0439 54.2377 25.9209 54.2237C25.7917 54.2128 25.664 54.1988 25.5362 54.1832C25.4505 54.1755 25.3664 54.1646 25.2823 54.1536C25.2029 54.1443 25.1235 54.1334 25.0441 54.1226C24.8745 54.1007 24.7049 54.0758 24.5366 54.0493C24.4634 54.0385 24.3887 54.026 24.3153 54.0152C24.1801 53.9932 24.0446 53.97 23.9105 53.945C23.8499 53.9342 23.7892 53.9233 23.7285 53.9107L23.699 53.9044C23.5914 53.886 23.4824 53.8639 23.3766 53.8422C23.2691 53.822 23.1617 53.8003 23.0543 53.7754C22.9204 53.7472 22.7863 53.7176 22.6541 53.6866C22.4984 53.6508 22.3442 53.6135 22.1902 53.5744C22.0344 53.5355 21.8802 53.495 21.726 53.453C21.5765 53.4125 21.4272 53.3705 21.2793 53.3284C20.3263 53.0497 19.3967 52.7182 18.4935 52.3365C18.3223 52.2664 18.1525 52.1918 17.9844 52.1155L17.9408 52.0952C17.8053 52.0362 17.6699 51.9737 17.5344 51.91C17.1606 51.734 16.7917 51.5488 16.4274 51.3571C16.2592 51.2669 16.0925 51.1764 15.9259 51.083C15.4557 50.82 14.9932 50.5428 14.5417 50.2517C14.4717 50.2065 14.4017 50.1612 14.3331 50.1146C14.0885 49.9557 13.8488 49.7922 13.612 49.6241C13.5624 49.5898 13.5141 49.5556 13.4657 49.5197C13.3849 49.462 13.3038 49.403 13.2228 49.3438C13.1124 49.2628 13.0032 49.1818 12.8958 49.0993C12.7807 49.0122 12.6685 48.9267 12.5564 48.8378C12.5206 48.8098 12.4864 48.7816 12.4505 48.7537C12.2325 48.5809 12.0161 48.4034 11.8044 48.2227C11.7296 48.1606 11.6549 48.0966 11.5817 48.0312L11.5724 48.0235C11.5179 47.9767 11.4634 47.9299 11.4105 47.8817L11.3809 47.8553C11.3279 47.8101 11.2748 47.7634 11.2235 47.7153L11.2174 47.7089C11.1348 47.6373 11.0555 47.564 10.9745 47.4878C10.948 47.4645 10.9231 47.441 10.8982 47.4177C8.23555 44.9405 6.09607 41.9071 4.66365 38.5066C4.64806 38.4677 4.63102 38.4303 4.61526 38.3914C4.46109 38.0224 4.3164 37.6502 4.17926 37.2718C4.02059 36.8311 3.87252 36.3858 3.73716 35.9342C3.68893 35.7754 3.64214 35.6151 3.59697 35.4547C3.49424 35.0841 3.39762 34.7089 3.31049 34.332C3.26386 34.1296 3.21869 33.9272 3.17657 33.7217V33.7201C2.82931 32.0339 2.64717 30.2867 2.64717 28.4991C2.64717 28.3123 2.64878 28.1271 2.65344 27.9417V27.9403C2.76083 22.8408 4.35369 18.1027 7.01324 14.1352C7.65325 13.1823 8.35387 12.2729 9.11059 11.4149C12.0037 8.13893 15.711 5.59609 19.912 4.11223C21.0783 3.70115 22.282 3.3711 23.5183 3.12979H23.5199C25.1314 2.81212 26.7966 2.647 28.4991 2.647C30.2032 2.647 31.8687 2.81212 33.4828 3.12979C34.7175 3.3711 35.9201 3.70115 37.0872 4.11223H37.0888C41.2928 5.5977 45.0001 8.14037 47.8907 11.4195C48.6495 12.2775 49.3504 13.187 49.9887 14.1398C50.9195 15.5272 51.7185 17.0095 52.3696 18.5681C52.3889 18.6133 52.4066 18.6569 52.4259 18.702C52.5995 19.1287 52.7651 19.5601 52.9178 19.9977C53.6348 19.3639 54.3326 18.7067 55.0062 18.0247C54.8808 17.7087 54.7505 17.3957 54.6139 17.0843C50.2041 7.03656 40.1578 0 28.4991 0C15.3946 0 4.32685 8.8918 1.0125 20.9586C0.352555 23.3612 0 25.8899 0 28.4991C0 30.5281 0.2135 32.5072 0.619916 34.4177C0.831644 35.4252 1.09931 36.4123 1.41698 37.3777C5.15559 48.7599 15.8838 57 28.4991 57C44.2156 57 56.9997 44.2148 56.9997 28.4991C56.9997 25.4021 56.5029 22.4188 55.5849 19.6239Z" fill="#022A54"/>
<defs>
<linearGradient id="paint0_linear" x1="139.751" y1="22.9376" x2="149.812" y2="33.4366" gradientUnits="userSpaceOnUse">
<stop stop-color="#355576"/>
<stop offset="1" stop-color="#022A54"/>
</linearGradient>
<linearGradient id="paint1_linear" x1="149.82" y1="22.9376" x2="159.469" y2="34.7859" gradientUnits="userSpaceOnUse">
<stop stop-color="#355576"/>
<stop offset="1" stop-color="#022A54"/>
</linearGradient>
<linearGradient id="paint2_linear" x1="159.891" y1="22.9376" x2="168.895" y2="36.7935" gradientUnits="userSpaceOnUse">
<stop stop-color="#355576"/>
<stop offset="1" stop-color="#022A54"/>
</linearGradient>
<linearGradient id="paint3_linear" x1="172.479" y1="22.9376" x2="182.128" y2="34.7872" gradientUnits="userSpaceOnUse">
<stop stop-color="#355576"/>
<stop offset="1" stop-color="#022A54"/>
</linearGradient>
<linearGradient id="paint4_linear" x1="184.226" y1="22.9376" x2="194.287" y2="33.4382" gradientUnits="userSpaceOnUse">
<stop stop-color="#355576"/>
<stop offset="1" stop-color="#022A54"/>
</linearGradient>
<linearGradient id="paint5_linear" x1="3.35779" y1="23.7069" x2="22.9271" y2="68.7014" gradientUnits="userSpaceOnUse">
<stop stop-color="#355576"/>
<stop offset="1" stop-color="#022A54"/>
</linearGradient>
<linearGradient id="paint6_linear" x1="44" y1="36.8439" x2="53.9043" y2="45.9444" gradientUnits="userSpaceOnUse">
<stop stop-color="#355576"/>
<stop offset="1" stop-color="#022A54"/>
</linearGradient>
<linearGradient id="paint7_linear" x1="33" y1="49.6307" x2="35.1865" y2="55.4839" gradientUnits="userSpaceOnUse">
<stop stop-color="#355576"/>
<stop offset="1" stop-color="#022A54"/>
</linearGradient>
<linearGradient id="paint8_linear" x1="21" y1="51.4047" x2="22.3527" y2="56.5145" gradientUnits="userSpaceOnUse">
<stop stop-color="#355576"/>
<stop offset="1" stop-color="#022A54"/>
</linearGradient>
<linearGradient id="paint9_linear" x1="10.0712" y1="44.6863" x2="15.4946" y2="53.7925" gradientUnits="userSpaceOnUse">
<stop stop-color="#355576"/>
<stop offset="1" stop-color="#022A54"/>
</linearGradient>
</defs>
</svg>
