<svg width="54" height="51" viewBox="0 0 54 51" fill="none" xmlns="http://www.w3.org/2000/svg">
<path d="M53.7505 11.8268C53.3143 12.4324 52.8579 13.0224 52.3856 13.5953C51.9349 14.1439 51.4655 14.6768 50.9845 15.1941C50.7895 15.405 50.5901 15.6145 50.3894 15.821C49.7842 16.4451 49.1573 17.0466 48.5131 17.6266C48.1418 17.96 47.7678 18.2863 47.385 18.6069L47.3821 18.6098C44.7041 20.8526 41.7575 22.7593 38.7011 24.3794C37.781 24.8669 36.8494 25.3285 35.9148 25.7646C35.3689 26.0196 34.8214 26.2662 34.2711 26.5041C33.468 26.8547 32.662 27.1868 31.8575 27.5001C19.8743 32.1956 8.02917 33.2187 5.34587 33.3982C5.15983 33.4097 4.96686 33.4211 4.78226 33.4325C4.76262 33.4338 4.74297 33.4338 4.72333 33.4353C4.42404 33.4495 4.12332 33.4638 3.82663 33.4751C3.71758 33.4823 3.60838 33.4866 3.50077 33.4909C3.30491 33.4994 3.10904 33.5051 2.91448 33.5122C2.6893 33.5194 2.46412 33.5265 2.24168 33.5322C1.95626 32.6487 1.71562 31.7452 1.52539 30.8233C1.53926 30.8233 1.5534 30.8233 1.56597 30.8218C1.62895 30.8218 1.69178 30.8205 1.75476 30.819C2.00652 30.8133 2.25843 30.8062 2.51163 30.799H2.51438C2.85584 30.7877 3.1999 30.7762 3.54829 30.762C3.60145 30.7592 3.65316 30.7578 3.70776 30.7549H3.70906C3.74835 30.7534 3.78749 30.7506 3.82663 30.7492L3.94277 30.7449L3.96371 30.7434H3.96935C6.4679 30.6353 9.11624 30.4271 11.8624 30.0866C12.0639 30.0624 12.2639 30.0368 12.4667 30.0097C12.9172 29.9513 13.3718 29.8899 13.8265 29.823C15.7039 29.5493 17.6653 29.2059 19.6952 28.7698C19.7709 28.7543 19.8464 28.7372 19.9219 28.72C20.5081 28.5931 21.0984 28.4563 21.6971 28.3124H21.6986C21.9141 28.2612 22.1294 28.2084 22.3463 28.1543L22.3812 28.1457C22.4414 28.1301 22.5015 28.1172 22.5632 28.1016C23.1676 27.9477 23.7761 27.7895 24.3903 27.6199L24.4196 27.6128C25.4457 27.3292 26.4799 27.0229 27.5271 26.6908C28.4631 26.3915 29.4048 26.0739 30.3553 25.7305C31.2595 25.404 32.168 25.0606 33.0823 24.6888C33.1228 24.6731 33.1647 24.6559 33.2051 24.6388C33.8955 24.3581 34.5903 24.066 35.2836 23.7583H35.2851C35.873 23.5003 36.4579 23.231 37.0458 22.9517C37.1787 22.889 37.3101 22.8249 37.4445 22.7607C38.1638 22.4173 38.8788 22.0597 39.5952 21.682C39.7194 21.6193 39.8451 21.5537 39.9679 21.4882C40.2943 21.3158 40.6179 21.1391 40.9457 20.9581C41.8933 20.438 42.8365 19.8879 43.7739 19.3109C44.2477 19.0215 44.7171 18.7252 45.1866 18.4217L45.188 18.4203C45.2357 18.3888 45.2819 18.359 45.3296 18.3262C45.6849 18.0953 46.0402 17.8587 46.3956 17.6166C46.4374 17.588 46.4793 17.561 46.5212 17.5311C46.5732 17.4953 46.6267 17.4597 46.6801 17.4228L46.683 17.4213C47.1091 17.1291 47.5338 16.8299 47.957 16.5236C47.9945 16.4965 48.0335 16.4694 48.0711 16.4409C48.7312 15.9636 49.3855 15.4706 50.0369 14.9603C50.2103 14.825 50.3836 14.6868 50.5569 14.5485C50.7433 14.4004 50.9281 14.2507 51.113 14.0983C51.2098 14.0199 51.308 13.94 51.4048 13.8603C51.4467 13.826 51.49 13.7933 51.5319 13.7577C51.6547 13.6522 51.7803 13.5482 51.9046 13.4427C51.9869 13.3758 52.0634 13.3088 52.1443 13.2404C52.6845 12.7802 53.219 12.3098 53.7505 11.8268Z" fill="inherit"/>
<path fill-rule="evenodd" clip-rule="evenodd" d="M26.6616 50.317C27.5803 50.3047 28.4864 50.2411 29.3768 50.1278V30.0925C29.5853 30.0212 29.7938 29.9481 29.9975 29.8767C32.3192 29.0589 34.5986 28.1264 36.7823 27.0959V46.0899C34.4982 47.257 32.0057 48.0547 29.3768 48.4069V50.1278C28.4864 50.2411 27.5803 50.3047 26.6616 50.317ZM19.2547 49.2992C18.3254 49.0213 17.419 48.691 16.5383 48.3106C17.419 48.691 18.3254 49.0213 19.2547 49.2992V32.8111C19.379 32.7865 19.5035 32.76 19.6281 32.7352C22.0255 32.2447 24.3895 31.6489 26.6616 30.963V48.6102C26.5394 48.6116 26.4171 48.6132 26.2948 48.6132C23.8628 48.6132 21.4942 48.233 19.2547 47.5161V49.2992ZM16.5383 48.3106C16.3714 48.2407 16.2058 48.1664 16.0418 48.0903C16.2058 48.1664 16.3714 48.2393 16.5383 48.3106ZM36.7823 47.9833C37.7197 47.5439 38.6274 47.046 39.499 46.4966V25.7428C39.8063 25.5783 40.1072 25.4184 40.3988 25.2586C42.6452 24.0326 44.829 22.6749 46.9045 21.2114V36.1694C45.1049 39.4917 42.559 42.3363 39.499 44.4637V46.4966C38.6274 47.046 37.7197 47.5439 36.7823 47.9833ZM16.5383 46.4546C13.7506 45.1589 11.2333 43.3138 9.13203 41.0202V43.4085C6.53571 40.9396 4.4495 37.9166 3.05273 34.5276C4.4495 37.9166 6.53571 40.9396 9.13203 43.4085V34.2217C9.18203 34.2187 9.23674 34.2124 9.28988 34.2094C10.0248 34.1474 10.7036 34.0822 11.3654 34.0123C13.0949 33.8293 14.8334 33.5919 16.5383 33.3078V46.4546ZM9.44335 43.6986C9.36278 43.6273 9.28549 43.5543 9.20649 43.4783C9.28393 43.5528 9.36278 43.6257 9.44335 43.6986ZM46.5298 39.9044C46.5941 39.8176 46.6552 39.7292 46.7179 39.6423C46.6568 39.7308 46.5941 39.8176 46.5298 39.9044Z" fill="inherit"/>
<path fill-rule="evenodd" clip-rule="evenodd" d="M40.0059 43.7796V41.6509C42.6963 39.4232 44.9346 36.4445 46.5169 32.9656V36.3227C46.4618 36.4153 46.4094 36.5096 46.3529 36.6022C46.2978 36.6932 46.244 36.7858 46.1875 36.8767C46.1379 36.9564 46.0896 37.0359 46.04 37.1156C45.9697 37.2279 45.8994 37.3383 45.8278 37.4488C45.7189 37.6195 45.6072 37.7867 45.4942 37.9542C45.2682 38.2874 45.0353 38.6139 44.7968 38.934C44.7375 39.0135 44.6769 39.0932 44.6162 39.1729C44.4963 39.3306 44.3737 39.4864 44.2482 39.6408C44.1876 39.719 44.1242 39.7953 44.0622 39.8716C43.9988 39.948 43.9367 40.0243 43.872 40.0992C43.8168 40.1673 43.7589 40.2339 43.7011 40.3006C43.6873 40.3168 43.6735 40.3347 43.6583 40.351C43.6018 40.4159 43.5453 40.4825 43.4874 40.5459C43.4227 40.6208 43.3579 40.6937 43.2917 40.7654C43.1608 40.9115 43.0271 41.0546 42.8948 41.1959C42.6839 41.4168 42.4702 41.6346 42.2552 41.8458C42.0554 42.0393 41.8541 42.2294 41.6502 42.4163C41.5702 42.4894 41.4903 42.5609 41.409 42.6324C41.2753 42.751 41.1388 42.8696 41.001 42.985C40.9279 43.0468 40.8549 43.1085 40.7805 43.1687C40.633 43.2905 40.4841 43.409 40.3353 43.5261C40.225 43.6121 40.1161 43.6967 40.0059 43.7796Z" fill="inherit"/>
<path fill-rule="evenodd" clip-rule="evenodd" d="M30.0059 48.0347V46.4883C32.2653 46.1719 34.4075 45.4551 36.3706 44.4064V46.1077C36.2561 46.1634 36.1402 46.2192 36.0243 46.2735C35.8896 46.3363 35.7562 46.3976 35.6201 46.4576C35.5124 46.505 35.4032 46.5524 35.2941 46.5984C35.2752 46.6055 35.2577 46.6137 35.2402 46.6208C35.1122 46.6752 34.9842 46.7267 34.8562 46.777C34.7269 46.8285 34.5989 46.8788 34.4695 46.9261C34.3523 46.9693 34.2364 47.0125 34.1192 47.0517C34.0694 47.0698 34.0195 47.0864 33.971 47.1032C33.8983 47.1297 33.8269 47.1534 33.7541 47.1772C33.6288 47.2189 33.5021 47.2594 33.3755 47.2984C33.3149 47.318 33.2556 47.336 33.195 47.3528C33.1101 47.3793 33.0252 47.4044 32.939 47.4281C32.8878 47.4434 32.8379 47.4574 32.7867 47.47C32.5698 47.5314 32.3529 47.5871 32.1333 47.6401C32.0026 47.6707 31.8705 47.7014 31.7412 47.7306L31.7291 47.7334C31.5944 47.7627 31.4596 47.7906 31.3249 47.8171C31.2508 47.8325 31.1794 47.8464 31.1066 47.8589C31.046 47.8716 30.9854 47.8826 30.9234 47.8924C30.8735 47.9022 30.8264 47.9106 30.7765 47.9189C30.7092 47.9302 30.6418 47.9414 30.5758 47.951C30.5071 47.9621 30.4384 47.9733 30.3683 47.9844C30.2484 48.0026 30.1271 48.0193 30.0059 48.0347Z" fill="inherit"/>
<path fill-rule="evenodd" clip-rule="evenodd" d="M26.0918 48.968C25.9407 48.968 25.7895 48.9665 25.6384 48.9633C25.4872 48.9599 25.336 48.9567 25.1849 48.9502C25.0353 48.9451 24.8841 48.9369 24.7346 48.9286H24.7283C24.6083 48.9204 24.4915 48.914 24.373 48.9041C24.331 48.9007 24.2889 48.899 24.2479 48.8941C24.148 48.8875 24.05 48.8776 23.9518 48.8678C23.8312 48.8579 23.712 48.8464 23.5928 48.8316C23.4675 48.82 23.3438 48.8052 23.2199 48.7887C23.1369 48.7806 23.0554 48.769 22.9739 48.7575C22.8969 48.7476 22.8199 48.736 22.7429 48.7247C22.5785 48.7015 22.4141 48.6752 22.251 48.6472C22.1801 48.6358 22.1076 48.6225 22.0366 48.6111C21.9055 48.5878 21.7741 48.5634 21.6442 48.5369C21.5854 48.5255 21.5265 48.5139 21.4678 48.5007L21.4391 48.494C21.3349 48.4745 21.2292 48.4512 21.1267 48.4283C21.0224 48.4068 20.9183 48.3839 20.8142 48.3576C20.6844 48.3278 20.5545 48.2965 20.4264 48.2637C20.2754 48.2258 20.126 48.1864 19.9767 48.1451C19.8257 48.104 19.6762 48.0612 19.5268 48.0168C19.3819 47.974 19.2371 47.9296 19.0938 47.8851V45.9936C21.3199 46.7542 23.6743 47.1575 26.0918 47.1575C26.2134 47.1575 26.3349 47.1558 26.4564 47.1543V48.9648C26.3349 48.9665 26.2149 48.968 26.0918 48.968Z" fill="inherit"/>
<path fill-rule="evenodd" clip-rule="evenodd" d="M16.5394 46.6931C16.373 46.6274 16.208 46.5603 16.0445 46.4903L16.0022 46.4717C15.8704 46.4176 15.7388 46.3602 15.6071 46.3018C15.2438 46.1403 14.8851 45.9704 14.531 45.7946C14.3675 45.7119 14.2055 45.6289 14.0436 45.5432C13.5865 45.3019 13.1369 45.0476 12.6981 44.7806C12.6299 44.7391 12.5619 44.6975 12.4952 44.6548C12.2575 44.5091 12.0245 44.3591 11.7943 44.2048C11.746 44.1734 11.6992 44.142 11.6521 44.1091C11.5735 44.0561 11.4947 44.002 11.416 43.9477C11.3086 43.8734 11.2025 43.7991 11.0981 43.7234C10.9862 43.6435 10.8771 43.565 10.7682 43.4835C10.7334 43.4578 10.7001 43.432 10.6652 43.4063C10.4533 43.2478 10.243 43.085 10.0372 42.9192C9.9645 42.8623 9.89184 42.8036 9.82073 42.7436L9.81166 42.7365C9.75868 42.6936 9.70571 42.6507 9.6543 42.6064L9.62554 42.5822C9.57397 42.5408 9.5224 42.4979 9.47255 42.4538L9.46661 42.4479C9.38628 42.3808 9.30768 42.3137 9.23048 42.2451C9.20469 42.2237 9.18047 42.2022 9.15625 42.1808V39.9825C11.251 42.0936 13.7604 43.792 16.5394 44.9847V46.6931Z" fill="inherit"/>
<path d="M4.21623 15.8478C5.04421 11.5996 10.2686 7.3908 10.2883 7.37322C11.597 6.20487 19.7149 2.80408 19.7149 2.80408C19.7149 2.80408 19.7646 7.49259 21.8677 11.466C21.9032 11.5339 17.7468 19.081 17.5775 19.0858C14.7916 19.165 11.7709 20.1693 9.1905 21.4965C6.61958 19.9861 4.11705 18.4842 4.11705 18.4842C4.11705 18.4842 3.682 17.0174 3.70283 16.9383C3.73407 16.8193 4.19576 15.9527 4.21623 15.8478ZM2.63898 30.7356C2.21789 29.0191 0.744428 26.4401 2.68798 20.8431C2.86432 20.3349 3.7394 19.7045 3.7394 19.7045C3.7394 19.7045 8.18665 22.4604 8.67082 22.5916C8.29861 24.3587 8.05351 28.7607 8.46999 31.045C10.501 31.0961 12.5396 31.0952 14.5457 30.873C16.1976 30.6221 17.8237 30.2314 19.4226 29.7517C21.4215 29.1521 23.3767 28.4275 25.3307 27.7025C24.9721 27.6554 23.0713 28.3402 22.7258 28.2842C22.3932 28.2314 22.6098 28.2574 22.4559 28.2287C22.0322 27.5482 21.4476 23.51 18.7326 19.9461C18.4628 19.5933 18.5776 19.5444 18.5776 19.5444C18.4853 19.3966 22.7068 11.9682 22.695 11.9579C24.4833 12.0375 26.113 12.1639 27.6101 12.0559C29.6978 11.9052 32.2317 11.4236 32.176 11.4521C33.3051 12.4857 39.1706 18.4108 39.1611 18.4287C37.8214 21.0781 38.0983 20.8676 36.568 24.2833C37.1586 24.0815 37.7456 23.8685 38.3267 23.6379C39.9245 22.9439 42.4465 21.4221 43.8584 20.4081C44.1827 20.149 46.2728 18.448 46.2728 18.448C46.2728 18.448 40.3162 17.8763 39.9043 17.8472C39.8771 17.8452 34.304 11.9393 33.1785 10.8592C34.1561 9.11584 34.8626 6.5489 35.3573 4.03042C36.7313 4.44654 38.6912 6.2362 39.9493 6.67002C43.101 8.87348 45.3863 11.8883 47.1 15.3323C47.1284 15.7968 47.5947 15.8704 47.577 16.4649C48.4469 15.7482 48.4587 15.7686 49.4588 15.2283C48.1865 12.4054 46.3817 9.80878 44.0963 7.55944C39.2167 2.75854 32.1204 1.3136 25.2206 1.3136C18.3208 1.3136 12.4445 2.75854 7.56567 7.55944C2.68691 12.3603 0 18.7436 0 25.5332C0 27.3172 0.187348 29.0726 0.549263 30.7792C1.46944 30.8157 1.71869 30.7035 2.63898 30.7356Z" fill="inherit"/>
<path d="M50.5404 17.5582C50.0741 18.0069 49.5947 18.443 49.1064 18.8678C48.9296 19.0225 48.7497 19.1757 48.57 19.3262C48.6226 19.5073 48.6693 19.6898 48.7161 19.8722C49.1766 21.6736 49.4207 23.5586 49.4207 25.4992C49.4207 30.4493 47.8332 35.0397 45.1304 38.8056C45.072 38.885 45.0164 38.9658 44.9565 39.0452C44.8995 39.1246 44.841 39.2026 44.7811 39.2805C44.7285 39.3489 44.6773 39.417 44.6247 39.4854C44.5501 39.5816 44.4756 39.6762 44.3996 39.771C44.2841 39.9173 44.1657 40.0607 44.0458 40.2043C43.8061 40.49 43.5591 40.7699 43.3062 41.0443C43.2433 41.1125 43.179 41.1808 43.1147 41.2492C42.9875 41.3844 42.8574 41.518 42.7244 41.6504C42.6601 41.7174 42.5928 41.7828 42.5271 41.8483C42.4598 41.9137 42.394 41.9792 42.3253 42.0433C42.2669 42.1017 42.2055 42.1588 42.1441 42.2161C42.1295 42.2299 42.1148 42.2453 42.0988 42.2592C42.0388 42.3149 41.9789 42.372 41.9175 42.4264C41.8488 42.4905 41.7801 42.5531 41.7099 42.6145C41.5711 42.7398 41.4293 42.8625 41.2889 42.9836C41.0653 43.1731 40.8387 43.3598 40.6107 43.5409C40.3987 43.7067 40.1853 43.8697 39.969 44.0299C39.8842 44.0927 39.7994 44.1539 39.7132 44.2152C39.5714 44.3169 39.4267 44.4186 39.2805 44.5176C39.203 44.5705 39.1255 44.6234 39.0466 44.6751C38.8902 44.7795 38.7323 44.8811 38.5745 44.9815C38.4575 45.0553 38.342 45.1278 38.2251 45.1988C37.4124 45.692 36.566 46.1391 35.6919 46.5335C35.5676 46.5892 35.4419 46.645 35.3162 46.6992C35.17 46.762 35.0253 46.8232 34.8777 46.8832C34.7607 46.9305 34.6423 46.9779 34.5239 47.0239C34.5035 47.0309 34.4845 47.0391 34.4655 47.0462C34.3266 47.1006 34.1877 47.1521 34.0489 47.2023C33.9085 47.2538 33.7697 47.304 33.6293 47.3513C33.5022 47.3944 33.3765 47.4376 33.2493 47.4767C33.1952 47.4948 33.1411 47.5114 33.0885 47.5282C33.0096 47.5547 32.9321 47.5784 32.8531 47.6021C32.7172 47.6439 32.5798 47.6843 32.4424 47.7233C32.3766 47.7428 32.3123 47.7608 32.2465 47.7776C32.1544 47.8041 32.0623 47.8291 31.9688 47.8529C31.9132 47.8681 31.8591 47.8821 31.8036 47.8947C31.5683 47.956 31.3329 48.0117 31.0947 48.0646C30.9529 48.0952 30.8096 48.1259 30.6693 48.1551L30.6561 48.1578C30.5099 48.1872 30.3638 48.2151 30.2176 48.2415C30.1372 48.2569 30.0597 48.2707 29.9808 48.2832C29.915 48.2959 29.8492 48.307 29.782 48.3168C29.7279 48.3265 29.6767 48.3349 29.6227 48.3432C29.5496 48.3544 29.4765 48.3657 29.4049 48.3753C29.3303 48.3864 29.2558 48.3976 29.1798 48.4087C29.0497 48.4268 28.9181 48.4435 28.7865 48.4589C27.9563 48.5606 27.1114 48.6177 26.2548 48.6288C26.1407 48.6302 26.0282 48.6315 25.9127 48.6315C25.7709 48.6315 25.6291 48.6302 25.4873 48.6275C25.3456 48.6246 25.2038 48.6218 25.062 48.6164C24.9216 48.6121 24.7799 48.6052 24.6395 48.5981H24.6337C24.5211 48.5912 24.4115 48.5857 24.3004 48.5774C24.2609 48.5745 24.2215 48.5731 24.183 48.5689C24.0893 48.5633 23.9974 48.555 23.9053 48.5466C23.7921 48.5383 23.6803 48.5285 23.5685 48.516C23.451 48.5062 23.3349 48.4937 23.2187 48.4797C23.1408 48.4728 23.0643 48.463 22.9879 48.4533C22.9157 48.4449 22.8435 48.4351 22.7713 48.4255C22.617 48.4059 22.4628 48.3836 22.3098 48.3599C22.2433 48.3503 22.1753 48.3391 22.1086 48.3294C21.9857 48.3097 21.8625 48.289 21.7406 48.2666C21.6855 48.2569 21.6302 48.2471 21.5751 48.2359L21.5482 48.2303C21.4504 48.2138 21.3513 48.1941 21.2551 48.1746C21.1573 48.1565 21.0597 48.1371 20.962 48.1148C20.8403 48.0896 20.7184 48.0632 20.5982 48.0354C20.4566 48.0033 20.3164 47.97 20.1763 47.935C20.0347 47.9002 19.8945 47.8639 19.7543 47.8264C19.6184 47.7901 19.4826 47.7526 19.3481 47.7149C18.4816 47.4655 17.6364 47.1689 16.8152 46.8274C16.6595 46.7647 16.5051 46.6979 16.3522 46.6296L16.3126 46.6115C16.1894 46.5587 16.0663 46.5027 15.9431 46.4458C15.6032 46.2883 15.2678 46.1226 14.9365 45.9511C14.7836 45.8704 14.632 45.7894 14.4806 45.7059C14.053 45.4705 13.6325 45.2225 13.222 44.962C13.1583 44.9216 13.0947 44.8811 13.0323 44.8394C12.81 44.6972 12.592 44.5509 12.3767 44.4005C12.3315 44.3698 12.2877 44.3392 12.2437 44.3071C12.1702 44.2555 12.0965 44.2027 12.0228 44.1498C11.9224 44.0773 11.8231 44.0048 11.7255 43.931C11.6208 43.853 11.5188 43.7765 11.4169 43.6969C11.3843 43.6719 11.3532 43.6467 11.3206 43.6217C11.1224 43.4671 10.9256 43.3083 10.7331 43.1466C10.6651 43.0911 10.5972 43.0338 10.5306 42.9753L10.5222 42.9684C10.4726 42.9265 10.4231 42.8847 10.375 42.8415L10.3481 42.8179C10.2998 42.7775 10.2516 42.7356 10.205 42.6926L10.1994 42.6869C10.1243 42.6229 10.0522 42.5573 9.97854 42.4891C9.95442 42.4682 9.93176 42.4472 9.90911 42.4264C7.48814 40.2099 5.54283 37.4959 4.24041 34.4533C4.22623 34.4185 4.21074 34.385 4.19641 34.3502C4.05623 34.02 3.92467 33.687 3.79998 33.3484C3.6557 32.9542 3.52108 32.5557 3.398 32.1517C3.35414 32.0095 3.31161 31.8661 3.27053 31.7226C3.17712 31.391 3.08928 31.0553 3.01005 30.7181C2.96766 30.537 2.92658 30.3559 2.88828 30.1721V30.1707C2.57254 28.6619 2.40693 27.0986 2.40693 25.4992C2.40693 25.3321 2.40839 25.1664 2.41263 25.0005V24.9992C2.51028 20.4365 3.95858 16.1972 6.37677 12.6473C6.95869 11.7947 7.59573 10.981 8.28378 10.2133C10.9144 7.2822 14.2852 5.00703 18.1049 3.67936C19.1654 3.31155 20.2598 3.01625 21.3839 2.80034H21.3854C22.8506 2.51611 24.3647 2.36837 25.9127 2.36837C27.4622 2.36837 28.9766 2.51611 30.4442 2.80034C31.5668 3.01625 32.6602 3.31155 33.7214 3.67936H33.7229C37.5454 5.00847 40.9162 7.28349 43.5444 10.2175C44.2344 10.9852 44.8717 11.7989 45.452 12.6514C46.2984 13.8928 47.0249 15.219 47.6169 16.6136C47.6344 16.654 47.6505 16.693 47.6681 16.7334C47.8259 17.1152 47.9765 17.5011 48.1153 17.8926C48.7673 17.3256 49.4017 16.7376 50.0142 16.1274C49.9002 15.8446 49.7818 15.5645 49.6575 15.2859C45.6479 6.29587 36.5134 0 25.9127 0C13.9975 0 3.93417 7.95582 0.920611 18.7524C0.32056 20.9021 0 23.1646 0 25.4992C0 27.3147 0.194124 29.0854 0.563656 30.7948C0.75617 31.6963 0.999545 32.5795 1.28839 33.4432C4.6877 43.6273 14.4423 51 25.9127 51C40.2029 51 51.8268 39.5606 51.8268 25.4992C51.8268 22.7282 51.3751 20.0589 50.5404 17.5582Z" fill="inherit"/>
</svg>
