<svg width="30" height="30" viewBox="0 0 30 30" fill="none" xmlns="http://www.w3.org/2000/svg">
<path d="M15 30C23.2843 30 30 23.2843 30 15C30 6.71573 23.2843 0 15 0C6.71573 0 0 6.71573 0 15C0 23.2843 6.71573 30 15 30Z" fill="#FFD93B"/>
<path d="M29.9988 14.9998C29.9988 23.2873 23.2816 29.9998 14.9988 29.9998C10.2832 29.9998 6.07382 27.8248 3.32227 24.417C5.8957 26.4982 9.17226 27.7404 12.7394 27.7404C21.0222 27.7404 27.7394 21.0279 27.7394 12.7404C27.7394 9.17324 26.4972 5.89668 24.416 3.32324C27.8191 6.0748 29.9988 10.2842 29.9988 14.9998Z" fill="#FFD93B"/>
<g opacity="0.3">
<path opacity="0.3" d="M2.99625 12.4491C2.71312 12.3741 2.54437 12.0826 2.61937 11.7994C3.76031 7.51599 7.1025 4.04724 11.3419 2.74787C11.6222 2.66255 11.9194 2.81912 12.0056 3.10037C12.0919 3.38068 11.9344 3.67787 11.6531 3.76412C7.7625 4.95568 4.69406 8.14037 3.64687 12.0722C3.57094 12.3572 3.27937 12.5241 2.99625 12.4491Z" fill="white"/>
</g>
<path d="M10.0751 16.9604C9.9635 17.0832 9.791 17.116 9.641 17.0495C8.60037 16.5601 4.56725 14.5623 4.18381 12.6601C3.91662 11.3363 4.76787 10.0566 6.086 9.78946C7.10412 9.58321 8.10537 10.0454 8.62287 10.8798C8.7785 9.91227 9.52381 9.09384 10.5419 8.88852C11.8544 8.62696 13.1397 9.47821 13.4069 10.7963C13.7904 12.7051 10.8476 16.1045 10.0751 16.9604Z" fill="#E24B4B"/>
<path d="M10.6989 16.2376C10.4429 16.5489 10.2207 16.7936 10.0754 16.9558C9.96387 17.0776 9.79137 17.117 9.64137 17.0505C8.60075 16.5611 4.56762 14.5633 4.18418 12.6611C4.10637 12.288 4.12887 11.927 4.21793 11.582C4.25731 11.8267 4.81887 14.6748 10.6989 16.2376Z" fill="#D03F3F"/>
<g opacity="0.15">
<path opacity="0.15" d="M12.4457 10.3865C12.3557 10.5909 11.962 10.619 11.5588 10.439C11.1548 10.2647 10.896 9.95811 10.987 9.74811C11.0713 9.5428 11.4698 9.52124 11.8738 9.69561C12.2779 9.86998 12.5301 10.1812 12.4457 10.3865Z" fill="white"/>
</g>
<path d="M19.9248 16.9604C20.0363 17.0832 20.2088 17.116 20.3588 17.0495C21.3994 16.5601 25.4326 14.5623 25.816 12.6601C26.0832 11.3363 25.2319 10.0566 23.9138 9.78946C22.8957 9.58321 21.8944 10.0454 21.3769 10.8798C21.2213 9.91227 20.476 9.09384 19.4579 8.88852C18.1454 8.62696 16.8601 9.47821 16.5929 10.7963C16.2094 12.7051 19.1523 16.1045 19.9248 16.9604Z" fill="#E24B4B"/>
<path d="M19.3008 16.2376C19.5567 16.5489 19.7789 16.7936 19.9242 16.9558C20.0358 17.0776 20.2083 17.117 20.3583 17.0505C21.3989 16.5611 25.432 14.5633 25.8155 12.6611C25.8933 12.288 25.8708 11.927 25.7817 11.582C25.7423 11.8267 25.1808 14.6748 19.3008 16.2376Z" fill="#D03F3F"/>
<g opacity="0.15">
<path opacity="0.15" d="M17.5534 10.3865C17.6434 10.5909 18.0362 10.619 18.4402 10.439C18.8443 10.2647 19.1021 9.95811 19.0121 9.74811C18.9277 9.5428 18.5293 9.52124 18.1252 9.69561C17.7212 9.86998 17.469 10.1812 17.5534 10.3865Z" fill="white"/>
</g>
<path d="M22.7822 19.7775C22.0603 19.3612 19.4878 21.5428 15.0009 21.4416C10.515 21.5419 7.9406 19.3612 7.21966 19.7775C6.35341 20.1159 8.05217 24.6609 15.0009 24.6534C21.9497 24.6647 23.6484 20.1159 22.7822 19.7775Z" fill="#3E4347"/>
</svg>
