<svg width="20" height="15" viewBox="0 0 20 15" fill="none" xmlns="http://www.w3.org/2000/svg">
<path d="M18.2422 0H1.75781C0.789766 0 0 0.776769 0 1.73077V13.2692C0 14.22 0.78625 15 1.75781 15H18.2422C19.2078 15 20 14.2258 20 13.2692V1.73077C20 0.78 19.2138 0 18.2422 0ZM17.9995 1.15385L10.0373 8.99358L2.00621 1.15385H17.9995ZM1.17188 13.0303V1.96419L6.81559 7.47342L1.17188 13.0303ZM2.00051 13.8462L7.64777 8.28577L9.62656 10.2174C9.85563 10.441 10.2253 10.4403 10.4534 10.2156L12.3828 8.31589L17.9995 13.8462H2.00051ZM18.8281 13.0303L13.2114 7.5L18.8281 1.96969V13.0303Z" fill="#A1B5C9"/>
</svg>
