<svg xmlns="http://www.w3.org/2000/svg" xmlns:xlink="http://www.w3.org/1999/xlink" width="534" height="549" viewBox="0 0 534 549">
  <defs>
    <linearGradient id="linear-gradient" x1="0.5" x2="0.485" y2="1.436" gradientUnits="objectBoundingBox">
      <stop offset="0" stop-color="#38580a"/>
      <stop offset="1" stop-color="#0b1202"/>
    </linearGradient>
    <clipPath id="clip-path">
      <path id="Path_1020" dataname="Path 1020" d="M20,0H514a20,20,0,0,1,20,20V529a20,20,0,0,1-20,20H20A20,20,0,0,1,0,529V20A20,20,0,0,1,20,0Z" transform="translate(-38 145)" fill="url(#linear-gradient)"/>
    </clipPath>
  </defs>
  <g id="Mask_Group_60" dataname="Mask Group 60" transform="translate(38 -145)" clip-path="url(#clip-path)">
    <g id="Group_3398" dataname="Group 3398" transform="translate(5 32)">
      <g id="Group_3397" dataname="Group 3397">
        <g id="Group_3291" dataname="Group 3291" transform="translate(14.489 228.365)" opacity="0.107" style="mix-blend-mode: screen;isolation: isolate">
          <g id="Group_34" dataname="Group 34" transform="translate(302.561 286.317)">
            <path id="Path_1" dataname="Path 1" d="M1259.306,837.49q-2.958,4.172-6.17,8.123c-2.037,2.52-4.159,4.968-6.333,7.344-.882.969-1.782,1.931-2.69,2.879q-4.1,4.3-8.481,8.294c-1.678,1.531-3.369,3.03-5.1,4.5l-.013.014a225.209,225.209,0,0,1-39.239,26.5c-4.159,2.239-8.37,4.36-12.595,6.363q-3.7,1.757-7.43,3.4-5.446,2.416-10.91,4.575c-54.166,21.569-107.708,26.268-119.837,27.093l-2.547.157c-.089.006-.178.006-.266.013-1.353.065-2.712.131-4.053.183-.493.033-.987.053-1.473.072-.885.039-1.77.066-2.65.1-1.017.033-2.036.065-3.041.092a119.725,119.725,0,0,1-3.237-12.444,1.622,1.622,0,0,0,.183-.007c.285,0,.568-.006.853-.012,1.138-.027,2.276-.059,3.421-.092h.013c1.543-.052,3.1-.1,4.673-.17.241-.013.474-.019.721-.032h.006c.178-.007.355-.02.532-.026l.525-.02.094-.007h.026c11.294-.5,23.265-1.453,35.677-3.017.911-.112,1.815-.229,2.731-.354,2.036-.268,4.092-.55,6.147-.857,8.486-1.257,17.352-2.834,26.527-4.838.342-.072.684-.15,1.024-.229,2.65-.583,5.319-1.211,8.025-1.872h.006c.974-.235,1.948-.478,2.928-.727l.158-.039c.272-.071.544-.131.823-.2,2.732-.707,5.482-1.433,8.258-2.213l.132-.032q6.957-1.954,14.047-4.236c4.231-1.375,8.488-2.834,12.784-4.411,4.087-1.5,8.194-3.077,12.327-4.785.183-.072.372-.151.555-.23,3.121-1.289,6.262-2.631,9.4-4.045h.006c2.657-1.185,5.3-2.422,7.958-3.7.6-.288,1.2-.583,1.8-.877,3.252-1.577,6.483-3.22,9.722-4.955.561-.288,1.129-.589,1.685-.89,1.476-.792,2.938-1.6,4.42-2.435q6.424-3.584,12.784-7.566c2.142-1.329,4.263-2.69,6.385-4.085l.006-.006c.216-.144.424-.282.64-.433q2.41-1.59,4.819-3.259c.189-.131.378-.255.568-.393.235-.164.477-.328.718-.5l.013-.007q2.89-2.013,5.759-4.123c.17-.124.346-.249.516-.38q4.476-3.289,8.886-6.8c.783-.622,1.567-1.256,2.35-1.892q1.264-1.021,2.514-2.068c.438-.36.881-.727,1.318-1.093.19-.158.385-.308.575-.471.555-.484,1.123-.963,1.684-1.447.372-.308.718-.615,1.084-.929Q1255.709,840.812,1259.306,837.49Z" transform="translate(-1023.24 -837.49)" fill="#fff"/>
          </g>
          <g id="Group_35" dataname="Group 35" transform="translate(309.481 329.088)">
            <path id="Path_2" dataname="Path 2" d="M1250.559,1144a107.046,107.046,0,0,0,12.273-.869V1051.1c.942-.327,1.885-.663,2.806-.991a322.227,322.227,0,0,0,30.668-12.774v87.248a102.542,102.542,0,0,1-33.474,10.643v7.905A107.046,107.046,0,0,1,1250.559,1144Zm-33.48-4.675a110.352,110.352,0,0,1-12.279-4.541,110.352,110.352,0,0,0,12.279,4.541v-75.737c.562-.113,1.125-.235,1.688-.349,10.836-2.253,21.522-4.99,31.792-8.14v81.062c-.553.006-1.105.014-1.658.014a102.725,102.725,0,0,1-31.822-5.04Zm-12.279-4.541c-.755-.321-1.5-.663-2.244-1.012C1203.3,1134.121,1204.045,1134.457,1204.8,1134.784Zm91.506-1.5a112.219,112.219,0,0,0,12.28-6.829V1031.12c1.389-.756,2.749-1.49,4.067-2.224a302.563,302.563,0,0,0,29.407-18.591v68.709a109.972,109.972,0,0,1-33.474,38.1v9.338A112.219,112.219,0,0,1,1296.306,1133.28Zm-91.506-7.022a106.171,106.171,0,0,1-33.478-24.963v10.971a118.873,118.873,0,0,1-27.479-40.794,118.873,118.873,0,0,0,27.479,40.794v-42.2c.226-.014.473-.043.714-.057,3.322-.285,6.39-.584,9.382-.905,7.817-.841,15.676-1.931,23.382-3.236Zm-32.071-12.659c-.364-.327-.713-.663-1.071-1.012C1172.009,1112.93,1172.365,1113.264,1172.729,1113.6Zm167.637-17.429c.291-.4.567-.8.85-1.2C1340.94,1095.373,1340.657,1095.772,1340.366,1096.17Z" transform="translate(-1143.843 -1010.305)" fill="#fff" fill-rule="evenodd"/>
          </g>
          <g id="Group_36" dataname="Group 36" transform="translate(474.328 379.713)">
            <path id="Path_3" dataname="Path 3" d="M1454.7,1415.545V1404.4c13.859-11.662,25.391-27.255,33.541-45.467v17.575c-.284.485-.554.978-.845,1.463s-.561.961-.852,1.437c-.255.417-.5.834-.76,1.251-.362.587-.724,1.165-1.094,1.744-.561.893-1.136,1.769-1.718,2.645q-1.747,2.616-3.592,5.129c-.306.416-.618.833-.93,1.251q-.927,1.238-1.9,2.449c-.312.409-.638.809-.958,1.208s-.646.8-.979,1.191c-.285.357-.582.706-.881,1.055-.071.084-.142.178-.22.263-.291.34-.583.688-.881,1.021-.334.392-.667.774-1.009,1.149-.675.765-1.363,1.514-2.045,2.254-1.086,1.156-2.187,2.3-3.294,3.4q-1.543,1.519-3.117,2.986c-.412.383-.824.757-1.243,1.132-.689.62-1.391,1.242-2.1,1.846-.376.323-.753.646-1.136.961-.76.638-1.527,1.257-2.294,1.871C1455.828,1414.668,1455.268,1415.11,1454.7,1415.545Z" transform="translate(-1454.699 -1358.934)" fill="#fff" fill-rule="evenodd"/>
          </g>
          <g id="Group_37" dataname="Group 37" transform="translate(428.426 434.403)">
            <path id="Path_4" dataname="Path 4" d="M1363.75,1296.606v-8.249a99.23,99.23,0,0,0,33.413-11.106v9.076c-.6.3-1.21.6-1.818.885-.707.334-1.407.662-2.122.982-.566.253-1.139.505-1.712.751-.1.037-.191.081-.283.119-.672.291-1.344.566-2.016.833s-1.351.543-2.031.8c-.615.231-1.224.461-1.839.67-.262.1-.524.185-.778.276-.382.141-.757.267-1.139.395-.658.222-1.323.438-1.988.646-.318.1-.63.2-.948.291-.445.141-.891.275-1.344.4-.269.081-.531.155-.8.223-1.139.327-2.278.624-3.43.907-.686.164-1.38.327-2.058.483l-.064.015q-1.061.235-2.121.447c-.389.082-.765.156-1.146.223-.318.067-.636.127-.962.179-.262.052-.509.1-.771.141-.353.06-.707.12-1.053.172s-.722.119-1.089.178C1365.024,1296.435,1364.387,1296.524,1363.75,1296.606Z" transform="translate(-1363.75 -1277.25)" fill="#fff" fill-rule="evenodd"/>
          </g>
          <g id="Group_38" dataname="Group 38" transform="translate(382.789 442.589)">
            <path id="Path_5" dataname="Path 5" d="M1307.738,1328q-1.028,0-2.055-.022c-.685-.015-1.37-.031-2.054-.06s-1.363-.061-2.041-.1h-.028c-.544-.037-1.073-.067-1.609-.113-.191-.016-.382-.024-.567-.046-.453-.031-.9-.076-1.341-.122-.546-.045-1.087-.1-1.627-.166-.568-.053-1.128-.121-1.689-.2-.376-.038-.745-.091-1.115-.145-.349-.045-.7-.1-1.046-.151-.745-.107-1.49-.228-2.229-.357-.321-.052-.649-.114-.972-.166-.594-.108-1.189-.22-1.778-.342-.266-.052-.533-.1-.8-.167l-.13-.03c-.473-.09-.951-.2-1.415-.3s-.944-.2-1.416-.326c-.588-.137-1.177-.28-1.758-.432-.683-.175-1.361-.356-2.037-.546s-1.361-.387-2.038-.591c-.656-.2-1.312-.4-1.962-.606v-8.709a96.485,96.485,0,0,0,31.706,5.359c.551,0,1.1-.008,1.652-.015v8.336C1308.839,1327.995,1308.3,1328,1307.738,1328Z" transform="translate(-1276.032 -1314.307)" fill="#fff" fill-rule="evenodd"/>
          </g>
          <g id="Group_39" dataname="Group 39" transform="translate(337.012 415.453)">
            <path id="Path_6" dataname="Path 6" d="M1224.857,1117.344c-.752-.3-1.5-.61-2.237-.932l-.191-.085c-.6-.249-1.191-.512-1.786-.78q-2.463-1.113-4.864-2.33c-.739-.38-1.471-.762-2.2-1.155q-3.1-1.663-6.082-3.5c-.308-.19-.615-.381-.917-.578-1.075-.669-2.128-1.358-3.168-2.067-.218-.144-.43-.289-.643-.439-.355-.243-.711-.492-1.067-.742-.485-.341-.965-.683-1.437-1.031-.506-.367-1-.727-1.491-1.1-.157-.118-.308-.237-.465-.354-.958-.728-1.909-1.476-2.839-2.237-.328-.262-.657-.532-.979-.807l-.041-.033c-.239-.2-.479-.394-.711-.6l-.13-.111c-.233-.19-.466-.387-.692-.59l-.027-.027c-.363-.308-.718-.616-1.067-.932-.116-.1-.226-.2-.335-.3v-10.1a105.616,105.616,0,0,0,33.374,22.977Z" transform="translate(-1191.483 -1086.519)" fill="#fff" fill-rule="evenodd"/>
          </g>
          <path id="Path_44" dataname="Path 44" d="M894.527,480.387c3.742-19.514,27.357-38.847,27.447-38.928,5.916-5.367,42.61-20.988,42.61-20.988s.225,21.536,9.731,39.788c.161.312-18.627,34.979-19.393,35-12.593.364-26.247,4.977-37.91,11.074C905.39,499.4,894.079,492.5,894.079,492.5s-1.967-6.738-1.872-7.1C892.348,484.85,894.435,480.869,894.527,480.387Zm-7.13,68.386c-1.9-7.884-8.564-19.731.221-45.441.8-2.334,4.753-5.23,4.753-5.23s20.1,12.659,22.291,13.262c-1.683,8.117-2.79,28.337-.908,38.83a200.2,200.2,0,0,0,27.463-.79,158.692,158.692,0,0,0,22.044-5.15c9.036-2.754,17.873-6.083,26.705-9.413-1.621-.217-10.212,2.929-11.774,2.672a6.973,6.973,0,0,1-1.22-.255c-1.915-3.126-4.557-21.675-16.829-38.046-1.22-1.62-.7-1.845-.7-1.845-.417-.679,18.665-34.8,18.611-34.849,8.083.366,15.45.946,22.217.451,9.437-.692,20.89-2.9,20.639-2.774,5.1,4.748,31.616,31.965,31.574,32.047-6.056,12.17-4.8,11.2-11.721,26.893,2.669-.927,5.323-1.906,7.95-2.965,7.222-3.188,18.622-10.178,25-14.836,1.466-1.19,10.913-9,10.913-9s-26.924-2.626-28.786-2.76c-.123-.009-25.315-27.138-30.4-32.1,4.419-8.008,7.612-19.8,9.849-31.368,6.211,1.911,15.07,10.132,20.757,12.125,14.246,10.121,24.576,23.97,32.322,39.79.129,2.133,2.236,2.471,2.156,5.2,3.932-3.292,3.986-3.2,8.506-5.68a116.73,116.73,0,0,0-24.239-35.227c-22.057-22.053-54.133-28.69-85.321-28.69s-57.75,6.637-79.8,28.69a116,116,0,0,0-34.2,82.562,117.882,117.882,0,0,0,2.483,24.1C882.111,549.142,883.238,548.627,887.4,548.774Z" transform="translate(-578.97 -176.201)" fill="#fff"/>
          <g id="Group_40" dataname="Group 40" transform="translate(296.026 231.369)">
            <path id="Path_87" dataname="Path 87" d="M1259.21,794.5q-3.161,3.091-6.482,6.015c-.8.711-1.612,1.415-2.425,2.105.238.832.45,1.67.661,2.508a106.151,106.151,0,0,1-16.208,86.969c-.264.365-.516.736-.786,1.1s-.522.722-.793,1.081c-.238.314-.469.627-.708.941-.337.442-.674.877-1.017,1.313-.522.672-1.057,1.33-1.6,1.99q-1.626,1.968-3.344,3.859c-.284.313-.574.627-.866.941q-.862.931-1.764,1.843c-.291.308-.595.609-.892.909s-.6.6-.912.9c-.265.268-.542.531-.819.793-.066.063-.132.134-.2.2-.271.256-.542.518-.819.768-.311.295-.621.582-.938.864-.628.576-1.269,1.139-1.9,1.7-1.011.87-2.035,1.728-3.065,2.56q-1.438,1.143-2.9,2.246c-.383.288-.767.57-1.156.851-.641.467-1.295.934-1.956,1.389-.35.243-.7.486-1.057.723-.707.48-1.42.946-2.134,1.407-.529.339-1.051.672-1.579,1a106,106,0,0,1-11.451,6.131c-.561.256-1.129.512-1.7.761-.661.288-1.315.57-1.982.845-.529.218-1.064.435-1.6.646-.092.032-.178.07-.264.1-.628.25-1.255.487-1.883.717s-1.262.467-1.9.685c-.575.2-1.143.4-1.718.576-.245.083-.489.159-.727.236-.357.121-.707.231-1.064.34-.614.191-1.236.377-1.857.556-.3.09-.588.173-.885.25-.416.122-.833.236-1.255.345-.251.07-.5.134-.747.193-1.064.281-2.127.537-3.2.78-.641.141-1.289.281-1.922.416l-.06.013q-.991.2-1.982.385c-.363.071-.714.134-1.07.192-.3.058-.594.109-.9.153-.244.045-.476.083-.721.122-.33.052-.661.1-.984.148l-1.017.153c-.589.083-1.183.16-1.778.23a103.773,103.773,0,0,1-11.444.781c-.515.007-1.024.013-1.546.013q-.961,0-1.923-.019c-.641-.013-1.282-.026-1.923-.051s-1.275-.052-1.91-.084h-.026c-.509-.031-1-.057-1.507-.095-.178-.014-.357-.02-.531-.039-.423-.026-.839-.064-1.255-.1-.512-.039-1.017-.083-1.522-.141-.531-.045-1.056-.1-1.582-.166-.352-.032-.7-.077-1.043-.122-.326-.038-.653-.083-.979-.128-.7-.09-1.394-.192-2.087-.3-.3-.044-.608-.1-.909-.14-.556-.09-1.113-.186-1.664-.289-.249-.044-.5-.089-.748-.141l-.122-.026c-.442-.076-.89-.167-1.325-.255s-.883-.173-1.325-.275c-.55-.116-1.1-.238-1.645-.365-.64-.147-1.274-.3-1.907-.461s-1.273-.326-1.907-.5c-.615-.167-1.229-.339-1.836-.512a105.485,105.485,0,0,1-11.45-4.077c-.7-.288-1.4-.6-2.093-.909l-.179-.083c-.557-.242-1.113-.5-1.67-.761-1.536-.723-3.053-1.485-4.55-2.272-.691-.37-1.376-.742-2.061-1.126q-2.9-1.622-5.689-3.417c-.289-.186-.576-.372-.858-.564q-1.507-.979-2.963-2.016c-.2-.141-.4-.281-.6-.428-.332-.237-.665-.48-1-.723-.454-.333-.9-.666-1.344-1.005-.473-.358-.934-.71-1.4-1.075-.147-.115-.288-.231-.435-.346-.9-.71-1.785-1.44-2.656-2.182-.307-.255-.615-.518-.915-.787l-.038-.031c-.224-.193-.448-.385-.666-.583l-.122-.109c-.218-.185-.436-.378-.647-.575l-.025-.026c-.339-.294-.666-.6-1-.908-.109-.1-.212-.192-.314-.288a106.6,106.6,0,0,1-25.624-36.624c-.064-.16-.134-.314-.2-.474-.634-1.517-1.228-3.046-1.792-4.6q-.978-2.717-1.817-5.5c-.2-.653-.391-1.312-.576-1.971-.422-1.523-.82-3.065-1.178-4.614-.192-.832-.377-1.664-.551-2.508v-.006a106.34,106.34,0,0,1-2.176-21.458c0-.768.006-1.529.026-2.291v-.006a105.6,105.6,0,0,1,17.919-56.738,106.872,106.872,0,0,1,53.013-41.193,105.2,105.2,0,0,1,14.822-4.038h.006a106.29,106.29,0,0,1,55.761,4.038h.007a106.579,106.579,0,0,1,44.395,30.032A106.407,106.407,0,0,1,1246,790.162c.079.186.152.365.231.55.713,1.754,1.394,3.527,2.022,5.325q4.421-3.907,8.583-8.109-.773-1.948-1.612-3.865a117.138,117.138,0,0,0-221.912,71.24,113.75,113.75,0,0,0,3.276,12.165A117.14,117.14,0,0,0,1259.21,794.5Z" transform="translate(-1030.76 -713.848)" fill="#fff"/>
          </g>
        </g>
      </g>
    </g>
  </g>
</svg>
