<svg xmlns="http://www.w3.org/2000/svg" width="35" height="35" viewBox="0 0 35 35">
  <path id="Path_108" dataname="Path 108" d="M29.778,1.888V0H5.223V1.888H0V6.631a7.91,7.91,0,0,0,6.4,7.74,12.28,12.28,0,0,0,8.392,6.67v8.595h-5.6V35H25.785V29.636h-5.6V21.047A12.276,12.276,0,0,0,28.6,14.371,7.91,7.91,0,0,0,35,6.631V1.888ZM2.158,6.631v-2.6H5.223V9.16a12.146,12.146,0,0,0,.3,2.69A5.754,5.754,0,0,1,2.158,6.631Zm18.454,7.229L17.5,12.237l-3.112,1.623.594-3.437L12.464,7.989l3.48-.5L17.5,4.359l1.556,3.128,3.48.5-2.518,2.435Zm12.23-7.229a5.753,5.753,0,0,1-3.366,5.218,12.113,12.113,0,0,0,.3-2.69V4.029h3.064Zm0,0"/>
</svg>
