<svg width="28" height="28" viewBox="0 0 28 28" fill="none" xmlns="http://www.w3.org/2000/svg">
<path d="M13.9996 27.9993C21.7314 27.9993 27.9993 21.7314 27.9993 13.9996C27.9993 6.26785 21.7314 0 13.9996 0C6.26785 0 0 6.26785 0 13.9996C0 21.7314 6.26785 27.9993 13.9996 27.9993Z" fill="#FB5266"/>
<path d="M22.7358 19.4828H22.4364V10.9138C22.4364 9.85852 21.5594 9 20.4814 9H7.51859C6.4406 9 5.5636 9.85852 5.5636 10.9138V19.4828H5.26419C5.11829 19.4828 5 19.5986 5 19.7414C5 19.8842 5.11829 20 5.26419 20H7.51859C7.66449 20 7.78278 19.8842 7.78278 19.7414C7.78278 19.5986 7.66449 19.4828 7.51859 19.4828H7.21918V18.8966H20.7808V19.4828H20.4814C20.3355 19.4828 20.2172 19.5986 20.2172 19.7414C20.2172 19.8842 20.3355 20 20.4814 20H22.7358C22.8817 20 23 19.8842 23 19.7414C23 19.5986 22.8817 19.4828 22.7358 19.4828ZM9.50881 10.6207V11.4828H8.62818V10.6207H9.50881ZM10.9178 10.6207V11.4828H10.0372V10.6207H10.9178ZM12.3268 10.6207V11.4828H11.4462V10.6207H12.3268ZM13.7358 10.6207V11.4828H12.8552V10.6207H13.7358ZM15.1448 10.6207V11.4828H14.2642V10.6207H15.1448ZM16.5538 10.6207V11.4828H15.6732V10.6207H16.5538ZM17.9628 10.6207V11.4828H17.0822V10.6207H17.9628ZM19.3718 10.6207V11.4828H18.4912V10.6207H19.3718ZM20.4814 10.6207C20.6465 10.6207 20.7808 10.7522 20.7808 10.9138V11.4828H19.9002V10.6207H20.4814ZM19.3718 14.2414H18.4912V13.3793H19.3718V14.2414ZM19.9002 13.3793H20.7808V14.2414H19.9002V13.3793ZM17.9628 14.2414H17.0822V13.3793H17.9628V14.2414ZM16.5538 14.2414H15.6732V13.3793H16.5538V14.2414ZM12.8552 14.7586H13.7358V15.6207H12.8552V14.7586ZM12.3268 15.6207H11.4462V14.7586H12.3268V15.6207ZM14.2642 14.7586H15.1448V15.6207H14.2642V14.7586ZM15.6732 14.7586H16.5538V15.6207H15.6732V14.7586ZM15.1448 14.2414H14.2642V13.3793H15.1448V14.2414ZM13.7358 14.2414H12.8552V13.3793H13.7358V14.2414ZM12.3268 14.2414H11.4462V13.3793H12.3268V14.2414ZM10.9178 14.2414H10.0372V13.3793H10.9178V14.2414ZM9.50881 14.2414H8.62818V13.3793H9.50881V14.2414ZM8.0998 14.2414H7.21918V13.3793H8.0998V14.2414ZM8.0998 14.7586V15.6207H7.21918V14.7586H8.0998ZM8.62818 14.7586H9.50881V15.6207H8.62818V14.7586ZM10.0372 14.7586H10.9178V15.6207H10.0372V14.7586ZM10.9178 16.1379V17H10.0372V16.1379H10.9178ZM11.4462 16.1379H12.3268V17H11.4462V16.1379ZM12.8552 16.1379H13.7358V17H12.8552V16.1379ZM14.2642 16.1379H15.1448V17H14.2642V16.1379ZM15.6732 16.1379H16.5538V17H15.6732V16.1379ZM17.0822 16.1379H17.9628V17H17.0822V16.1379ZM17.0822 15.6207V14.7586H17.9628V15.6207H17.0822ZM18.4912 14.7586H19.3718V15.6207H18.4912V14.7586ZM19.9002 14.7586H20.7808V15.6207H19.9002V14.7586ZM20.7808 12.8621H19.9002V12H20.7808V12.8621ZM19.3718 12.8621H18.4912V12H19.3718V12.8621ZM17.9628 12.8621H17.0822V12H17.9628V12.8621ZM16.5538 12.8621H15.6732V12H16.5538V12.8621ZM15.1448 12.8621H14.2642V12H15.1448V12.8621ZM13.7358 12.8621H12.8552V12H13.7358V12.8621ZM12.3268 12.8621H11.4462V12H12.3268V12.8621ZM10.9178 12.8621H10.0372V12H10.9178V12.8621ZM9.50881 12.8621H8.62818V12H9.50881V12.8621ZM8.0998 12.8621H7.21918V12H8.0998V12.8621ZM7.21918 16.1379H8.0998V17H7.21918V16.1379ZM8.62818 16.1379H9.50881V17H8.62818V16.1379ZM9.50881 17.5172V18.3793H8.62818V17.5172H9.50881ZM10.0372 17.5172H10.9178V18.3793H10.0372V17.5172ZM11.4462 17.5172H12.3268V18.3793H11.4462V17.5172ZM12.8552 17.5172H13.7358V18.3793H12.8552V17.5172ZM14.2642 17.5172H15.1448V18.3793H14.2642V17.5172ZM15.6732 17.5172H16.5538V18.3793H15.6732V17.5172ZM17.0822 17.5172H17.9628V18.3793H17.0822V17.5172ZM18.4912 17.5172H19.3718V18.3793H18.4912V17.5172ZM18.4912 17V16.1379H19.3718V17H18.4912ZM19.9002 16.1379H20.7808V17H19.9002V16.1379ZM8.0998 11.4828H7.21918V10.9138C7.21918 10.7522 7.35349 10.6207 7.51859 10.6207H8.0998V11.4828ZM7.21918 17.5172H8.0998V18.3793H7.21918V17.5172ZM19.9002 18.3793V17.5172H20.7808V18.3793H19.9002ZM21.3092 10.9138C21.3092 10.467 20.9379 10.1034 20.4814 10.1034H7.51859C7.06214 10.1034 6.6908 10.467 6.6908 10.9138V19.4828H6.09198V10.9138C6.09198 10.1437 6.73195 9.51724 7.51859 9.51724H20.4814C21.2681 9.51724 21.908 10.1437 21.908 10.9138V19.4828H21.3092V10.9138Z" fill="white"/>
</svg>
