<svg width="59" height="58" viewBox="0 0 59 58" fill="none" xmlns="http://www.w3.org/2000/svg">
<path d="M12.574 35.7569H11.6069C5.73162 35.7569 0.96875 30.9941 0.96875 25.1188C0.96875 19.2435 5.73162 14.4806 11.6069 14.4806C12.21 14.4776 12.812 14.5294 13.4057 14.6354C14.7859 11.7025 17.6815 9.77956 20.9201 9.6451C22.8232 3.75663 28.7284 0.128729 34.8413 1.09252C40.9541 2.05631 45.4566 7.32516 45.4556 13.5135C45.4749 13.8517 45.4749 14.1908 45.4556 14.529C45.7844 14.529 46.1326 14.4806 46.4227 14.4806C52.298 14.4806 57.0609 19.2435 57.0609 25.1188C57.0609 30.9941 52.298 35.7569 46.4227 35.7569H12.574Z" fill="#E8EDFC"/>
<path d="M46.4219 14.4804C46.0834 14.4804 45.7352 14.4804 45.4548 14.5287C45.474 14.1905 45.474 13.8515 45.4548 13.5133C45.4548 10.1789 44.1302 6.98106 41.7724 4.62328C39.4146 2.2655 36.2168 0.940918 32.8824 0.940918C32.4009 0.94524 31.9199 0.974291 31.4414 1.02796C37.7761 1.76877 42.5525 7.13543 42.5534 13.5133C42.5727 13.8515 42.5727 14.1905 42.5534 14.5287C42.8823 14.5287 43.2304 14.4804 43.5205 14.4804C49.0063 14.498 53.5791 18.6842 54.0801 24.147C54.581 29.6099 50.8458 34.5579 45.4548 35.573V35.7567H46.4219C52.2972 35.7567 57.06 30.9938 57.06 25.1185C57.06 19.2433 52.2972 14.4804 46.4219 14.4804Z" fill="#CAD9FC"/>
<path d="M39.4865 8.82288C39.2038 8.82289 38.9352 8.69922 38.7515 8.48439C37.2837 6.76831 35.1394 5.77917 32.8812 5.7765C32.3471 5.7765 31.9141 5.34351 31.9141 4.80939C31.9141 4.27527 32.3471 3.84229 32.8812 3.84229C35.7032 3.8425 38.3844 5.07534 40.2215 7.21748C40.3882 7.41241 40.4707 7.66559 40.4507 7.92132C40.4308 8.17706 40.3101 8.41439 40.1151 8.5811C39.9413 8.73441 39.7182 8.82021 39.4865 8.82288Z" fill="white"/>
<path d="M29.0117 57.0327C39.16 57.0327 47.3867 48.8059 47.3867 38.6577C47.3867 28.5095 39.16 20.2827 29.0117 20.2827C18.8635 20.2827 10.6367 28.5095 10.6367 38.6577C10.6367 48.8059 18.8635 57.0327 29.0117 57.0327Z" fill="#CAD9FC"/>
<path d="M29.0132 20.2827C28.5199 20.2827 28.0461 20.2827 27.5625 20.3601C37.0181 21.2305 44.2531 29.1621 44.2531 38.6577C44.2531 48.1533 37.0181 56.0849 27.5625 56.9553C28.0461 56.9553 28.5296 57.0327 29.0132 57.0327C39.1614 57.0327 47.3882 48.8059 47.3882 38.6577C47.3882 28.5095 39.1614 20.2827 29.0132 20.2827Z" fill="#A4C2F7"/>
<path d="M30.5243 38.2955L33.9176 34.6846C34.268 34.2499 34.2444 33.6017 33.8635 33.197C33.4825 32.7922 32.8725 32.7671 32.4633 33.1395L29.0648 36.7449L25.6664 33.1395C25.2572 32.7671 24.6472 32.7922 24.2662 33.197C23.8852 33.6017 23.8617 34.2499 24.2121 34.6846L27.6054 38.2955L24.2121 41.9064C23.9178 42.1742 23.7896 42.5947 23.8802 42.995C23.9708 43.3953 24.265 43.7079 24.6418 43.8042C25.0185 43.9005 25.4143 43.7643 25.6664 43.4515L29.0648 39.8461L32.4633 43.4515C32.8725 43.8239 33.4825 43.7988 33.8635 43.3941C34.2444 42.9893 34.268 42.3412 33.9176 41.9064L30.5243 38.2955Z" fill="white"/>
<path d="M10.5602 34.9924C6.09099 33.2062 3.37776 28.6419 3.94405 23.8623C4.51035 19.0828 8.21509 15.2789 12.978 14.5865C9.15212 14.131 5.37896 15.7797 3.11412 18.8967C0.849286 22.0136 0.446794 26.1115 2.06192 29.6095C3.67705 33.1076 7.05732 35.4589 10.8987 35.7564" fill="white"/>
<path d="M2.90139 17.3813L4.35205 18.6676C2.78872 20.4524 1.92919 22.7456 1.93429 25.1182H7.69929e-05C-0.0102658 22.2714 1.02176 19.5194 2.90139 17.3813Z" fill="white"/>
<path d="M38.7515 8.48439C38.9352 8.69922 39.2038 8.82289 39.4865 8.82288C39.7182 8.82021 39.9413 8.73441 40.1151 8.5811C40.3101 8.41439 40.4308 8.17706 40.4507 7.92132C40.4707 7.66559 40.3882 7.41241 40.2215 7.21748C38.3844 5.07534 35.7032 3.8425 32.8812 3.84229C32.3471 3.84229 31.9141 4.27527 31.9141 4.80939C31.9141 5.34351 32.3471 5.7765 32.8812 5.7765C35.1394 5.77917 37.2837 6.76831 38.7515 8.48439Z" fill="#00317C" fill-opacity="0.5"/>
<path d="M1.67023 22.2853C2.20435 22.2853 2.63734 21.8523 2.63734 21.3182C2.63734 20.7841 2.20435 20.3511 1.67023 20.3511C1.13611 20.3511 0.703125 20.7841 0.703125 21.3182C0.703125 21.8523 1.13611 22.2853 1.67023 22.2853Z" fill="#00317C" fill-opacity="0.5"/>
<path d="M46.4211 13.5132C46.4077 6.97699 41.7269 1.38345 35.2954 0.218194C28.8639 -0.947065 22.5182 2.64866 20.2125 8.76467C17.1319 9.09942 14.4021 10.9001 12.8818 13.6002C12.4583 13.5471 12.0321 13.518 11.6053 13.5132C8.28407 13.4978 5.11543 14.9061 2.90132 17.3816C2.72648 17.5792 2.63999 17.8397 2.6619 18.1027C2.68381 18.3656 2.81223 18.6082 3.01737 18.7742C3.42716 19.0743 3.99488 19.029 4.35197 18.6678C6.19766 16.6061 8.83811 15.4337 11.6053 15.4474C13.5134 15.4412 15.3796 16.0072 16.963 17.0721C17.1231 17.1797 17.3117 17.2369 17.5046 17.2365C17.8263 17.237 18.1272 17.0775 18.3073 16.811C18.4575 16.5968 18.5145 16.3309 18.4653 16.0739C18.4161 15.817 18.2649 15.5909 18.0462 15.4474C17.0769 14.7963 16.0136 14.2973 14.8934 13.9677C16.2807 11.945 18.5448 10.7 20.9959 10.6118H21.2763C22.9515 10.6048 24.5825 11.1485 25.9184 12.1592C26.3457 12.4797 26.9519 12.3931 27.2724 11.9658C27.5928 11.5385 27.5062 10.9323 27.0789 10.6118C25.6894 9.56534 24.0412 8.91677 22.3111 8.73566C24.566 3.76004 29.9855 1.03055 35.3257 2.18103C40.6659 3.33151 44.4808 8.05045 44.4868 13.5132V13.6776C42.8754 13.9387 41.3386 14.5421 39.9801 15.4474C39.5368 15.7465 39.4199 16.3483 39.719 16.7916C40.0181 17.235 40.62 17.3519 41.0633 17.0528C42.6488 15.9947 44.5149 15.4355 46.4211 15.4474C51.4531 15.4659 55.6301 19.3401 56.0265 24.3566C56.4228 29.373 52.9061 33.8552 47.9394 34.6637C46.0533 25.7155 38.158 19.3109 29.0132 19.3109C19.8683 19.3109 11.973 25.7155 10.0869 34.6637C5.39302 33.9176 1.93706 29.8713 1.93421 25.1184C1.93421 24.5843 1.50122 24.1513 0.967105 24.1513C0.432988 24.1513 0 24.5843 0 25.1184C0.000864795 30.8253 4.15073 35.6845 9.7871 36.5786C9.70914 37.269 9.6704 37.9632 9.67105 38.6579C9.67105 49.3402 18.3308 58 29.0132 58C39.6955 58 48.3553 49.3402 48.3553 38.6579C48.3559 37.9632 48.3172 37.269 48.2392 36.5786C54.2151 35.6248 58.4549 30.2392 57.9794 24.2064C57.5039 18.1737 52.4725 13.5189 46.4211 13.5132ZM29.0132 56.0658C19.399 56.0658 11.6053 48.272 11.6053 38.6579C11.6053 29.0438 19.399 21.25 29.0132 21.25C38.6273 21.25 46.4211 29.0438 46.4211 38.6579C46.4211 48.272 38.6273 56.0658 29.0132 56.0658Z" fill="#00307A" fill-opacity="0.5"/>
<path d="M34.7709 33.8795C34.7705 33.4375 34.6041 33.0137 34.3083 32.7014C33.6836 32.0748 32.7041 32.0748 32.0794 32.7014L28.9883 35.9689L25.8972 32.7014C25.2725 32.0748 24.293 32.0748 23.6683 32.7014C23.0533 33.3523 23.0533 34.4067 23.6683 35.0576L26.7593 38.325L23.6683 41.5925C23.0533 42.2434 23.0533 43.2978 23.6683 43.9487C24.293 44.5753 25.2725 44.5753 25.8972 43.9487L28.9883 40.6812L32.0794 43.9487C32.4725 44.3947 33.0646 44.5783 33.6234 44.4274C34.1822 44.2766 34.6185 43.8154 34.7612 43.2247C34.9039 42.634 34.7302 42.0081 34.3083 41.5925L31.2172 38.325L34.3083 35.0576C34.6041 34.7452 34.7705 34.3215 34.7709 33.8795ZM33.5671 34.274L30.1027 37.9305C30.0032 38.0348 29.9472 38.1769 29.9472 38.325C29.9472 38.4732 30.0032 38.6152 30.1027 38.7196L33.5671 42.3761C33.6666 42.4804 33.7226 42.6224 33.7226 42.7706C33.7226 42.9188 33.6666 43.0608 33.5671 43.1652C33.4684 43.2704 33.334 43.3295 33.1938 43.3295C33.0537 43.3295 32.9193 43.2704 32.8206 43.1652L29.3615 39.5031C29.2628 39.3979 29.1284 39.3387 28.9883 39.3387C28.8481 39.3387 28.7137 39.3979 28.615 39.5031L25.156 43.1652C25.0573 43.2704 24.9229 43.3295 24.7827 43.3295C24.6426 43.3295 24.5082 43.2704 24.4095 43.1652C24.31 43.0608 24.254 42.9188 24.254 42.7706C24.254 42.6224 24.31 42.4804 24.4095 42.3761L27.8738 38.7196C27.9733 38.6152 28.0293 38.4732 28.0293 38.325C28.0293 38.1769 27.9733 38.0348 27.8738 37.9305L24.4095 34.274C24.31 34.1697 24.254 34.0277 24.254 33.8795C24.254 33.7313 24.31 33.5893 24.4095 33.4849C24.5082 33.3797 24.6426 33.3206 24.7827 33.3206C24.9229 33.3206 25.0573 33.3797 25.156 33.4849L28.615 37.147C28.7137 37.2522 28.8481 37.3113 28.9883 37.3113C29.1284 37.3113 29.2628 37.2522 29.3615 37.147L32.8206 33.4849C32.9193 33.3797 33.0537 33.3206 33.1938 33.3206C33.334 33.3206 33.4684 33.3797 33.5671 33.4849C33.6666 33.5893 33.7226 33.7313 33.7226 33.8795C33.7226 34.0277 33.6666 34.1697 33.5671 34.274Z" fill="#00317C" fill-opacity="0.5"/>
</svg>
