<svg width="30" height="30" viewBox="0 0 30 30" fill="none" xmlns="http://www.w3.org/2000/svg">
<path d="M15 30C23.2843 30 30 23.2843 30 15C30 6.71573 23.2843 0 15 0C6.71573 0 0 6.71573 0 15C0 23.2843 6.71573 30 15 30Z" fill="#FFD93B"/>
<path d="M29.9988 14.9998C29.9988 23.2873 23.2816 29.9998 14.9988 29.9998C10.2832 29.9998 6.07382 27.8248 3.32227 24.417C5.8957 26.4982 9.17226 27.7404 12.7394 27.7404C21.0222 27.7404 27.7394 21.0279 27.7394 12.7404C27.7394 9.17324 26.4972 5.89668 24.416 3.32324C27.8191 6.0748 29.9988 10.2842 29.9988 14.9998Z" fill="#F4C534"/>
<path d="M21.7111 20.1799C21.7111 20.6308 21.3464 20.9955 20.8955 20.9955H9.10078C8.65453 20.9955 8.28516 20.6308 8.28516 20.1799C8.28516 19.7289 8.65453 19.3643 9.10078 19.3643H20.8955C21.3474 19.3652 21.7111 19.7289 21.7111 20.1799Z" fill="#3E4347"/>
<path d="M10.2252 14.3694C11.4596 14.3694 12.4602 13.3688 12.4602 12.1344C12.4602 10.9001 11.4596 9.89941 10.2252 9.89941C8.99088 9.89941 7.99023 10.9001 7.99023 12.1344C7.99023 13.3688 8.99088 14.3694 10.2252 14.3694Z" fill="#3E4347"/>
<path d="M11.4776 10.9943C11.2841 10.7342 10.9909 10.6249 10.8226 10.7501C10.6544 10.8753 10.6749 11.1876 10.8684 11.4476C11.0619 11.7076 11.3551 11.817 11.5234 11.6918C11.6916 11.5666 11.6711 11.2543 11.4776 10.9943Z" fill="#5A5F63"/>
<path d="M19.7702 14.3694C21.0045 14.3694 22.0052 13.3688 22.0052 12.1344C22.0052 10.9001 21.0045 9.89941 19.7702 9.89941C18.5358 9.89941 17.5352 10.9001 17.5352 12.1344C17.5352 13.3688 18.5358 14.3694 19.7702 14.3694Z" fill="#3E4347"/>
<path d="M21.0225 10.9968C20.829 10.7367 20.5357 10.6275 20.3675 10.7526C20.1993 10.8778 20.2198 11.1901 20.4133 11.4501C20.6068 11.7101 20.9 11.8194 21.0683 11.6942C21.2365 11.569 21.216 11.2568 21.0225 10.9968Z" fill="#5A5F63"/>
</svg>
