<svg width="29" height="18" viewBox="0 0 29 18" fill="none" xmlns="http://www.w3.org/2000/svg">
<path d="M28.5744 17.1536H28.092V3.13166C28.092 1.40485 26.679 0 24.9423 0H4.05773C2.32096 0 0.908023 1.40485 0.908023 3.13166V17.1536H0.425636C0.190571 17.1536 0 17.3431 0 17.5768C0 17.8105 0.190571 18 0.425636 18H4.05773C4.29279 18 4.48337 17.8105 4.48337 17.5768C4.48337 17.3431 4.29279 17.1536 4.05773 17.1536H3.57534V16.1944H25.4247V17.1536H24.9423C24.7072 17.1536 24.5166 17.3431 24.5166 17.5768C24.5166 17.8105 24.7072 18 24.9423 18H28.5744C28.8094 18 29 17.8105 29 17.5768C29 17.3431 28.8094 17.1536 28.5744 17.1536ZM7.26419 2.65204V4.0627H5.8454V2.65204H7.26419ZM9.53425 2.65204V4.0627H8.11546V2.65204H9.53425ZM11.8043 2.65204V4.0627H10.3855V2.65204H11.8043ZM14.0744 2.65204V4.0627H12.6556V2.65204H14.0744ZM16.3444 2.65204V4.0627H14.9256V2.65204H16.3444ZM18.6145 2.65204V4.0627H17.1957V2.65204H18.6145ZM20.8845 2.65204V4.0627H19.4658V2.65204H20.8845ZM23.1546 2.65204V4.0627H21.7358V2.65204H23.1546ZM24.9423 2.65204C25.2083 2.65204 25.4247 2.86719 25.4247 3.13166V4.0627H24.0059V2.65204H24.9423ZM23.1546 8.5768H21.7358V7.16614H23.1546V8.5768ZM24.0059 7.16614H25.4247V8.5768H24.0059V7.16614ZM20.8845 8.5768H19.4658V7.16614H20.8845V8.5768ZM18.6145 8.5768H17.1957V7.16614H18.6145V8.5768ZM12.6556 9.4232H14.0744V10.8339H12.6556V9.4232ZM11.8043 10.8339H10.3855V9.4232H11.8043V10.8339ZM14.9256 9.4232H16.3444V10.8339H14.9256V9.4232ZM17.1957 9.4232H18.6145V10.8339H17.1957V9.4232ZM16.3444 8.5768H14.9256V7.16614H16.3444V8.5768ZM14.0744 8.5768H12.6556V7.16614H14.0744V8.5768ZM11.8043 8.5768H10.3855V7.16614H11.8043V8.5768ZM9.53425 8.5768H8.11546V7.16614H9.53425V8.5768ZM7.26419 8.5768H5.8454V7.16614H7.26419V8.5768ZM4.99413 8.5768H3.57534V7.16614H4.99413V8.5768ZM4.99413 9.4232V10.8339H3.57534V9.4232H4.99413ZM5.8454 9.4232H7.26419V10.8339H5.8454V9.4232ZM8.11546 9.4232H9.53425V10.8339H8.11546V9.4232ZM9.53425 11.6803V13.0909H8.11546V11.6803H9.53425ZM10.3855 11.6803H11.8043V13.0909H10.3855V11.6803ZM12.6556 11.6803H14.0744V13.0909H12.6556V11.6803ZM14.9256 11.6803H16.3444V13.0909H14.9256V11.6803ZM17.1957 11.6803H18.6145V13.0909H17.1957V11.6803ZM19.4658 11.6803H20.8845V13.0909H19.4658V11.6803ZM19.4658 10.8339V9.4232H20.8845V10.8339H19.4658ZM21.7358 9.4232H23.1546V10.8339H21.7358V9.4232ZM24.0059 9.4232H25.4247V10.8339H24.0059V9.4232ZM25.4247 6.31975H24.0059V4.90909H25.4247V6.31975ZM23.1546 6.31975H21.7358V4.90909H23.1546V6.31975ZM20.8845 6.31975H19.4658V4.90909H20.8845V6.31975ZM18.6145 6.31975H17.1957V4.90909H18.6145V6.31975ZM16.3444 6.31975H14.9256V4.90909H16.3444V6.31975ZM14.0744 6.31975H12.6556V4.90909H14.0744V6.31975ZM11.8043 6.31975H10.3855V4.90909H11.8043V6.31975ZM9.53425 6.31975H8.11546V4.90909H9.53425V6.31975ZM7.26419 6.31975H5.8454V4.90909H7.26419V6.31975ZM4.99413 6.31975H3.57534V4.90909H4.99413V6.31975ZM3.57534 11.6803H4.99413V13.0909H3.57534V11.6803ZM5.8454 11.6803H7.26419V13.0909H5.8454V11.6803ZM7.26419 13.9373V15.348H5.8454V13.9373H7.26419ZM8.11546 13.9373H9.53425V15.348H8.11546V13.9373ZM10.3855 13.9373H11.8043V15.348H10.3855V13.9373ZM12.6556 13.9373H14.0744V15.348H12.6556V13.9373ZM14.9256 13.9373H16.3444V15.348H14.9256V13.9373ZM17.1957 13.9373H18.6145V15.348H17.1957V13.9373ZM19.4658 13.9373H20.8845V15.348H19.4658V13.9373ZM21.7358 13.9373H23.1546V15.348H21.7358V13.9373ZM21.7358 13.0909V11.6803H23.1546V13.0909H21.7358ZM24.0059 11.6803H25.4247V13.0909H24.0059V11.6803ZM4.99413 4.0627H3.57534V3.13166C3.57534 2.86719 3.79174 2.65204 4.05773 2.65204H4.99413V4.0627ZM3.57534 13.9373H4.99413V15.348H3.57534V13.9373ZM24.0059 15.348V13.9373H25.4247V15.348H24.0059ZM26.2759 3.13166C26.2759 2.40049 25.6777 1.80564 24.9423 1.80564H4.05773C3.32234 1.80564 2.72407 2.40049 2.72407 3.13166V17.1536H1.7593V3.13166C1.7593 1.87155 2.79036 0.846395 4.05773 0.846395H24.9423C26.2096 0.846395 27.2407 1.87155 27.2407 3.13166V17.1536H26.2759V3.13166Z" fill="#FB5266"/>
</svg>
