<svg xmlns="http://www.w3.org/2000/svg" width="35" height="25" viewBox="0 0 35 25">
  <g id="Group_3430" dataname="Group 3430" transform="translate(-1865 -772)">
    <g id="Group_3429" dataname="Group 3429">
      <g id="Group_3427" dataname="Group 3427">
        <g id="Group_3426" dataname="Group 3426">
          <path id="Polygon_11" dataname="Polygon 11" d="M12.5,0,25,24H0Z" transform="translate(1900 772) rotate(90)" fill="#43093c"/>
        </g>
        <g id="Group_3425" dataname="Group 3425">
          <circle id="Ellipse_983" dataname="Ellipse 983" cx="12.5" cy="12.5" r="12.5" transform="translate(1865 772)" fill="#43093c"/>
        </g>
      </g>
    </g>
    <g id="Group_3428" dataname="Group 3428">
      <g id="Group_2341" dataname="Group 2341" transform="translate(1871.899 778.96)">
        <g id="bar-chart">
          <g id="Group_494" dataname="Group 494">
            <g id="Group_493" dataname="Group 493">
              <path id="Path_167" dataname="Path 167" d="M41.081,0a1.148,1.148,0,0,0-1.12,1.172,1.2,1.2,0,0,0,.225.7L38.359,3.945a1.062,1.062,0,0,0-.265-.037,1.078,1.078,0,0,0-.62.2l-1.3-1.022a1.2,1.2,0,0,0,.056-.347,1.121,1.121,0,1,0-2.24,0,1.2,1.2,0,0,0,.056.347l-1.3,1.022a1.078,1.078,0,0,0-.62-.2,1.174,1.174,0,1,0,1.12,1.172,1.2,1.2,0,0,0-.056-.347l1.3-1.022a1.073,1.073,0,0,0,1.24,0l1.3,1.022a1.2,1.2,0,0,0-.056.347,1.121,1.121,0,1,0,2.24,0,1.2,1.2,0,0,0-.225-.7l1.827-2.075a1.062,1.062,0,0,0,.265.037A1.148,1.148,0,0,0,42.2,1.172,1.148,1.148,0,0,0,41.081,0Z" transform="translate(-31)" fill="#bf8fba"/>
            </g>
          </g>
          <g id="Group_496" dataname="Group 496" transform="translate(2.952 5.678)">
            <g id="Group_495" dataname="Group 495">
              <path id="Path_168" dataname="Path 168" d="M152.954,240h-1.563a.391.391,0,0,0-.391.391v5.133h2.345v-5.133A.391.391,0,0,0,152.954,240Z" transform="translate(-151 -240)" fill="#bf8fba"/>
            </g>
          </g>
          <g id="Group_498" dataname="Group 498" transform="translate(5.904 7.241)">
            <g id="Group_497" dataname="Group 497">
              <path id="Path_169" dataname="Path 169" d="M272.954,300h-1.563a.391.391,0,0,0-.391.391v3.57h2.345v-3.57A.391.391,0,0,0,272.954,300Z" transform="translate(-271 -300)" fill="#bf8fba"/>
            </g>
          </g>
          <g id="Group_500" dataname="Group 500" transform="translate(8.856 4.114)">
            <g id="Group_499" dataname="Group 499">
              <path id="Path_170" dataname="Path 170" d="M392.954,180h-1.563a.391.391,0,0,0-.391.391v6.7h2.345v-6.7A.391.391,0,0,0,392.954,180Z" transform="translate(-391 -180)" fill="#bf8fba"/>
            </g>
          </g>
          <g id="Group_502" dataname="Group 502" transform="translate(0 8.022)">
            <g id="Group_501" dataname="Group 501">
              <path id="Path_171" dataname="Path 171" d="M32.954,330H31.391a.391.391,0,0,0-.391.391v2.788h2.345v-2.788A.391.391,0,0,0,32.954,330Z" transform="translate(-31 -330)" fill="#bf8fba"/>
            </g>
          </g>
        </g>
      </g>
    </g>
  </g>
</svg>
