<svg width="14" height="14" viewBox="0 0 14 14" fill="none" xmlns="http://www.w3.org/2000/svg">
<path d="M7 0C3.13414 0 0 3.134 0 7C0 10.866 3.13414 14 7 14C10.8659 14 14 10.866 14 7C14 3.134 10.8659 0 7 0ZM7.80548 9.32507C7.15797 9.32507 6.54899 8.97504 6.34046 8.5776C6.34046 8.5776 5.99214 9.95898 5.91896 10.2255C5.65929 11.1679 4.89549 12.1106 4.83605 12.1878C4.79466 12.2415 4.70314 12.2248 4.69369 12.1534C4.6775 12.0334 4.48243 10.8445 4.71188 9.87491C4.8266 9.38795 5.48284 6.60743 5.48284 6.60743C5.48284 6.60743 5.29179 6.22459 5.29179 5.65858C5.29179 4.76988 5.80681 4.10648 6.44816 4.10648C6.99341 4.10648 7.25665 4.51595 7.25665 5.00677C7.25665 5.55503 6.90776 6.37483 6.72773 7.13449C6.57721 7.77054 7.0464 8.28943 7.67372 8.28943C8.8099 8.28943 9.57457 6.83028 9.57457 5.10116C9.57457 3.78723 8.69003 2.80329 7.07992 2.80329C5.26142 2.80329 4.12739 4.15975 4.12739 5.67519C4.12739 6.19738 4.28178 6.56618 4.52325 6.85105C4.63396 6.9821 4.64972 7.0348 4.60947 7.18519C4.5804 7.29561 4.51495 7.56115 4.48716 7.66613C4.4472 7.81823 4.32432 7.87237 4.18668 7.81637C3.3494 7.4745 2.95898 6.55701 2.95898 5.52567C2.95898 3.82232 4.39536 1.77983 7.24448 1.77983C9.53389 1.77983 11.0407 3.43634 11.0407 5.21487C11.0409 7.56773 9.73283 9.32507 7.80548 9.32507Z" fill="#022A54"/>
</svg>
