<svg xmlns="http://www.w3.org/2000/svg" width="35" height="35" viewBox="0 0 35 35">
  <path id="Exclusion_8" dataname="Exclusion 8" d="M-1601.5-5339a17.388,17.388,0,0,1-12.375-5.125A17.384,17.384,0,0,1-1619-5356.5a17.385,17.385,0,0,1,5.126-12.375A17.384,17.384,0,0,1-1601.5-5374a17.382,17.382,0,0,1,12.374,5.126A17.386,17.386,0,0,1-1584-5356.5a17.385,17.385,0,0,1-5.125,12.374A17.386,17.386,0,0,1-1601.5-5339Zm-2.5-18.063a5.006,5.006,0,0,0-5,5v3h16v-3a5.006,5.006,0,0,0-5-5Zm3.5-9.936a4.5,4.5,0,0,0-4.5,4.5,4.5,4.5,0,0,0,4.5,4.5,4.506,4.506,0,0,0,4.5-4.5A4.5,4.5,0,0,0-1600.5-5367Z" transform="translate(1619.001 5374)" />
</svg>
