<svg xmlns="http://www.w3.org/2000/svg" width="29" height="29" viewBox="0 0 29 29">
  <g id="Group_752" dataname="Group 752" transform="translate(-0.373 0.391)">
    <path id="Exclusion_8" dataname="Exclusion 8" d="M14.5,0A14.5,14.5,0,1,1,0,14.5,14.5,14.5,0,0,1,14.5,0Z" transform="translate(0.373 -0.391)" />
    <g id="referee-whistle" transform="translate(5.982 9.145)">
      <g id="Group_394" dataname="Group 394" transform="translate(0 0)" fill="#FFFFFF">
        <path id="Path_155" dataname="Path 155" d="M7.5,12.917a1.768,1.768,0,0,1-1.7,1.828,1.833,1.833,0,0,1,0-3.656A1.766,1.766,0,0,1,7.5,12.917ZM17.316,9.09l-6.862,2.263a5.627,5.627,0,0,1,.218,1.563,5.109,5.109,0,0,1-4.9,5.291A4.986,4.986,0,0,1,1.03,14.258a1.39,1.39,0,0,1,0-2.685A4.986,4.986,0,0,1,5.769,7.626h.747v.2H9.091v-.2h8.224V9.09ZM.868,12.916a5.979,5.979,0,0,1,.046-.7.826.826,0,0,0,0,1.4A5.978,5.978,0,0,1,.868,12.916Zm7.155,0A2.314,2.314,0,0,0,5.8,10.522a2.313,2.313,0,0,0-2.217,2.394A2.314,2.314,0,0,0,5.8,15.31,2.313,2.313,0,0,0,8.022,12.916Z" transform="translate(0 -7.625)" fill="#FFFFFF"/>
      </g>
    </g>
  </g>
</svg>
