<svg width="18" height="14" viewBox="0 0 18 14" fill="none" xmlns="http://www.w3.org/2000/svg">
<path d="M14.1428 12.7143C15.7207 12.7143 16.9999 11.4351 16.9999 9.85714C16.9999 8.27919 15.7207 7 14.1428 7C12.5648 7 11.2856 8.27919 11.2856 9.85714C11.2856 11.4351 12.5648 12.7143 14.1428 12.7143Z" stroke="#246BFD" stroke-width="1.14286" stroke-linecap="round" stroke-linejoin="round"/>
<path d="M1 12.7147V4.14328C1 3.38551 1.30102 2.65879 1.83684 2.12297C2.37266 1.58715 3.09938 1.28613 3.85714 1.28613C4.6149 1.28613 5.34163 1.58715 5.87745 2.12297C6.41327 2.65879 6.71429 3.38551 6.71429 4.14328V12.7147" stroke="#246BFD" stroke-width="1.14286" stroke-linecap="round" stroke-linejoin="round"/>
<path d="M1 8.14258H6.71429" stroke="#246BFD" stroke-width="1.14286" stroke-linecap="round" stroke-linejoin="round"/>
<path d="M17 7V12.7143" stroke="#246BFD" stroke-width="1.14286" stroke-linecap="round" stroke-linejoin="round"/>
</svg>
