<svg xmlns="http://www.w3.org/2000/svg" width="11.274" height="12.959" viewBox="0 0 11.274 12.959">
  <g id="Group_751" dataname="Group 751" transform="translate(-1080 -480.021)">
    <g id="reload" transform="translate(1080 480.021)">
      <path id="Path_146" dataname="Path 146" d="M36.835,12.923a5.668,5.668,0,0,1,.585-11.3V.1A.109.109,0,0,1,37.6.023l3.14,2.306a.1.1,0,0,1,0,.156L37.6,4.791a.11.11,0,0,1-.177-.077V3.192a4.105,4.105,0,1,0,4.119,4.76.781.781,0,0,1,1.543.236A5.676,5.676,0,0,1,36.835,12.923Z" transform="translate(-31.817 0)" fill="#6b7281"/>
    </g>
  </g>
</svg>
