<svg width="30" height="30" viewBox="0 0 30 30" fill="none" xmlns="http://www.w3.org/2000/svg">
<path d="M15 30C23.2843 30 30 23.2843 30 15C30 6.71573 23.2843 0 15 0C6.71573 0 0 6.71573 0 15C0 23.2843 6.71573 30 15 30Z" fill="#FFD93B"/>
<path d="M29.9988 14.9998C29.9988 23.2873 23.2816 29.9998 14.9988 29.9998C10.2832 29.9998 6.07382 27.8248 3.32227 24.417C5.8957 26.4982 9.17226 27.7404 12.7394 27.7404C21.0222 27.7404 27.7394 21.0279 27.7394 12.7404C27.7394 9.17324 26.4972 5.89668 24.416 3.32324C27.8191 6.0748 29.9988 10.2842 29.9988 14.9998Z" fill="#F4C534"/>
<path d="M12.9506 14.564C12.9506 16.1644 11.4346 17.4581 9.56805 17.4581C7.70149 17.4581 6.18555 16.1644 6.18555 14.564C6.18555 14.2453 6.24273 13.9387 6.36367 13.6519C6.80617 14.8894 8.07555 15.3122 9.56805 15.3122C11.0615 15.3122 12.3309 14.8894 12.7724 13.6519C12.8924 13.9397 12.9506 14.2453 12.9506 14.564Z" fill="#3E4347"/>
<path d="M17.0488 14.564C17.0488 16.1644 18.5648 17.4581 20.4313 17.4581C22.2979 17.4581 23.8138 16.1644 23.8138 14.564C23.8138 14.2453 23.7566 13.9387 23.6357 13.6519C23.1932 14.8894 21.9238 15.3122 20.4313 15.3122C18.9379 15.3122 17.6685 14.8894 17.227 13.6519C17.107 13.9397 17.0488 14.2453 17.0488 14.564Z" fill="#3E4347"/>
<path d="M21.8776 12.7585C19.4982 12.2691 18.1023 11.2669 17.4845 9.60286C17.3645 9.27942 17.5295 8.91942 17.8529 8.79942C18.1764 8.67942 18.5364 8.84442 18.6564 9.16786C18.9648 10.0004 19.6389 11.0213 22.1289 11.5332C22.4673 11.6026 22.6848 11.9335 22.6154 12.271C22.5451 12.616 22.2085 12.8279 21.8776 12.7585Z" fill="#E9B02C"/>
<path d="M7.3776 12.2227C7.33635 11.8796 7.5801 11.5683 7.92229 11.5271C9.6426 11.318 10.8576 10.4808 11.3442 9.17019C11.4642 8.84675 11.8242 8.68081 12.1476 8.80175C12.471 8.92175 12.637 9.28175 12.516 9.60519C11.8682 11.3508 10.2492 12.5039 8.07416 12.7683C7.72635 12.8086 7.41979 12.5621 7.3776 12.2227Z" fill="#E9B02C"/>
<path d="M19.8966 23.7752C16.5638 22.4937 13.4447 22.4937 10.111 23.7752C9.60287 23.9599 9.19037 23.268 9.54006 22.8162C11.0879 20.7874 13.0322 19.6343 15.0001 19.6343C16.9679 19.6343 18.9207 20.7874 20.4601 22.8162C20.8088 23.268 20.3963 23.959 19.8966 23.7752Z" fill="#3E4347"/>
</svg>
