<svg xmlns="http://www.w3.org/2000/svg" width="17.177" height="17.366" viewBox="0 0 17.177 17.366">
  <g id="Group_2341" dataname="Group 2341" transform="translate(-259.691 -11.037)">
    <g id="Group_2105" dataname="Group 2105" transform="translate(259.691 11.037)">
      <g id="Group_2339" dataname="Group 2339">
        <g id="Group_2106" dataname="Group 2106">
          <g id="Path_156" dataname="Path 156" fill="#ad60a4">
            <path d="M 6.56857442855835 11.19877815246582 C 3.498054504394531 11.19877815246582 1.000004410743713 8.911197662353516 1.000004410743713 6.099388122558594 C 1.000004410743713 3.287578105926514 3.498054504394531 0.999998152256012 6.56857442855835 0.999998152256012 C 9.639094352722168 0.999998152256012 12.13714408874512 3.287578105926514 12.13714408874512 6.099388122558594 C 12.13714408874512 8.911197662353516 9.639094352722168 11.19877815246582 6.56857442855835 11.19877815246582 Z" stroke="none"/>
            <path d="M 6.56857442855835 1.999998092651367 C 4.049454689025879 1.999998092651367 2.000004768371582 3.838977813720703 2.000004768371582 6.099388122558594 C 2.000004768371582 8.359798431396484 4.049454689025879 10.19877815246582 6.56857442855835 10.19877815246582 C 9.08769416809082 10.19877815246582 11.13714408874512 8.359798431396484 11.13714408874512 6.099388122558594 C 11.13714408874512 3.838977813720703 9.08769416809082 1.999998092651367 6.56857442855835 1.999998092651367 M 6.56857442855835 -1.9073486328125e-06 C 10.1962947845459 -1.9073486328125e-06 13.13714408874512 2.730788230895996 13.13714408874512 6.099388122558594 C 13.13714408874512 9.467988014221191 10.1962947845459 12.19877815246582 6.56857442855835 12.19877815246582 C 2.940854072570801 12.19877815246582 4.76837158203125e-06 9.467988014221191 4.76837158203125e-06 6.099388122558594 C 4.76837158203125e-06 2.730788230895996 2.940854072570801 -1.9073486328125e-06 6.56857442855835 -1.9073486328125e-06 Z" stroke="none" fill="#fff"/>
          </g>
          <path id="Path_143" dataname="Path 143" d="M-12550.478-2263.677l5.25,5.25" transform="translate(12560.99 2274.379)" fill="#fff" stroke="#fff" stroke-linecap="round" stroke-width="2"/>
        </g>
      </g>
    </g>
  </g>
</svg>
