<svg width="14" height="14" viewBox="0 0 14 14" fill="none" xmlns="http://www.w3.org/2000/svg">
<path d="M3 9.00025C4.10457 9.00025 5 8.10482 5 7.00025C5 5.89568 4.10457 5.00024 3 5.00024C1.89543 5.00024 1 5.89568 1 7.00025C1 8.10482 1.89543 9.00025 3 9.00025Z" stroke="inherit" stroke-width="0.857144" stroke-linecap="round" stroke-linejoin="round"/>
<path d="M11 5C12.1046 5 13 4.10457 13 3C13 1.89543 12.1046 1 11 1C9.89543 1 9 1.89543 9 3C9 4.10457 9.89543 5 11 5Z" stroke="inherit" stroke-width="0.857144" stroke-linecap="round" stroke-linejoin="round"/>
<path d="M11 12.9998C12.1046 12.9998 13 12.1043 13 10.9998C13 9.89519 12.1046 8.99976 11 8.99976C9.89543 8.99976 9 9.89519 9 10.9998C9 12.1043 9.89543 12.9998 11 12.9998Z" stroke="inherit" stroke-width="0.857144" stroke-linecap="round" stroke-linejoin="round"/>
<path d="M4.80078 6.13361L9.20079 3.86694" stroke="inherit" stroke-width="0.857144" stroke-linecap="round" stroke-linejoin="round"/>
<path d="M4.80078 7.86621L9.20079 10.1329" stroke="inherit" stroke-width="0.857144" stroke-linecap="round" stroke-linejoin="round"/>
</svg>
