<svg width="6" height="11" viewBox="0 0 6 11" fill="none" xmlns="http://www.w3.org/2000/svg">
<path d="M5.39047 3.07074L5.12604 3.34011C5.05592 3.41154 4.96078 3.45169 4.86161 3.45169C4.76243 3.45169 4.66729 3.41154 4.59713 3.34011L3.31094 2.02989V10.619C3.31094 10.8294 3.14351 11 2.93697 11H2.563C2.35646 11 2.18903 10.8294 2.18903 10.619V2.02993L0.902837 3.34015C0.83268 3.41158 0.73758 3.45173 0.638403 3.45173C0.539226 3.45173 0.444089 3.41158 0.373969 3.34015L0.109498 3.07077C-0.0364994 2.92201 -0.0364994 2.68079 0.109498 2.53203L2.48555 0.111582C2.55859 0.0371819 2.65429 -9.53674e-07 2.74999 -9.53674e-07C2.84568 -9.53674e-07 2.94142 0.0371819 3.01442 0.111582L5.39047 2.53203C5.53651 2.68079 5.53651 2.92201 5.39047 3.07074Z" fill="#022A54" fill-opacity="0.6"/>
</svg>
