<svg width="6" height="12" viewBox="0 0 6 12" fill="none" xmlns="http://www.w3.org/2000/svg">
<path d="M5.88052 3.34989L5.59204 3.64376C5.51555 3.72168 5.41176 3.76548 5.30357 3.76548C5.19538 3.76548 5.09159 3.72168 5.01505 3.64376L3.61193 2.21442V11.5844C3.61193 11.8139 3.42929 12 3.20397 12H2.796C2.57068 12 2.38803 11.8139 2.38803 11.5844V2.21446L0.984913 3.6438C0.908379 3.72172 0.804633 3.76552 0.69644 3.76552C0.588247 3.76552 0.48446 3.72172 0.407967 3.6438L0.119453 3.34994C-0.0398176 3.18765 -0.0398176 2.9245 0.119453 2.76221L2.71151 0.121726C2.79119 0.0405617 2.89559 0 2.99998 0C3.10438 0 3.20882 0.0405617 3.28846 0.121726L5.88052 2.76221C6.03983 2.9245 6.03983 3.18765 5.88052 3.34989Z" fill="#1BD47B"/>
</svg>
