<svg width="6" height="12" viewBox="0 0 6 12" fill="none" xmlns="http://www.w3.org/2000/svg">
<path d="M5.88052 8.65011L5.59204 8.35624C5.51555 8.27832 5.41176 8.23452 5.30357 8.23452C5.19538 8.23452 5.09159 8.27832 5.01505 8.35624L3.61193 9.78558V0.415589C3.61193 0.186059 3.42929 0 3.20397 0H2.796C2.57068 0 2.38803 0.186059 2.38803 0.415589V9.78554L0.984913 8.3562C0.908379 8.27828 0.804633 8.23448 0.69644 8.23448C0.588247 8.23448 0.48446 8.27828 0.407967 8.3562L0.119453 8.65006C-0.0398176 8.81235 -0.0398176 9.0755 0.119453 9.23779L2.71151 11.8783C2.79119 11.9594 2.89559 12 2.99998 12C3.10438 12 3.20882 11.9594 3.28846 11.8783L5.88052 9.23779C6.03983 9.0755 6.03983 8.81235 5.88052 8.65011Z" fill="#FB5266"/>
</svg>
