<svg width="18" height="13" viewBox="0 0 18 13" fill="none" xmlns="http://www.w3.org/2000/svg">
<path fill-rule="evenodd" clip-rule="evenodd" d="M17.0526 0.947368H0.947368L0.947368 11.3684H17.0526V0.947368ZM0.947368 0C0.424151 0 0 0.424151 0 0.947368V11.3684C0 11.8916 0.424151 12.3158 0.947368 12.3158H17.0526C17.5758 12.3158 18 11.8916 18 11.3684V0.947368C18 0.424151 17.5758 0 17.0526 0H0.947368Z" fill="#677F98"/>
<path fill-rule="evenodd" clip-rule="evenodd" d="M2.84211 3.78965H0.947368V8.5265H2.84211V3.78965ZM0 2.84229V9.47386H2.84211C3.36532 9.47386 3.78947 9.04971 3.78947 8.5265V3.78965C3.78947 3.26644 3.36532 2.84229 2.84211 2.84229H0Z" fill="#677F98"/>
<path fill-rule="evenodd" clip-rule="evenodd" d="M15.1579 3.78965H17.0526V8.5265H15.1579V3.78965ZM18 2.84229V9.47386H15.1579C14.6347 9.47386 14.2105 9.04971 14.2105 8.5265V3.78965C14.2105 3.26644 14.6347 2.84229 15.1579 2.84229H18Z" fill="#677F98"/>
<path fill-rule="evenodd" clip-rule="evenodd" d="M8.52529 12.3162L8.52529 0.947754L9.47266 0.947754L9.47266 12.3162L8.52529 12.3162Z" fill="#677F98"/>
<path d="M11.3677 6.15846C11.3677 7.4665 10.3073 8.52688 8.99928 8.52688C7.69124 8.52688 6.63086 7.4665 6.63086 6.15846C6.63086 4.85042 7.69124 3.79004 8.99928 3.79004C10.3073 3.79004 11.3677 4.85042 11.3677 6.15846Z" fill="#677F98"/>
<path fill-rule="evenodd" clip-rule="evenodd" d="M8.99928 7.57951C9.78411 7.57951 10.4203 6.94329 10.4203 6.15846C10.4203 5.37363 9.78411 4.73741 8.99928 4.73741C8.21445 4.73741 7.57823 5.37363 7.57823 6.15846C7.57823 6.94329 8.21445 7.57951 8.99928 7.57951ZM8.99928 8.52688C10.3073 8.52688 11.3677 7.4665 11.3677 6.15846C11.3677 4.85042 10.3073 3.79004 8.99928 3.79004C7.69124 3.79004 6.63086 4.85042 6.63086 6.15846C6.63086 7.4665 7.69124 8.52688 8.99928 8.52688Z" fill="#677F98"/>
</svg>
