<svg width="40" height="40" viewBox="0 0 40 40" fill="none" xmlns="http://www.w3.org/2000/svg">
<circle cx="20" cy="20" r="20" fill="#EAEDF2"/>
<g clip-path="url(#clip0)">
<g clip-path="url(#clip1)">
<path d="M27.6018 10.0361C26.5256 10.0361 25.6501 10.9526 25.6501 12.0791C25.6501 12.536 25.7992 12.954 26.0423 13.2947L22.8592 16.9101C22.7103 16.872 22.5571 16.846 22.3972 16.846C21.9976 16.846 21.6264 16.9732 21.3168 17.1897L19.0469 15.4082C19.1045 15.2158 19.1443 15.0151 19.1443 14.8031C19.1443 13.6765 18.2688 12.7601 17.1925 12.7601C16.1163 12.7601 15.2408 13.6765 15.2408 14.8031C15.2408 15.0151 15.2805 15.2158 15.3381 15.4082L13.0683 17.1897C12.7586 16.9732 12.3874 16.846 11.9879 16.846C10.9116 16.846 10.0361 17.7625 10.0361 18.889C10.0361 20.0155 10.9116 20.932 11.9879 20.932C13.0641 20.932 13.9396 20.0155 13.9396 18.889C13.9396 18.6769 13.8998 18.4763 13.8422 18.2838L16.1121 16.5024C16.4218 16.7188 16.793 16.846 17.1925 16.846C17.592 16.846 17.9632 16.7188 18.2729 16.5024L20.5428 18.2838C20.4852 18.4763 20.4454 18.6769 20.4454 18.889C20.4454 20.0155 21.3209 20.932 22.3972 20.932C23.4734 20.932 24.3489 20.0155 24.3489 18.889C24.3489 18.4321 24.1997 18.0141 23.9566 17.6734L27.1398 14.058C27.2886 14.0962 27.4418 14.1221 27.6018 14.1221C28.678 14.1221 29.5535 13.2056 29.5535 12.0791C29.5535 10.9526 28.678 10.0361 27.6018 10.0361H27.6018Z" fill="#A1B5C9"/>
</g>
</g>
<path d="M18.5851 19.9292H15.8612C15.4847 19.9292 15.1802 20.2338 15.1802 20.6102V29.5538H19.2661V20.6102C19.2661 20.2338 18.9615 19.9292 18.5851 19.9292H18.5851Z" fill="#A1B5C9"/>
<path d="M23.7292 22.6533H21.0052C20.6288 22.6533 20.3242 22.958 20.3242 23.3344V29.5541H24.4102V23.3344C24.4102 22.958 24.1056 22.6533 23.7292 22.6533Z" fill="#A1B5C9"/>
<path d="M28.8723 17.2051H26.1483C25.7719 17.2051 25.4673 17.5097 25.4673 17.8861V29.5537H29.5533V17.8861C29.5533 17.5097 29.2487 17.2051 28.8723 17.2051Z" fill="#A1B5C9"/>
<path d="M13.4411 24.0151H10.7171C10.3407 24.0151 10.0361 24.3197 10.0361 24.6961V29.5538H14.1221V24.6961C14.1221 24.3197 13.8175 24.0151 13.4411 24.0151H13.4411Z" fill="#A1B5C9"/>
<defs>
<clipPath id="clip0">
<rect width="19.5174" height="10.8958" fill="white" transform="translate(10.0361 10.0361)"/>
</clipPath>
<clipPath id="clip1">
<rect width="19.5174" height="10.8958" fill="white" transform="translate(10.0361 10.0361)"/>
</clipPath>
</defs>
</svg>
