<svg width="13" height="17" viewBox="0 0 13 17" fill="none" xmlns="http://www.w3.org/2000/svg">
<path d="M10.9986 5.09577L11.7101 4.09089C11.8393 3.90839 11.7961 3.65601 11.6138 3.52685L10.5407 2.76695C10.3584 2.63803 10.1057 2.68117 9.97658 2.8634L9.2473 3.89332C8.70901 3.64111 8.13106 3.46041 7.52542 3.3642V2.94546C7.52542 2.67732 7.74488 2.45788 8.01302 2.45788H8.28198C8.55025 2.45788 8.76969 2.23848 8.76969 1.97058V0.487675C8.76969 0.219674 8.55025 0 8.28198 0H4.71795C4.44995 0 4.23045 0.219674 4.23045 0.487675V1.97055C4.23045 2.23845 4.44995 2.45785 4.71795 2.45785H4.98722C5.25525 2.45785 5.47475 2.67728 5.47475 2.94542V3.36417C4.82528 3.46744 4.20811 3.6674 3.63749 3.94829L2.91493 2.9283C2.78588 2.74584 2.53339 2.70293 2.351 2.83185L1.278 3.59179C1.0955 3.72098 1.05239 3.97336 1.18165 4.15596L1.91018 5.18489C0.730779 6.36198 0 7.98888 0 9.78324C0 13.3672 2.91599 16.2832 6.50003 16.2832C10.0842 16.2832 13 13.3672 13 9.78324C13 7.94304 12.2314 6.27941 10.9986 5.09577ZM6.50003 14.7233C3.77616 14.7233 1.56002 12.507 1.56002 9.7832C1.56002 7.05923 3.77616 4.84309 6.50003 4.84309C9.22394 4.84309 11.4402 7.05923 11.4402 9.7832C11.4402 12.507 9.22394 14.7233 6.50003 14.7233Z" fill="#A1B5C9"/>
<path d="M6.50021 5.70898C6.48923 5.70898 6.47855 5.70997 6.46777 5.70997V9.74994H10.5726C10.5553 7.51879 8.73535 5.70898 6.50021 5.70898Z" fill="#A1B5C9"/>
</svg>
