<svg xmlns="http://www.w3.org/2000/svg" width="34.168" height="30.088" viewBox="0 0 34.168 30.088">
  <g id="Group_3392" dataname="Group 3392" transform="translate(-695 -580.999)">
    <path id="XMLID_1988_" d="M33.165,73.72H1a1,1,0,0,0-1,1V93.2a1,1,0,0,0,1,1H13.546v7.6H10.839a1,1,0,0,0,0,2.007h12.49a1,1,0,0,0,0-2.007H20.622v-7.6H33.165a1,1,0,0,0,1-1V74.723A1,1,0,0,0,33.165,73.72ZM18.615,101.8H15.553v-7.6h3.063Zm13.546-9.6H2.007V75.727H32.161Z" transform="translate(695 507.279)" fill="#6b2262"/>
  </g>
</svg>
