<svg width="13" height="11" viewBox="0 0 13 11" fill="none" xmlns="http://www.w3.org/2000/svg">
<path fill-rule="evenodd" clip-rule="evenodd" d="M12.4543 2.13675C12.0076 2.33273 11.5269 2.46472 11.0227 2.52432C11.5374 2.21954 11.9327 1.73717 12.1185 1.16241C11.6375 1.44479 11.1033 1.64918 10.536 1.75997C10.0812 1.2816 9.43286 0.982422 8.71649 0.982422C7.34004 0.982422 6.22397 2.08475 6.22397 3.44426C6.22397 3.63704 6.24624 3.82503 6.28876 4.00542C4.21699 3.90303 2.38051 2.92269 1.15105 1.43319C0.936423 1.79677 0.813721 2.21954 0.813721 2.67071C0.813721 3.52466 1.2531 4.27821 1.9225 4.71978C1.51349 4.70698 1.12959 4.59618 0.793067 4.4118V4.44259C0.793067 5.63571 1.65279 6.63045 2.79235 6.85723C2.58339 6.91323 2.36309 6.94363 2.13591 6.94363C1.97514 6.94363 1.81883 6.92803 1.66656 6.89923C1.98365 7.87716 2.90452 8.58912 3.99508 8.60912C3.14223 9.26907 2.06747 9.66304 0.899571 9.66304C0.697902 9.66304 0.499473 9.65144 0.304688 9.62824C1.4078 10.3266 2.71784 10.7346 4.12547 10.7346C8.71001 10.7346 11.2171 6.98322 11.2171 3.73024C11.2171 3.62344 11.2151 3.51705 11.2098 3.41186C11.6974 3.06389 12.1202 2.63031 12.4543 2.13675Z" fill="white"/>
</svg>
