<svg width="15" height="18" viewBox="0 0 15 18" fill="none" xmlns="http://www.w3.org/2000/svg">
<path fill-rule="evenodd" clip-rule="evenodd" d="M3.11111 11C2.52174 11 1.95651 11.2634 1.53976 11.7322C1.12302 12.2011 0.888889 12.837 0.888889 13.5V17.5C0.888889 17.7761 0.689904 18 0.444444 18C0.198985 18 0 17.7761 0 17.5V13.5C0 12.5717 0.327777 11.6815 0.911223 11.0251C1.49467 10.3687 2.28599 10 3.11111 10H7.55556C7.80102 10 8 10.2239 8 10.5C8 10.7761 7.80102 11 7.55556 11H3.11111Z" fill="#246BFD"/>
<path fill-rule="evenodd" clip-rule="evenodd" d="M5.10983 8.12553C5.25628 7.95816 5.49372 7.95816 5.64017 8.12553L7.89016 10.697C8.03661 10.8643 8.03661 11.1357 7.89016 11.303L5.64017 13.8745C5.49372 14.0418 5.25628 14.0418 5.10983 13.8745C4.96339 13.7071 4.96339 13.4358 5.10983 13.2684L7.09467 11L5.10983 8.73162C4.96339 8.56425 4.96339 8.29289 5.10983 8.12553Z" fill="#246BFD"/>
<path fill-rule="evenodd" clip-rule="evenodd" d="M9.5 0C9.77614 0 10 0.223858 10 0.5V4.5C10 4.63261 10.0527 4.75978 10.1464 4.85355C10.2402 4.94732 10.3674 5 10.5 5H14.5C14.7761 5 15 5.22386 15 5.5C15 5.77614 14.7761 6 14.5 6H10.5C10.1022 6 9.72064 5.84196 9.43934 5.56066C9.15804 5.27936 9 4.89783 9 4.5V0.5C9 0.223858 9.22386 0 9.5 0Z" fill="#246BFD"/>
<path fill-rule="evenodd" clip-rule="evenodd" d="M3.33333 0.947368C2.96203 0.947368 2.60593 1.09709 2.34338 1.36359C2.08083 1.63008 1.93333 1.99153 1.93333 2.36842V8.05263C1.93333 8.31424 1.7244 8.52632 1.46667 8.52632C1.20893 8.52632 1 8.31424 1 8.05263V2.36842C1 1.74028 1.24583 1.13786 1.68342 0.693694C2.121 0.249529 2.71449 0 3.33333 0H9.86667C9.99043 0 10.1091 0.0499059 10.1967 0.138739L14.8633 4.87558C14.9508 4.96441 15 5.0849 15 5.21053V15.6316C15 16.2597 14.7542 16.8621 14.3166 17.3063C13.879 17.7505 13.2855 18 12.6667 18H3.8C3.54227 18 3.33333 17.7879 3.33333 17.5263C3.33333 17.2647 3.54227 17.0526 3.8 17.0526H12.6667C13.038 17.0526 13.3941 16.9029 13.6566 16.6364C13.9192 16.3699 14.0667 16.0085 14.0667 15.6316V5.40673L9.67337 0.947368H3.33333Z" fill="#246BFD"/>
</svg>
