<svg width="17" height="16" viewBox="0 0 17 16" fill="none" xmlns="http://www.w3.org/2000/svg">
<path d="M1 15.117C3.94088 13.3523 5.41176 11.5875 5.41176 9.82284C5.41176 7.17578 4.52941 7.17578 3.64706 7.17578C2.76471 7.17578 1.85412 8.13313 1.88235 9.82284C1.91235 11.6299 3.34529 12.3614 4.08824 13.3523C5.41176 15.117 6.29412 15.5581 7.17647 14.2346C7.765 13.3523 8.20618 12.6173 8.5 12.0287C9.38235 14.0873 10.5585 15.117 12.0294 15.117H14.2353" stroke="#246BFD" stroke-linecap="round" stroke-linejoin="round"/>
<path d="M16.0001 13.3529V2.76471C16.0001 1.77559 15.2245 1 14.2354 1C13.2463 1 12.4707 1.77559 12.4707 2.76471V13.3529L14.2354 15.1176L16.0001 13.3529Z" stroke="#246BFD" stroke-linecap="round" stroke-linejoin="round"/>
<path d="M12.4707 4.5293H16.0001" stroke="#246BFD" stroke-linecap="round" stroke-linejoin="round"/>
</svg>
