<svg width="18" height="13" viewBox="0 0 18 13" fill="none" xmlns="http://www.w3.org/2000/svg">
<path d="M1 11.7778C3.96267 8.81511 5.44444 6.44444 5.44444 4.66667C5.44444 2 4.55556 2 3.66667 2C2.77778 2 1.86044 2.96444 1.88889 4.66667C1.91911 6.48711 3.36267 9.00178 4.11111 10C5.44444 11.7778 6.33333 12.2222 7.22222 10.8889L9 8.22222C9.296 10.5929 10.1849 11.7778 11.6667 11.7778C12.1378 11.7778 14.0124 10 14.3333 10C14.7929 10 15.6818 10.5929 17 11.7778" stroke="#246BFD" stroke-linecap="round" stroke-linejoin="round"/>
<path d="M17 1L12 6" stroke="#246BFD" stroke-linecap="round" stroke-linejoin="round"/>
<path d="M12 1L17 6" stroke="#246BFD" stroke-linecap="round" stroke-linejoin="round"/>
</svg>
