<svg width="11" height="11" viewBox="0 0 11 11" fill="none" xmlns="http://www.w3.org/2000/svg">
<path d="M10.1365 11H0.68746C0.48396 11 0.291918 10.9106 0.160835 10.7543C0.0297514 10.5985 -0.0247902 10.3936 0.0105014 10.1929L1.22371 3.31787C1.28146 2.98879 1.56654 2.75 1.90067 2.75H8.92325C9.25738 2.75 9.54246 2.98879 9.60021 3.31787L10.8134 10.1929C10.8487 10.3936 10.7942 10.5985 10.6631 10.7543C10.532 10.9106 10.34 11 10.1365 11ZM1.90067 3.20833C1.78929 3.20833 1.69442 3.28808 1.67471 3.39762L0.461501 10.2726C0.44546 10.3638 0.486251 10.4294 0.511918 10.4596C0.537585 10.4903 0.594418 10.5417 0.68746 10.5417H10.1365C10.2295 10.5417 10.2863 10.4903 10.312 10.4596C10.3377 10.4294 10.3785 10.3638 10.3624 10.2726L9.14921 3.39762C9.1295 3.28808 9.03463 3.20833 8.92325 3.20833H1.90067Z" fill="white"/>
<path d="M5.41178 3.20833C4.5272 3.20833 3.80762 2.48875 3.80762 1.60417C3.80762 0.719583 4.5272 0 5.41178 0C6.29637 0 7.01595 0.719583 7.01595 1.60417C7.01595 2.48875 6.29637 3.20833 5.41178 3.20833ZM5.41178 0.458333C4.7802 0.458333 4.26595 0.972583 4.26595 1.60417C4.26595 2.23575 4.7802 2.75 5.41178 2.75C6.04337 2.75 6.55762 2.23575 6.55762 1.60417C6.55762 0.972583 6.04337 0.458333 5.41178 0.458333Z" fill="white"/>
<path d="M2.89128 8.70817C2.76478 8.70817 2.66211 8.6055 2.66211 8.479V5.27067C2.66211 5.14417 2.76478 5.0415 2.89128 5.0415C3.01778 5.0415 3.12044 5.14417 3.12044 5.27067V8.479C3.12044 8.6055 3.01778 8.70817 2.89128 8.70817Z" fill="white"/>
<path d="M7.01595 8.70817C6.38437 8.70817 5.87012 8.19438 5.87012 7.56234V6.18734C5.87012 5.55575 6.38437 5.0415 7.01595 5.0415C7.64753 5.0415 8.16178 5.55575 8.16178 6.18734C8.16178 6.31384 8.05912 6.4165 7.93262 6.4165C7.80612 6.4165 7.70345 6.31384 7.70345 6.18734C7.70345 5.8083 7.39499 5.49984 7.01595 5.49984C6.63691 5.49984 6.32845 5.8083 6.32845 6.18734V7.56234C6.32845 7.94138 6.63691 8.24984 7.01595 8.24984C7.39499 8.24984 7.70345 7.94138 7.70345 7.56234V7.33317H7.01595C6.88945 7.33317 6.78678 7.2305 6.78678 7.104C6.78678 6.9775 6.88945 6.87484 7.01595 6.87484H7.93262C8.05912 6.87484 8.16178 6.9775 8.16178 7.104V7.56234C8.16178 8.19438 7.64753 8.70817 7.01595 8.70817Z" fill="white"/>
<path d="M4.72461 8.73668C4.67007 8.73668 4.61598 8.71743 4.57198 8.67847L2.73865 7.04589C2.69007 7.00235 2.66211 6.94001 2.66211 6.87401C2.66211 6.80801 2.69098 6.74568 2.74048 6.7026L4.57382 5.09843C4.66869 5.01501 4.81307 5.02418 4.8974 5.11997C4.98082 5.2153 4.97119 5.35968 4.87586 5.44355L3.23778 6.8763L4.87723 8.33701C4.97165 8.42135 4.98036 8.56572 4.89603 8.66059C4.85019 8.71101 4.78786 8.73668 4.72461 8.73668V8.73668Z" fill="white"/>
</svg>
