<svg width="16" height="15" viewBox="0 0 16 15" fill="none" xmlns="http://www.w3.org/2000/svg">
<path fill-rule="evenodd" clip-rule="evenodd" d="M3.46912 9.34948C3.47835 7.75999 4.54227 6.30875 6.15187 5.87746L6.73439 5.72138L7.04656 6.88642L8.79413 6.41816L8.48195 5.25312L14.3072 3.69226L14.7754 5.43982L10.3104 7.72419C10.424 7.9469 10.5162 8.18484 10.5835 8.43607C11.1007 10.3664 9.95521 12.3505 8.0249 12.8677C6.41531 13.299 4.7683 12.5742 3.96556 11.2022C3.80969 11.4045 3.5886 11.559 3.32291 11.6302C2.67947 11.8026 2.0181 11.4208 1.84569 10.7774C1.67328 10.1339 2.05513 9.47256 2.69856 9.30015C2.96425 9.22896 3.233 9.25227 3.46912 9.34948ZM9.22056 5.67955L13.8807 4.43086L14.068 5.1299L9.45122 7.49803C9.70036 7.81174 9.8907 8.18054 10.001 8.59216C10.432 10.2007 9.4774 11.8542 7.86881 12.2852C6.26023 12.7162 4.6068 11.7616 4.17578 10.153C3.7986 8.74539 4.48247 7.30343 5.73712 6.67629C5.91624 6.58676 6.10699 6.51383 6.30795 6.45998L6.62013 7.62503L9.53273 6.8446L9.22056 5.67955ZM2.85465 9.88267C2.53293 9.96888 2.34141 10.2973 2.42821 10.6213C2.51442 10.943 2.84286 11.1345 3.16682 11.0477C3.48854 10.9615 3.68006 10.6331 3.59325 10.3091C3.50705 9.98739 3.17861 9.79587 2.85465 9.88267ZM6.38039 2.07016L7.00474 4.40025L7.58726 4.24416L6.96291 1.91408L6.38039 2.07016ZM9.52208 1.8658L8.81679 4.17268L9.39351 4.349L10.0988 2.04212L9.52208 1.8658ZM4.12115 3.31298L5.88539 4.95815L5.47409 5.39921L3.70986 3.75403L4.12115 3.31298Z" fill="#022A54"/>
</svg>
