<svg width="23" height="22" viewBox="0 0 23 22" fill="none" xmlns="http://www.w3.org/2000/svg">
<path d="M20.315 3.94994C19.4327 4.3823 18.568 4.55788 17.668 4.82347C16.6789 3.7073 15.2124 3.64553 13.8033 4.17318C12.3941 4.70083 11.4712 5.99083 11.4915 7.47053V8.35288C8.62826 8.42612 6.07826 7.122 4.43267 4.82347C4.43267 4.82347 0.742674 11.382 7.96209 14.5294C6.31032 15.6296 4.66297 16.3717 2.66797 16.2941C5.58679 17.8849 8.76768 18.432 11.5215 17.6326C14.6803 16.7149 17.2762 14.3476 18.2724 10.8014C18.5695 9.72289 18.7171 8.60864 18.7109 7.48994C18.7091 7.27024 20.0433 5.04406 20.315 3.94906V3.94994Z" fill="white"/>
</svg>
