<svg width="22" height="22" viewBox="0 0 22 22" fill="none" xmlns="http://www.w3.org/2000/svg">
<path d="M14.807 3.94116H7.74816C5.79892 3.94116 4.21875 5.52133 4.21875 7.47057V14.5294C4.21875 16.4786 5.79892 18.0588 7.74816 18.0588H14.807C16.7562 18.0588 18.3364 16.4786 18.3364 14.5294V7.47057C18.3364 5.52133 16.7562 3.94116 14.807 3.94116Z" fill="white"/>
<path d="M11.2779 13.6471C12.7398 13.6471 13.925 12.462 13.925 11C13.925 9.53809 12.7398 8.35297 11.2779 8.35297C9.81599 8.35297 8.63086 9.53809 8.63086 11C8.63086 12.462 9.81599 13.6471 11.2779 13.6471Z" fill="#204872"/>
<path d="M15.248 7.02942V7.03042" stroke="#204872" stroke-width="1.95652" stroke-linecap="round" stroke-linejoin="round"/>
</svg>
